<?xml version="1.0" encoding="UTF-8" standalone="no"?>
<svg
   xmlns:dc="http://purl.org/dc/elements/1.1/"
   xmlns:cc="http://creativecommons.org/ns#"
   xmlns:rdf="http://www.w3.org/1999/02/22-rdf-syntax-ns#"
   xmlns:svg="http://www.w3.org/2000/svg"
   xmlns="http://www.w3.org/2000/svg"
   xmlns:xlink="http://www.w3.org/1999/xlink"
   xmlns:sodipodi="http://sodipodi.sourceforge.net/DTD/sodipodi-0.dtd"
   xmlns:inkscape="http://www.inkscape.org/namespaces/inkscape"
   width="1764"
   height="331"
   version="1.1"
   id="svg666"
   sodipodi:docname="A7.svg"
   inkscape:version="0.92.4 (5da689c313, 2019-01-14)">
  <metadata
     id="metadata670">
    <rdf:RDF>
      <cc:Work
         rdf:about="">
        <dc:format>image/svg+xml</dc:format>
        <dc:type
           rdf:resource="http://purl.org/dc/dcmitype/StillImage" />
        <dc:title></dc:title>
      </cc:Work>
    </rdf:RDF>
  </metadata>
  <sodipodi:namedview
     pagecolor="#ffffff"
     bordercolor="#666666"
     borderopacity="1"
     objecttolerance="10"
     gridtolerance="10"
     guidetolerance="10"
     inkscape:pageopacity="0"
     inkscape:pageshadow="2"
     inkscape:window-width="1680"
     inkscape:window-height="987"
     id="namedview668"
     showgrid="false"
     fit-margin-top="0"
     fit-margin-left="0"
     fit-margin-right="0"
     fit-margin-bottom="0"
     inkscape:zoom="0.84863662"
     inkscape:cx="885"
     inkscape:cy="110"
     inkscape:window-x="-8"
     inkscape:window-y="-8"
     inkscape:window-maximized="1"
     inkscape:current-layer="svg666" />
  <style
     type="text/css"
     id="style341"><![CDATA[
	.style1{fill:#FFFFCC;stroke:#A6A61D;stroke-width:2;}
	.style2{fill:#ECEFFF;stroke:#03689A;stroke-width:2;}
	.style3{text-rendering:auto;font-family:'Segoe UI';font-size:8pt;fill:#000000;clip-path:url(#def7);}
	.style4{text-rendering:auto;font-family:'Segoe UI';font-size:8pt;fill:#000000;clip-path:url(#def10);}
	.style5{fill:#E6FF97;stroke:#62A716;stroke-width:2;}
	.style6{text-rendering:auto;font-family:'Segoe UI';font-size:8pt;fill:#000000;clip-path:url(#def18);}
	.style7{text-rendering:auto;font-family:'Segoe UI';font-size:8pt;fill:#000000;clip-path:url(#def21);}
	.style8{text-rendering:auto;font-family:'Segoe UI';font-size:8pt;fill:#000000;clip-path:url(#def25);}
	.style9{fill:#EEAAAA;stroke:#990000;stroke-width:3;}]]></style>
  <defs
     id="defs414">
    <path
       id="c8159a58-692d-41a0-ac2d-407d080e4318HeaderPath"
       d="m 14,332 h 330 v 50 H 14 Z"
       inkscape:connector-curvature="0"
       style="fill-rule:evenodd" />
    <clipPath
       id="8b90deca-4316-439c-86a6-2a45f371f894HeaderClipPath">
      <use
         xlink:href="#c8159a58-692d-41a0-ac2d-407d080e4318HeaderPath"
         id="use344"
         x="0"
         y="0"
         width="100%"
         height="100%" />
    </clipPath>
    <polygon
       id="def3"
       points="20,0 40,20 20,40 0,20 " />
    <clipPath
       id="def4">
      <use
         xlink:href="#def3"
         id="use348"
         x="0"
         y="0"
         width="100%"
         height="100%" />
    </clipPath>
    <clipPath
       id="def5">
      <use
         xlink:href="#def3"
         id="use351"
         x="0"
         y="0"
         width="100%"
         height="100%" />
    </clipPath>
    <path
       id="def6"
       d="m 7,0 h 76 v 0 c 3.87,0 7,3.13 7,7 0,0 0,0 0,0 v 0 46 0 c 0,3.87 -3.13,7 -7,7 v 0 H 7 v 0 C 3.13,60 0,56.87 0,53 V 53 7 7 C 0,3.13 3.13,0 7,0 Z"
       inkscape:connector-curvature="0"
       style="fill-rule:evenodd" />
    <clipPath
       id="def7">
      <use
         xlink:href="#def6"
         id="use355"
         x="0"
         y="0"
         width="100%"
         height="100%" />
    </clipPath>
    <clipPath
       id="def8">
      <use
         xlink:href="#def3"
         id="use358"
         x="0"
         y="0"
         width="100%"
         height="100%" />
    </clipPath>
    <path
       id="def9"
       d="m 7,0 h 88 v 0 c 3.87,0 7,3.13 7,7 0,0 0,0 0,0 v 0 58 0 c 0,3.87 -3.13,7 -7,7 v 0 H 7 v 0 C 3.13,72 0,68.87 0,65 V 7 7 C 0,3.13 3.13,0 7,0 Z"
       inkscape:connector-curvature="0"
       style="fill-rule:evenodd" />
    <clipPath
       id="def10">
      <use
         xlink:href="#def9"
         id="use362"
         x="0"
         y="0"
         width="100%"
         height="100%" />
    </clipPath>
    <clipPath
       id="def11">
      <use
         xlink:href="#def3"
         id="use365"
         x="0"
         y="0"
         width="100%"
         height="100%" />
    </clipPath>
    <clipPath
       id="def12">
      <use
         xlink:href="#def3"
         id="use368"
         x="0"
         y="0"
         width="100%"
         height="100%" />
    </clipPath>
    <clipPath
       id="def13">
      <use
         xlink:href="#def3"
         id="use371"
         x="0"
         y="0"
         width="100%"
         height="100%" />
    </clipPath>
    <clipPath
       id="def14">
      <use
         xlink:href="#def3"
         id="use374"
         x="0"
         y="0"
         width="100%"
         height="100%" />
    </clipPath>
    <circle
       id="def15"
       cx="15"
       cy="15"
       r="15" />
    <clipPath
       id="def16">
      <use
         xlink:href="#def15"
         id="use378"
         x="0"
         y="0"
         width="100%"
         height="100%" />
    </clipPath>
    <path
       id="def17"
       d="m 7,0 h 76 v 0 c 3.87,0 7,3.13 7,7 0,0 0,0 0,0 v 0 58 0 c 0,3.87 -3.13,7 -7,7 v 0 H 7 v 0 C 3.13,72 0,68.87 0,65 V 7 7 C 0,3.13 3.13,0 7,0 Z"
       inkscape:connector-curvature="0"
       style="fill-rule:evenodd" />
    <clipPath
       id="def18">
      <use
         xlink:href="#def17"
         id="use382"
         x="0"
         y="0"
         width="100%"
         height="100%" />
    </clipPath>
    <clipPath
       id="def19">
      <use
         xlink:href="#def3"
         id="use385"
         x="0"
         y="0"
         width="100%"
         height="100%" />
    </clipPath>
    <path
       id="def20"
       d="m 7,0 h 87 v 0 c 3.87,0 7,3.13 7,7 0,0 0,0 0,0 v 0 61 0 c 0,3.87 -3.13,7 -7,7 v 0 H 7 v 0 C 3.13,75 0,71.87 0,68 V 7 7 C 0,3.13 3.13,0 7,0 Z"
       inkscape:connector-curvature="0"
       style="fill-rule:evenodd" />
    <clipPath
       id="def21">
      <use
         xlink:href="#def20"
         id="use389"
         x="0"
         y="0"
         width="100%"
         height="100%" />
    </clipPath>
    <clipPath
       id="def22">
      <use
         xlink:href="#def3"
         id="use392"
         x="0"
         y="0"
         width="100%"
         height="100%" />
    </clipPath>
    <clipPath
       id="def23">
      <use
         xlink:href="#def3"
         id="use395"
         x="0"
         y="0"
         width="100%"
         height="100%" />
    </clipPath>
    <path
       id="def24"
       d="m 7,0 h 79 v 0 c 3.87,0 7,3.13 7,7 0,0 0,0 0,0 v 0 60 0 c 0,3.87 -3.13,7 -7,7 v 0 H 7 v 0 C 3.13,74 0,70.87 0,67 V 7 7 C 0,3.13 3.13,0 7,0 Z"
       inkscape:connector-curvature="0"
       style="fill-rule:evenodd" />
    <clipPath
       id="def25">
      <use
         xlink:href="#def24"
         id="use399"
         x="0"
         y="0"
         width="100%"
         height="100%" />
    </clipPath>
    <clipPath
       id="def26">
      <use
         xlink:href="#def15"
         id="use402"
         x="0"
         y="0"
         width="100%"
         height="100%" />
    </clipPath>
    <clipPath
       id="def27">
      <use
         xlink:href="#def3"
         id="use405"
         x="0"
         y="0"
         width="100%"
         height="100%" />
    </clipPath>
    <marker
       id="defMarkerShadow"
       viewbox="0 0 10 8"
       refX="10"
       refY="4"
       markerUnits="strokeWidth"
       markerWidth="10"
       markerHeight="8"
       orient="auto"
       style="fill:#000000;fill-opacity:0.1">
      <path
         d="M 9,4 1,9 3,4 1,-1 Z"
         id="path408"
         inkscape:connector-curvature="0"
         style="fill-rule:evenodd" />
    </marker>
    <marker
       id="defMarker"
       viewbox="0 0 10 8"
       refX="10"
       refY="4"
       markerUnits="strokeWidth"
       markerWidth="10"
       markerHeight="8"
       orient="auto"
       style="fill:#000000;fill-opacity:1">
      <path
         d="M 9,4 1,9 3,4 1,-1 Z"
         id="path411"
         inkscape:connector-curvature="0"
         style="fill-rule:evenodd" />
    </marker>
  </defs>
  <g
     id="g424"
     transform="translate(-13.5,-1.5)">
    <rect
       x="14"
       y="2"
       width="1763"
       height="330"
       rx="0"
       ry="0"
       style="fill:#ffffff;stroke:#000000;stroke-width:1px;stroke-linecap:butt;stroke-linejoin:miter;stroke-opacity:1"
       id="rect416" />
    <line
       x1="64"
       y1="2"
       x2="64"
       y2="332"
       style="stroke:#000000;stroke-width:1px;stroke-linecap:butt;stroke-linejoin:miter;stroke-opacity:1"
       id="line418" />
    <text
       style="font-weight:bold;font-size:10.66666698px;font-family:'Segoe UI';fill:#000000"
       transform="rotate(-90,14,332)"
       clip-path="url(#8b90deca-4316-439c-86a6-2a45f371f894HeaderClipPath)"
       id="text422">
      <tspan
         x="98.560783"
         y="361"
         id="tspan420">A7 - Analyze the Collected Data</tspan>
    </text>
  </g>
  <use
     id="2e6ec410-407f-4cfd-972f-acefd90af673"
     xlink:href="#def3"
     class="style1"
     x="678"
     y="87"
     style="fill:#ffffcc;stroke:#a6a61d;stroke-width:2"
     width="100%"
     height="100%"
     transform="translate(-13.5,-1.5)" />
  <g
     id="2e6ec410-407f-4cfd-972f-acefd90af673Container"
     transform="translate(664.5,85.5)" />
  <g
     id="g434"
     transform="translate(-13.5,-1.5)">
    <path
       style="fill:#a6a61d;stroke:#a6a61d;stroke-width:1px;stroke-linecap:butt;stroke-linejoin:miter;stroke-opacity:1"
       d="m 14.288518,6.459273 h 3.036311 v 8.930324 h 8.037291 v 3.214917 h -8.037291 v 7.947988 H 14.288518 V 18.604514 H 5.2688912 v -3.214917 h 9.0196268 z"
       transform="translate(682.5,91)"
       id="path428"
       inkscape:connector-curvature="0" />
    <path
       style="fill:#a6a61d;stroke:#a6a61d;stroke-width:1px;stroke-linecap:butt;stroke-linejoin:miter;stroke-opacity:1"
       d="M 7.3228657,10.969087 9.5107951,8.959764 24.201178,22.489205 21.968597,24.587831 Z"
       transform="translate(682.5,91)"
       id="path430"
       inkscape:connector-curvature="0" />
    <path
       style="fill:#a6a61d;stroke:#a6a61d;stroke-width:1px;stroke-linecap:butt;stroke-linejoin:miter;stroke-opacity:1"
       d="M 21.968597,8.959764 24.201178,10.969087 9.5107951,24.587831 7.3228657,22.489205 Z"
       transform="translate(682.5,91)"
       id="path432"
       inkscape:connector-curvature="0" />
  </g>
  <use
     id="e0bfbabc-0839-4d99-a21a-dcb5aa974ab8"
     xlink:href="#def3"
     class="style1"
     x="1010"
     y="202"
     style="fill:#ffffcc;stroke:#a6a61d;stroke-width:2"
     width="100%"
     height="100%"
     transform="translate(-13.5,-1.5)" />
  <g
     id="e0bfbabc-0839-4d99-a21a-dcb5aa974ab8Container"
     transform="translate(996.5,200.5)" />
  <g
     id="g444"
     transform="translate(-13.5,-1.5)">
    <path
       style="fill:#a6a61d;stroke:#a6a61d;stroke-width:1px;stroke-linecap:butt;stroke-linejoin:miter;stroke-opacity:1"
       d="m 14.288518,6.459273 h 3.036311 v 8.930324 h 8.037291 v 3.214917 h -8.037291 v 7.947988 H 14.288518 V 18.604514 H 5.2688912 v -3.214917 h 9.0196268 z"
       transform="translate(1014.5,206)"
       id="path438"
       inkscape:connector-curvature="0" />
    <path
       style="fill:#a6a61d;stroke:#a6a61d;stroke-width:1px;stroke-linecap:butt;stroke-linejoin:miter;stroke-opacity:1"
       d="M 7.3228657,10.969087 9.5107951,8.959764 24.201178,22.489205 21.968597,24.587831 Z"
       transform="translate(1014.5,206)"
       id="path440"
       inkscape:connector-curvature="0" />
    <path
       style="fill:#a6a61d;stroke:#a6a61d;stroke-width:1px;stroke-linecap:butt;stroke-linejoin:miter;stroke-opacity:1"
       d="M 21.968597,8.959764 24.201178,10.969087 9.5107951,24.587831 7.3228657,22.489205 Z"
       transform="translate(1014.5,206)"
       id="path442"
       inkscape:connector-curvature="0" />
  </g>
  <use
     id="413310c1-74f2-4292-a844-d44a5e41b571"
     xlink:href="#def6"
     class="style2"
     x="530"
     y="77"
     style="fill:#ecefff;stroke:#03689a;stroke-width:2"
     width="100%"
     height="100%"
     transform="translate(-13.5,-1.5)" />
  <g
     id="413310c1-74f2-4292-a844-d44a5e41b571Container"
     transform="translate(516.5,75.5)">
    <text
       id="413310c1-74f2-4292-a844-d44a5e41b571Text"
       class="style3"
       clip-path="url(#def7)"
       style="font-size:10.66666698px;font-family:'Segoe UI';fill:#000000;text-rendering:auto">
      <tspan
         x="0"
         y="9"
         id="tspan447" />
      <tspan
         x="12"
         y="18"
         id="tspan449">A7b - Analyze</tspan>
      <tspan
         x="9"
         y="32"
         id="tspan451">the images and</tspan>
      <tspan
         x="34"
         y="46"
         id="tspan453">logs</tspan>
    </text>
  </g>
  <use
     id="da694471-9af2-4663-900d-1e0850901330"
     xlink:href="#def3"
     class="style1"
     x="555"
     y="202"
     style="fill:#ffffcc;stroke:#a6a61d;stroke-width:2"
     width="100%"
     height="100%"
     transform="translate(-13.5,-1.5)" />
  <g
     id="da694471-9af2-4663-900d-1e0850901330Container"
     transform="translate(541.5,200.5)" />
  <g
     id="g465"
     transform="translate(-13.5,-1.5)">
    <path
       style="fill:#a6a61d;stroke:#a6a61d;stroke-width:1px;stroke-linecap:butt;stroke-linejoin:miter;stroke-opacity:1"
       d="m 14.288518,6.459273 h 3.036311 v 8.930324 h 8.037291 v 3.214917 h -8.037291 v 7.947988 H 14.288518 V 18.604514 H 5.2688912 v -3.214917 h 9.0196268 z"
       transform="translate(559.5,206)"
       id="path459"
       inkscape:connector-curvature="0" />
    <path
       style="fill:#a6a61d;stroke:#a6a61d;stroke-width:1px;stroke-linecap:butt;stroke-linejoin:miter;stroke-opacity:1"
       d="M 7.3228657,10.969087 9.5107951,8.959764 24.201178,22.489205 21.968597,24.587831 Z"
       transform="translate(559.5,206)"
       id="path461"
       inkscape:connector-curvature="0" />
    <path
       style="fill:#a6a61d;stroke:#a6a61d;stroke-width:1px;stroke-linecap:butt;stroke-linejoin:miter;stroke-opacity:1"
       d="M 21.968597,8.959764 24.201178,10.969087 9.5107951,24.587831 7.3228657,22.489205 Z"
       transform="translate(559.5,206)"
       id="path463"
       inkscape:connector-curvature="0" />
  </g>
  <use
     id="36c7862a-22ed-4ed1-be8c-bcbfc864d01d"
     xlink:href="#def9"
     class="style2"
     x="1152"
     y="71"
     style="fill:#ecefff;stroke:#03689a;stroke-width:2"
     width="100%"
     height="100%"
     transform="translate(-13.5,-1.5)" />
  <g
     id="36c7862a-22ed-4ed1-be8c-bcbfc864d01dContainer"
     transform="translate(1138.5,69.5)">
    <text
       id="36c7862a-22ed-4ed1-be8c-bcbfc864d01dText"
       class="style4"
       clip-path="url(#def10)"
       style="font-size:10.66666698px;font-family:'Segoe UI';fill:#000000;text-rendering:auto">
      <tspan
         x="51"
         y="16"
         id="tspan468" />
      <tspan
         x="7"
         y="31"
         id="tspan470">A7d - Analyze the</tspan>
      <tspan
         x="23"
         y="45"
         id="tspan472">videos was</tspan>
      <tspan
         x="26"
         y="59"
         id="tspan474">recording</tspan>
    </text>
  </g>
  <use
     id="34917984-7fa5-43ed-9a5f-fdbac06614b9"
     xlink:href="#def3"
     class="style1"
     x="413"
     y="87"
     style="fill:#ffffcc;stroke:#a6a61d;stroke-width:2"
     width="100%"
     height="100%"
     transform="translate(-13.5,-1.5)" />
  <g
     id="34917984-7fa5-43ed-9a5f-fdbac06614b9Container"
     transform="translate(399.5,85.5)" />
  <g
     id="g486"
     transform="translate(-13.5,-1.5)">
    <path
       style="fill:#a6a61d;stroke:#a6a61d;stroke-width:1px;stroke-linecap:butt;stroke-linejoin:miter;stroke-opacity:1"
       d="m 14.288518,6.459273 h 3.036311 v 8.930324 h 8.037291 v 3.214917 h -8.037291 v 7.947988 H 14.288518 V 18.604514 H 5.2688912 v -3.214917 h 9.0196268 z"
       transform="translate(417.5,91)"
       id="path480"
       inkscape:connector-curvature="0" />
    <path
       style="fill:#a6a61d;stroke:#a6a61d;stroke-width:1px;stroke-linecap:butt;stroke-linejoin:miter;stroke-opacity:1"
       d="M 7.3228657,10.969087 9.5107951,8.959764 24.201178,22.489205 21.968597,24.587831 Z"
       transform="translate(417.5,91)"
       id="path482"
       inkscape:connector-curvature="0" />
    <path
       style="fill:#a6a61d;stroke:#a6a61d;stroke-width:1px;stroke-linecap:butt;stroke-linejoin:miter;stroke-opacity:1"
       d="M 21.968597,8.959764 24.201178,10.969087 9.5107951,24.587831 7.3228657,22.489205 Z"
       transform="translate(417.5,91)"
       id="path484"
       inkscape:connector-curvature="0" />
  </g>
  <use
     id="ac3b2267-303b-4b6d-87bd-7690072b15e3"
     xlink:href="#def3"
     class="style1"
     x="1334"
     y="87"
     style="fill:#ffffcc;stroke:#a6a61d;stroke-width:2"
     width="100%"
     height="100%"
     transform="translate(-13.5,-1.5)" />
  <g
     id="ac3b2267-303b-4b6d-87bd-7690072b15e3Container"
     transform="translate(1320.5,85.5)" />
  <g
     id="g496"
     transform="translate(-13.5,-1.5)">
    <path
       style="fill:#a6a61d;stroke:#a6a61d;stroke-width:1px;stroke-linecap:butt;stroke-linejoin:miter;stroke-opacity:1"
       d="m 14.288518,6.459273 h 3.036311 v 8.930324 h 8.037291 v 3.214917 h -8.037291 v 7.947988 H 14.288518 V 18.604514 H 5.2688912 v -3.214917 h 9.0196268 z"
       transform="translate(1338.5,91)"
       id="path490"
       inkscape:connector-curvature="0" />
    <path
       style="fill:#a6a61d;stroke:#a6a61d;stroke-width:1px;stroke-linecap:butt;stroke-linejoin:miter;stroke-opacity:1"
       d="M 7.3228657,10.969087 9.5107951,8.959764 24.201178,22.489205 21.968597,24.587831 Z"
       transform="translate(1338.5,91)"
       id="path492"
       inkscape:connector-curvature="0" />
    <path
       style="fill:#a6a61d;stroke:#a6a61d;stroke-width:1px;stroke-linecap:butt;stroke-linejoin:miter;stroke-opacity:1"
       d="M 21.968597,8.959764 24.201178,10.969087 9.5107951,24.587831 7.3228657,22.489205 Z"
       transform="translate(1338.5,91)"
       id="path494"
       inkscape:connector-curvature="0" />
  </g>
  <use
     id="fc2e9283-3b75-422c-b586-5d80d6903098"
     xlink:href="#def3"
     class="style1"
     x="678"
     y="202"
     style="fill:#ffffcc;stroke:#a6a61d;stroke-width:2"
     width="100%"
     height="100%"
     transform="translate(-13.5,-1.5)" />
  <g
     id="fc2e9283-3b75-422c-b586-5d80d6903098Container"
     transform="translate(664.5,200.5)" />
  <g
     id="g506"
     transform="translate(-13.5,-1.5)">
    <path
       style="fill:#a6a61d;stroke:#a6a61d;stroke-width:1px;stroke-linecap:butt;stroke-linejoin:miter;stroke-opacity:1"
       d="m 14.288518,6.459273 h 3.036311 v 8.930324 h 8.037291 v 3.214917 h -8.037291 v 7.947988 H 14.288518 V 18.604514 H 5.2688912 v -3.214917 h 9.0196268 z"
       transform="translate(682.5,206)"
       id="path500"
       inkscape:connector-curvature="0" />
    <path
       style="fill:#a6a61d;stroke:#a6a61d;stroke-width:1px;stroke-linecap:butt;stroke-linejoin:miter;stroke-opacity:1"
       d="M 7.3228657,10.969087 9.5107951,8.959764 24.201178,22.489205 21.968597,24.587831 Z"
       transform="translate(682.5,206)"
       id="path502"
       inkscape:connector-curvature="0" />
    <path
       style="fill:#a6a61d;stroke:#a6a61d;stroke-width:1px;stroke-linecap:butt;stroke-linejoin:miter;stroke-opacity:1"
       d="M 21.968597,8.959764 24.201178,10.969087 9.5107951,24.587831 7.3228657,22.489205 Z"
       transform="translate(682.5,206)"
       id="path504"
       inkscape:connector-curvature="0" />
  </g>
  <use
     id="3f492e0e-e03b-4044-96d6-78048cf83e34"
     xlink:href="#def3"
     class="style1"
     x="853"
     y="202"
     style="fill:#ffffcc;stroke:#a6a61d;stroke-width:2"
     width="100%"
     height="100%"
     transform="translate(-13.5,-1.5)" />
  <g
     id="3f492e0e-e03b-4044-96d6-78048cf83e34Container"
     transform="translate(839.5,200.5)" />
  <g
     id="g516"
     transform="translate(-13.5,-1.5)">
    <path
       style="fill:#a6a61d;stroke:#a6a61d;stroke-width:1px;stroke-linecap:butt;stroke-linejoin:miter;stroke-opacity:1"
       d="m 14.288518,6.459273 h 3.036311 v 8.930324 h 8.037291 v 3.214917 h -8.037291 v 7.947988 H 14.288518 V 18.604514 H 5.2688912 v -3.214917 h 9.0196268 z"
       transform="translate(857.5,206)"
       id="path510"
       inkscape:connector-curvature="0" />
    <path
       style="fill:#a6a61d;stroke:#a6a61d;stroke-width:1px;stroke-linecap:butt;stroke-linejoin:miter;stroke-opacity:1"
       d="M 7.3228657,10.969087 9.5107951,8.959764 24.201178,22.489205 21.968597,24.587831 Z"
       transform="translate(857.5,206)"
       id="path512"
       inkscape:connector-curvature="0" />
    <path
       style="fill:#a6a61d;stroke:#a6a61d;stroke-width:1px;stroke-linecap:butt;stroke-linejoin:miter;stroke-opacity:1"
       d="M 21.968597,8.959764 24.201178,10.969087 9.5107951,24.587831 7.3228657,22.489205 Z"
       transform="translate(857.5,206)"
       id="path514"
       inkscape:connector-curvature="0" />
  </g>
  <use
     id="2b4deadf-26bd-4848-a3c0-a684a5589f3a"
     xlink:href="#def15"
     class="style5"
     x="82"
     y="92"
     style="fill:#e6ff97;stroke:#62a716;stroke-width:2"
     width="100%"
     height="100%"
     transform="translate(-13.5,-1.5)" />
  <g
     id="2b4deadf-26bd-4848-a3c0-a684a5589f3aContainer"
     transform="translate(68.5,90.5)" />
  <use
     id="8ac50470-c098-4c45-941a-7365a9b6f118"
     xlink:href="#def17"
     class="style2"
     x="828"
     y="71"
     style="fill:#ecefff;stroke:#03689a;stroke-width:2"
     width="100%"
     height="100%"
     transform="translate(-13.5,-1.5)" />
  <g
     id="8ac50470-c098-4c45-941a-7365a9b6f118Container"
     transform="translate(814.5,69.5)">
    <text
       id="8ac50470-c098-4c45-941a-7365a9b6f118Text"
       class="style6"
       clip-path="url(#def18)"
       style="font-size:10.66666698px;font-family:'Segoe UI';fill:#000000;text-rendering:auto">
      <tspan
         x="0"
         y="9"
         id="tspan521" />
      <tspan
         x="12"
         y="31"
         id="tspan523">A7c - Analyze</tspan>
      <tspan
         x="10"
         y="45"
         id="tspan525">transcription of</tspan>
      <tspan
         x="21"
         y="59"
         id="tspan527">interview</tspan>
    </text>
  </g>
  <use
     id="7c96e66c-9f94-4977-8731-2245a907f974"
     xlink:href="#def3"
     class="style1"
     x="1010"
     y="87"
     style="fill:#ffffcc;stroke:#a6a61d;stroke-width:2"
     width="100%"
     height="100%"
     transform="translate(-13.5,-1.5)" />
  <g
     id="7c96e66c-9f94-4977-8731-2245a907f974Container"
     transform="translate(996.5,85.5)" />
  <g
     id="g539"
     transform="translate(-13.5,-1.5)">
    <path
       style="fill:#a6a61d;stroke:#a6a61d;stroke-width:1px;stroke-linecap:butt;stroke-linejoin:miter;stroke-opacity:1"
       d="m 14.288518,6.459273 h 3.036311 v 8.930324 h 8.037291 v 3.214917 h -8.037291 v 7.947988 H 14.288518 V 18.604514 H 5.2688912 v -3.214917 h 9.0196268 z"
       transform="translate(1014.5,91)"
       id="path533"
       inkscape:connector-curvature="0" />
    <path
       style="fill:#a6a61d;stroke:#a6a61d;stroke-width:1px;stroke-linecap:butt;stroke-linejoin:miter;stroke-opacity:1"
       d="M 7.3228657,10.969087 9.5107951,8.959764 24.201178,22.489205 21.968597,24.587831 Z"
       transform="translate(1014.5,91)"
       id="path535"
       inkscape:connector-curvature="0" />
    <path
       style="fill:#a6a61d;stroke:#a6a61d;stroke-width:1px;stroke-linecap:butt;stroke-linejoin:miter;stroke-opacity:1"
       d="M 21.968597,8.959764 24.201178,10.969087 9.5107951,24.587831 7.3228657,22.489205 Z"
       transform="translate(1014.5,91)"
       id="path537"
       inkscape:connector-curvature="0" />
  </g>
  <use
     id="111f0e1f-effd-4036-a761-c87b89f27c06"
     xlink:href="#def20"
     class="style2"
     x="193"
     y="70"
     style="fill:#ecefff;stroke:#03689a;stroke-width:2"
     width="100%"
     height="100%"
     transform="translate(-13.5,-1.5)" />
  <g
     id="111f0e1f-effd-4036-a761-c87b89f27c06Container"
     transform="translate(179.5,68.5)">
    <text
       id="111f0e1f-effd-4036-a761-c87b89f27c06Text"
       class="style7"
       clip-path="url(#def21)"
       style="font-size:10.66666698px;font-family:'Segoe UI';fill:#000000;text-rendering:auto">
      <tspan
         x="0"
         y="9"
         id="tspan542" />
      <tspan
         x="7"
         y="25"
         id="tspan544">A7a - Analyze the</tspan>
      <tspan
         x="14"
         y="39"
         id="tspan546">data collected</tspan>
      <tspan
         x="23"
         y="53"
         id="tspan548">during the</tspan>
      <tspan
         x="23"
         y="68"
         id="tspan550">evaluation</tspan>
    </text>
  </g>
  <use
     id="c064e5a0-6e0d-47aa-a165-333a594d11de"
     xlink:href="#def3"
     class="style1"
     x="1334"
     y="202"
     style="fill:#ffffcc;stroke:#a6a61d;stroke-width:2"
     width="100%"
     height="100%"
     transform="translate(-13.5,-1.5)" />
  <g
     id="c064e5a0-6e0d-47aa-a165-333a594d11deContainer"
     transform="translate(1320.5,200.5)" />
  <g
     id="g558"
     transform="translate(-13.5,-1.5)">
    <path
       style="fill:#a6a61d;stroke:#a6a61d;stroke-width:1px;stroke-linecap:butt;stroke-linejoin:miter;stroke-opacity:1"
       d="m 13.663396,7.530912 h 3.929342 v 7.054956 h 7.054956 v 4.018646 H 17.592738 V 25.65947 H 13.663396 V 18.604514 H 6.697743 v -4.018646 h 6.965653 z"
       transform="translate(1338.5,205.5)"
       id="path556"
       inkscape:connector-curvature="0" />
  </g>
  <use
     id="217190a8-1560-443c-b63d-52d63c060487"
     xlink:href="#def3"
     class="style1"
     x="1183"
     y="202"
     style="fill:#ffffcc;stroke:#a6a61d;stroke-width:2"
     width="100%"
     height="100%"
     transform="translate(-13.5,-1.5)" />
  <g
     id="217190a8-1560-443c-b63d-52d63c060487Container"
     transform="translate(1169.5,200.5)" />
  <g
     id="g564"
     transform="translate(-13.5,-1.5)">
    <path
       style="fill:#a6a61d;stroke:#a6a61d;stroke-width:1px;stroke-linecap:butt;stroke-linejoin:miter;stroke-opacity:1"
       d="m 13.663396,7.530912 h 3.929342 v 7.054956 h 7.054956 v 4.018646 H 17.592738 V 25.65947 H 13.663396 V 18.604514 H 6.697743 v -4.018646 h 6.965653 z"
       transform="translate(1187.5,205.5)"
       id="path562"
       inkscape:connector-curvature="0" />
  </g>
  <use
     id="6ae86d62-eaf8-4253-b3ca-10ffd1a85b5d"
     xlink:href="#def24"
     class="style2"
     x="1431"
     y="70"
     style="fill:#ecefff;stroke:#03689a;stroke-width:2"
     width="100%"
     height="100%"
     transform="translate(-13.5,-1.5)" />
  <g
     id="6ae86d62-eaf8-4253-b3ca-10ffd1a85b5dContainer"
     transform="translate(1417.5,68.5)">
    <text
       id="6ae86d62-eaf8-4253-b3ca-10ffd1a85b5dText"
       class="style8"
       clip-path="url(#def25)"
       style="font-size:10.66666698px;font-family:'Segoe UI';fill:#000000;text-rendering:auto">
      <tspan
         x="0"
         y="9"
         id="tspan567" />
      <tspan
         x="12"
         y="32"
         id="tspan569">A7e - Perform</tspan>
      <tspan
         x="35"
         y="46"
         id="tspan571">data</tspan>
      <tspan
         x="10"
         y="60"
         id="tspan573">standardization</tspan>
    </text>
  </g>
  <use
     id="2d49c33a-273b-41f1-868b-a21196d0107c"
     xlink:href="#def15"
     class="style9"
     x="1679"
     y="92"
     style="fill:#eeaaaa;stroke:#990000;stroke-width:3"
     width="100%"
     height="100%"
     transform="translate(-13.5,-1.5)" />
  <g
     id="2d49c33a-273b-41f1-868b-a21196d0107cContainer"
     transform="translate(1665.5,90.5)" />
  <use
     id="ffdad311-9a2f-4a8a-9724-9aa552bfccf0"
     xlink:href="#def3"
     class="style1"
     x="1576"
     y="87"
     style="fill:#ffffcc;stroke:#a6a61d;stroke-width:2"
     width="100%"
     height="100%"
     transform="translate(-13.5,-1.5)" />
  <g
     id="ffdad311-9a2f-4a8a-9724-9aa552bfccf0Container"
     transform="translate(1562.5,85.5)" />
  <g
     id="g587"
     transform="translate(-13.5,-1.5)">
    <path
       style="fill:#a6a61d;stroke:#a6a61d;stroke-width:1px;stroke-linecap:butt;stroke-linejoin:miter;stroke-opacity:1"
       d="m 14.288518,6.459273 h 3.036311 v 8.930324 h 8.037291 v 3.214917 h -8.037291 v 7.947988 H 14.288518 V 18.604514 H 5.2688912 v -3.214917 h 9.0196268 z"
       transform="translate(1580.5,91)"
       id="path581"
       inkscape:connector-curvature="0" />
    <path
       style="fill:#a6a61d;stroke:#a6a61d;stroke-width:1px;stroke-linecap:butt;stroke-linejoin:miter;stroke-opacity:1"
       d="M 7.3228657,10.969087 9.5107951,8.959764 24.201178,22.489205 21.968597,24.587831 Z"
       transform="translate(1580.5,91)"
       id="path583"
       inkscape:connector-curvature="0" />
    <path
       style="fill:#a6a61d;stroke:#a6a61d;stroke-width:1px;stroke-linecap:butt;stroke-linejoin:miter;stroke-opacity:1"
       d="M 21.968597,8.959764 24.201178,10.969087 9.5107951,24.587831 7.3228657,22.489205 Z"
       transform="translate(1580.5,91)"
       id="path585"
       inkscape:connector-curvature="0" />
  </g>
  <polyline
     id="7de42fc3-a6cf-46ee-9a6d-e91fb70703ea"
     style="fill:none;stroke:#000000;stroke-width:1;stroke-opacity:1;marker-end:url(#defMarker)"
     points="0,0 81,0 "
     transform="translate(98.5,105.5)" />
  <text
     x="139"
     y="103.5"
     style="font-size:10.66666698px;font-family:'Segoe UI';fill:#000000"
     id="text590" />
  <polyline
     id="c9ead557-b4ab-4247-97b9-a9b6fe7476bb"
     style="fill:none;stroke:#000000;stroke-width:1;stroke-opacity:1;marker-end:url(#defMarker)"
     points="0,0 102,0 "
     transform="translate(1036.5,105.5)" />
  <text
     x="1087.5"
     y="103.5"
     style="font-size:10.66666698px;font-family:'Segoe UI';fill:#000000"
     id="text593" />
  <polyline
     id="94c74adb-8bbe-4def-920f-fbdc724156c2"
     style="fill:none;stroke:#000000;stroke-width:1;stroke-opacity:1;marker-end:url(#defMarker)"
     points="0,0 77,0 "
     transform="translate(439.5,105.5)" />
  <text
     x="478"
     y="103.5"
     style="font-size:10.66666698px;font-family:'Segoe UI';fill:#000000"
     id="text596" />
  <polyline
     id="05f70f6d-692c-486b-bf6f-e6ae9fb34726"
     style="fill:none;stroke:#000000;stroke-width:1;stroke-opacity:1;marker-end:url(#defMarker)"
     points="0,0 58,0 "
     transform="translate(606.5,105.5)" />
  <text
     x="635.5"
     y="103.5"
     style="font-size:10.66666698px;font-family:'Segoe UI';fill:#000000"
     id="text599" />
  <polyline
     id="ca953389-c02e-41ea-8c07-28cab5caf76d"
     style="fill:none;stroke:#000000;stroke-width:1;stroke-opacity:1;marker-end:url(#defMarker)"
     points="312,77 12,77 6,76.99998 2.686295,77 0,74.31371 0,71 0,0 "
     transform="translate(229.5,143.5)" />
  <text
     x="229.5"
     y="218.5"
     style="font-size:10.66666698px;font-family:'Segoe UI';fill:#000000"
     id="text602" />
  <polyline
     id="bc268ab6-1f05-4149-b20c-955d6bb2a862"
     style="fill:none;stroke:#000000;stroke-width:1;stroke-opacity:1;marker-end:url(#defMarker)"
     points="0,59 0,0 "
     transform="translate(859.5,141.5)" />
  <text
     x="859.5"
     y="169"
     style="font-size:10.66666698px;font-family:'Segoe UI';fill:#000000"
     id="text605" />
  <polyline
     id="1ba3426f-4ac4-443f-8308-eb208162ebbf"
     style="fill:none;stroke:#000000;stroke-width:1;stroke-opacity:1;marker-end:url(#defMarker)"
     points="0,0 119,0 "
     transform="translate(280.5,105.5)" />
  <text
     x="340"
     y="103.5"
     style="font-size:10.66666698px;font-family:'Segoe UI';fill:#000000"
     id="text608" />
  <polyline
     id="cd735a53-c47a-4a80-97da-ca4203a2ba97"
     style="fill:none;stroke:#000000;stroke-width:1;stroke-opacity:1;marker-end:url(#defMarker)"
     points="0,0 80,0 "
     transform="translate(1240.5,105.5)" />
  <text
     x="1280.5"
     y="103.5"
     style="font-size:10.66666698px;font-family:'Segoe UI';fill:#000000"
     id="text611" />
  <polyline
     id="d23bbab8-cbbd-43cc-a1cc-e7bf4bc9776a"
     style="fill:none;stroke:#000000;stroke-width:1;stroke-opacity:1;marker-end:url(#defMarker)"
     points="135,0 0,0 "
     transform="translate(704.5,220.5)" />
  <text
     x="772"
     y="218.5"
     style="font-size:10.66666698px;font-family:'Segoe UI';fill:#000000"
     id="text614" />
  <polyline
     id="4b37e9e5-6c15-461b-9e01-89dea28d0c90"
     style="fill:none;stroke:#000000;stroke-width:1;stroke-opacity:1;marker-end:url(#defMarker)"
     points="190,39 190,12 190,6 190,2.686291 187.3137,0 184,0 184,0 184,3.814697E-06 184,3.814697E-06 12.00002,3.814697E-06 6,0 2.686295,3.814697E-06 0,2.686298 0,6.000004 1.525879E-05,22 "
     transform="translate(229.5,46.5)" />
  <text
     x="324.5"
     y="44.5"
     style="font-size:10.66666698px;font-family:'Segoe UI';fill:#000000"
     id="text617" />
  <polyline
     id="48dfd895-d5d7-46ff-978c-5acc4e1144bd"
     style="fill:none;stroke:#000000;stroke-width:1;stroke-opacity:1;marker-end:url(#defMarker)"
     points="83,0 0,0 "
     transform="translate(581.5,220.5)" />
  <text
     x="623"
     y="218.5"
     style="font-size:10.66666698px;font-family:'Segoe UI';fill:#000000"
     id="text620" />
  <polyline
     id="4c994fa6-ae53-415d-a145-75fada9217b7"
     style="fill:none;stroke:#000000;stroke-width:1;stroke-opacity:1;marker-end:url(#defMarker)"
     points="0,0 0,75 "
     transform="translate(1016.5,125.5)" />
  <text
     x="1016.5"
     y="161"
     style="font-size:10.66666698px;font-family:'Segoe UI';fill:#000000"
     id="text623" />
  <polyline
     id="e63f9277-ab83-4c4e-8db9-07f3ea161599"
     style="fill:none;stroke:#000000;stroke-width:1;stroke-opacity:1;marker-end:url(#defMarker)"
     points="0,0 0,75 "
     transform="translate(684.5,125.5)" />
  <text
     x="684.5"
     y="161"
     style="font-size:10.66666698px;font-family:'Segoe UI';fill:#000000"
     id="text626" />
  <polyline
     id="0ae76e05-3a66-446a-b4ce-c7c400384c57"
     style="fill:none;stroke:#000000;stroke-width:1;stroke-opacity:1;marker-end:url(#defMarker)"
     points="0,65 0,0 "
     transform="translate(561.5,135.5)" />
  <text
     x="561.5"
     y="166"
     style="font-size:10.66666698px;font-family:'Segoe UI';fill:#000000"
     id="text629" />
  <polyline
     id="4fe85e51-c68f-422b-b15e-d4d59b18a390"
     style="fill:none;stroke:#000000;stroke-width:1;stroke-opacity:1;marker-end:url(#defMarker)"
     points="0,0 92,0 "
     transform="translate(904.5,105.5)" />
  <text
     x="950.5"
     y="103.5"
     style="font-size:10.66666698px;font-family:'Segoe UI';fill:#000000"
     id="text632" />
  <polyline
     id="8f79c5dc-d33f-43b6-8426-55f3e8ac8bc0"
     style="fill:none;stroke:#000000;stroke-width:1;stroke-opacity:1;marker-end:url(#defMarker)"
     points="0,0 110,0 "
     transform="translate(704.5,105.5)" />
  <text
     x="759.5"
     y="103.5"
     style="font-size:10.66666698px;font-family:'Segoe UI';fill:#000000"
     id="text635" />
  <polyline
     id="e4fa7103-82d8-4117-b5d2-a6c35e0f8a7a"
     style="fill:none;stroke:#000000;stroke-width:1;stroke-opacity:1;marker-end:url(#defMarker)"
     points="117,0 0,0 "
     transform="translate(879.5,220.5)" />
  <text
     x="938"
     y="218.5"
     style="font-size:10.66666698px;font-family:'Segoe UI';fill:#000000"
     id="text638" />
  <polyline
     id="32299feb-0d81-4087-871d-c6b9ebd60540"
     style="fill:none;stroke:#000000;stroke-width:1;stroke-opacity:1;marker-end:url(#defMarker)"
     points="0,0 0,75 "
     transform="translate(1340.5,125.5)" />
  <text
     x="1340.5"
     y="161"
     style="font-size:10.66666698px;font-family:'Segoe UI';fill:#000000"
     id="text641" />
  <polyline
     id="821b1665-5b45-4331-a98a-1efcb1901be9"
     style="fill:none;stroke:#000000;stroke-width:1;stroke-opacity:1;marker-end:url(#defMarker)"
     points="111,0 0,0 "
     transform="translate(1209.5,220.5)" />
  <text
     x="1265"
     y="218.5"
     style="font-size:10.66666698px;font-family:'Segoe UI';fill:#000000"
     id="text644" />
  <polyline
     id="c33030f3-e190-4b11-bc8a-932516b084eb"
     style="fill:none;stroke:#000000;stroke-width:1;stroke-opacity:1;marker-end:url(#defMarker)"
     points="0,59 0,0 "
     transform="translate(1189.5,141.5)" />
  <text
     x="1189.5"
     y="169"
     style="font-size:10.66666698px;font-family:'Segoe UI';fill:#000000"
     id="text647" />
  <polyline
     id="c66f94ee-ca58-421e-91b4-0c3cb1d1a919"
     style="fill:none;stroke:#000000;stroke-width:1;stroke-opacity:1;marker-end:url(#defMarker)"
     points="133,0 0,0 "
     transform="translate(1036.5,220.5)" />
  <text
     x="1103"
     y="218.5"
     style="font-size:10.66666698px;font-family:'Segoe UI';fill:#000000"
     id="text650" />
  <polyline
     id="ab8aa9af-f087-4cf8-8099-56b1dbb20203"
     style="fill:none;stroke:#000000;stroke-width:1;stroke-opacity:1;marker-end:url(#defMarker)"
     points="0,0 57,0 "
     transform="translate(1360.5,105.5)" />
  <text
     x="1389"
     y="103.5"
     style="font-size:10.66666698px;font-family:'Segoe UI';fill:#000000"
     id="text653" />
  <polyline
     id="f95de415-eda1-4447-bbae-c2173ee50f58"
     style="fill:none;stroke:#000000;stroke-width:1;stroke-opacity:1;marker-end:url(#defMarker)"
     points="0,0 52,0 "
     transform="translate(1510.5,105.5)" />
  <text
     x="1536.5"
     y="103.5"
     style="font-size:10.66666698px;font-family:'Segoe UI';fill:#000000"
     id="text656" />
  <polyline
     id="4b38a2f8-2f3c-486e-b40f-cbd8257fcc7e"
     style="fill:none;stroke:#000000;stroke-width:1;stroke-opacity:1;marker-end:url(#defMarker)"
     points="0,0 63,0 "
     transform="translate(1602.5,105.5)" />
  <text
     x="1634"
     y="103.5"
     style="font-size:10.66666698px;font-family:'Segoe UI';fill:#000000"
     id="text659" />
  <polyline
     id="6d6e9783-e6d2-448a-b779-a16e8123ae8d"
     style="fill:none;stroke:#000000;stroke-width:1;stroke-opacity:1;marker-end:url(#defMarker)"
     points="222,0 222,83 221.9999,88.99998 221.9999,92.31371 219.3136,94.99998 216,94.99998 0,95 "
     transform="translate(1360.5,125.5)" />
  <text
     x="1582.5"
     y="218.5"
     style="font-size:10.66666698px;font-family:'Segoe UI';fill:#000000"
     id="text662" />
</svg>
