<?xml version="1.0" encoding="UTF-8" standalone="no"?>
<svg
   xmlns:dc="http://purl.org/dc/elements/1.1/"
   xmlns:cc="http://creativecommons.org/ns#"
   xmlns:rdf="http://www.w3.org/1999/02/22-rdf-syntax-ns#"
   xmlns:svg="http://www.w3.org/2000/svg"
   xmlns="http://www.w3.org/2000/svg"
   xmlns:xlink="http://www.w3.org/1999/xlink"
   xmlns:sodipodi="http://sodipodi.sourceforge.net/DTD/sodipodi-0.dtd"
   xmlns:inkscape="http://www.inkscape.org/namespaces/inkscape"
   width="1195"
   height="351"
   version="1.1"
   id="svg2329"
   sodipodi:docname="E1.svg"
   inkscape:version="0.92.4 (5da689c313, 2019-01-14)">
  <metadata
     id="metadata2333">
    <rdf:RDF>
      <cc:Work
         rdf:about="">
        <dc:format>image/svg+xml</dc:format>
        <dc:type
           rdf:resource="http://purl.org/dc/dcmitype/StillImage" />
        <dc:title></dc:title>
      </cc:Work>
    </rdf:RDF>
  </metadata>
  <sodipodi:namedview
     pagecolor="#ffffff"
     bordercolor="#666666"
     borderopacity="1"
     objecttolerance="10"
     gridtolerance="10"
     guidetolerance="10"
     inkscape:pageopacity="0"
     inkscape:pageshadow="2"
     inkscape:window-width="1680"
     inkscape:window-height="987"
     id="namedview2331"
     showgrid="false"
     fit-margin-top="0"
     fit-margin-left="0"
     fit-margin-right="0"
     fit-margin-bottom="0"
     inkscape:zoom="0.93699885"
     inkscape:cx="592.5"
     inkscape:cy="324"
     inkscape:window-x="-8"
     inkscape:window-y="-8"
     inkscape:window-maximized="1"
     inkscape:current-layer="svg2329" />
  <style
     type="text/css"
     id="style2146"><![CDATA[
	.style1{fill:#ECEFFF;stroke:#03689A;stroke-width:2;}
	.style2{text-rendering:auto;font-family:'Segoe UI';font-size:8pt;fill:#000000;clip-path:url(#def4);}
	.style3{fill:#FFFFCC;stroke:#A6A61D;stroke-width:2;}
	.style4{fill:#EEAAAA;stroke:#990000;stroke-width:3;}
	.style5{text-rendering:auto;font-family:'Segoe UI';font-size:8pt;fill:#000000;clip-path:url(#def10);}
	.style6{text-rendering:auto;font-family:'Segoe UI';font-size:8pt;fill:#000000;clip-path:url(#def13);}
	.style7{fill:#E6FF97;stroke:#62A716;stroke-width:2;}]]></style>
  <defs
     id="defs2193">
    <path
       id="ec982250-e0c3-4353-9577-7cd626d81b79HeaderPath"
       d="m 30,760 h 350 v 50 H 30 Z"
       inkscape:connector-curvature="0"
       style="fill-rule:evenodd" />
    <clipPath
       id="c7cb400b-e050-458c-904f-3886397ec084HeaderClipPath">
      <use
         xlink:href="#ec982250-e0c3-4353-9577-7cd626d81b79HeaderPath"
         id="use2149"
         x="0"
         y="0"
         width="100%"
         height="100%" />
    </clipPath>
    <path
       id="def3"
       d="m 7,0 h 76 v 0 c 3.87,0 7,3.13 7,7 0,0 0,0 0,0 v 0 46 0 c 0,3.87 -3.13,7 -7,7 v 0 H 7 v 0 C 3.13,60 0,56.87 0,53 V 53 7 7 C 0,3.13 3.13,0 7,0 Z"
       inkscape:connector-curvature="0"
       style="fill-rule:evenodd" />
    <clipPath
       id="def4">
      <use
         xlink:href="#def3"
         id="use2153"
         x="0"
         y="0"
         width="100%"
         height="100%" />
    </clipPath>
    <polygon
       id="def5"
       points="20,0 40,20 20,40 0,20 " />
    <clipPath
       id="def6">
      <use
         xlink:href="#def5"
         id="use2157"
         x="0"
         y="0"
         width="100%"
         height="100%" />
    </clipPath>
    <circle
       id="def7"
       cx="15"
       cy="15"
       r="15" />
    <clipPath
       id="def8">
      <use
         xlink:href="#def7"
         id="use2161"
         x="0"
         y="0"
         width="100%"
         height="100%" />
    </clipPath>
    <path
       id="def9"
       d="m 7,0 h 80 v 0 c 3.87,0 7,3.13 7,7 0,0 0,0 0,0 v 0 46 0 c 0,3.87 -3.13,7 -7,7 v 0 H 7 v 0 C 3.13,60 0,56.87 0,53 V 53 7 7 C 0,3.13 3.13,0 7,0 Z"
       inkscape:connector-curvature="0"
       style="fill-rule:evenodd" />
    <clipPath
       id="def10">
      <use
         xlink:href="#def9"
         id="use2165"
         x="0"
         y="0"
         width="100%"
         height="100%" />
    </clipPath>
    <clipPath
       id="def11">
      <use
         xlink:href="#def5"
         id="use2168"
         x="0"
         y="0"
         width="100%"
         height="100%" />
    </clipPath>
    <path
       id="def12"
       d="m 7,0 h 82 v 0 c 3.87,0 7,3.13 7,7 0,0 0,0 0,0 v 0 46 0 c 0,3.87 -3.13,7 -7,7 v 0 H 7 v 0 C 3.13,60 0,56.87 0,53 V 53 7 7 C 0,3.13 3.13,0 7,0 Z"
       inkscape:connector-curvature="0"
       style="fill-rule:evenodd" />
    <clipPath
       id="def13">
      <use
         xlink:href="#def12"
         id="use2172"
         x="0"
         y="0"
         width="100%"
         height="100%" />
    </clipPath>
    <clipPath
       id="def14">
      <use
         xlink:href="#def5"
         id="use2175"
         x="0"
         y="0"
         width="100%"
         height="100%" />
    </clipPath>
    <clipPath
       id="def15">
      <use
         xlink:href="#def5"
         id="use2178"
         x="0"
         y="0"
         width="100%"
         height="100%" />
    </clipPath>
    <clipPath
       id="def16">
      <use
         xlink:href="#def5"
         id="use2181"
         x="0"
         y="0"
         width="100%"
         height="100%" />
    </clipPath>
    <clipPath
       id="def17">
      <use
         xlink:href="#def7"
         id="use2184"
         x="0"
         y="0"
         width="100%"
         height="100%" />
    </clipPath>
    <marker
       id="defMarkerShadow"
       viewbox="0 0 10 8"
       refX="10"
       refY="4"
       markerUnits="strokeWidth"
       markerWidth="10"
       markerHeight="8"
       orient="auto"
       style="fill:#000000;fill-opacity:0.1">
      <path
         d="M 9,4 1,9 3,4 1,-1 Z"
         id="path2187"
         inkscape:connector-curvature="0"
         style="fill-rule:evenodd" />
    </marker>
    <marker
       id="defMarker"
       viewbox="0 0 10 8"
       refX="10"
       refY="4"
       markerUnits="strokeWidth"
       markerWidth="10"
       markerHeight="8"
       orient="auto"
       style="fill:#000000;fill-opacity:1">
      <path
         d="M 9,4 1,9 3,4 1,-1 Z"
         id="path2190"
         inkscape:connector-curvature="0"
         style="fill-rule:evenodd" />
    </marker>
  </defs>
  <g
     id="g2203"
     transform="translate(-29.5,-409.5)">
    <rect
       x="30"
       y="410"
       width="1194"
       height="350"
       rx="0"
       ry="0"
       style="fill:#ffffff;stroke:#000000;stroke-width:1px;stroke-linecap:butt;stroke-linejoin:miter;stroke-opacity:1"
       id="rect2195" />
    <line
       x1="80"
       y1="410"
       x2="80"
       y2="760"
       style="stroke:#000000;stroke-width:1px;stroke-linecap:butt;stroke-linejoin:miter;stroke-opacity:1"
       id="line2197" />
    <text
       style="font-weight:bold;font-size:10.66666698px;font-family:'Segoe UI';fill:#000000"
       transform="rotate(-90,30,760)"
       clip-path="url(#c7cb400b-e050-458c-904f-3886397ec084HeaderClipPath)"
       id="text2201">
      <tspan
         x="96.818604"
         y="789"
         id="tspan2199">E1 - Apply Instruments to Identify Profiles</tspan>
    </text>
  </g>
  <use
     id="aaec0237-069c-4e87-b5a9-1196969483c7"
     xlink:href="#def3"
     class="style1"
     x="582"
     y="553"
     style="fill:#ecefff;stroke:#03689a;stroke-width:2"
     width="100%"
     height="100%"
     transform="translate(-29.5,-409.5)" />
  <g
     id="aaec0237-069c-4e87-b5a9-1196969483c7Container"
     transform="translate(552.5,143.5)">
    <text
       id="aaec0237-069c-4e87-b5a9-1196969483c7Text"
       class="style2"
       clip-path="url(#def4)"
       style="font-size:10.66666698px;font-family:'Segoe UI';fill:#000000;text-rendering:auto">
      <tspan
         x="16"
         y="18"
         id="tspan2206">E1b - Apply</tspan>
      <tspan
         x="28"
         y="32"
         id="tspan2208">Profile</tspan>
      <tspan
         x="12"
         y="46"
         id="tspan2210">Questionnaire</tspan>
    </text>
  </g>
  <use
     id="cb621f81-a790-4d24-a621-9be273ed064e"
     xlink:href="#def5"
     class="style3"
     x="441"
     y="563"
     style="fill:#ffffcc;stroke:#a6a61d;stroke-width:2"
     width="100%"
     height="100%"
     transform="translate(-29.5,-409.5)" />
  <g
     id="cb621f81-a790-4d24-a621-9be273ed064eContainer"
     transform="translate(411.5,153.5)" />
  <g
     id="g2222"
     transform="translate(-29.5,-409.5)">
    <path
       style="fill:#a6a61d;stroke:#a6a61d;stroke-width:1px;stroke-linecap:butt;stroke-linejoin:miter;stroke-opacity:1"
       d="m 14.288518,6.459273 h 3.036311 v 8.930324 h 8.037291 v 3.214917 h -8.037291 v 7.947988 H 14.288518 V 18.604514 H 5.2688912 v -3.214917 h 9.0196268 z"
       transform="translate(445.5,567)"
       id="path2216"
       inkscape:connector-curvature="0" />
    <path
       style="fill:#a6a61d;stroke:#a6a61d;stroke-width:1px;stroke-linecap:butt;stroke-linejoin:miter;stroke-opacity:1"
       d="M 7.3228657,10.969087 9.5107951,8.959764 24.201178,22.489205 21.968597,24.587831 Z"
       transform="translate(445.5,567)"
       id="path2218"
       inkscape:connector-curvature="0" />
    <path
       style="fill:#a6a61d;stroke:#a6a61d;stroke-width:1px;stroke-linecap:butt;stroke-linejoin:miter;stroke-opacity:1"
       d="M 21.968597,8.959764 24.201178,10.969087 9.5107951,24.587831 7.3228657,22.489205 Z"
       transform="translate(445.5,567)"
       id="path2220"
       inkscape:connector-curvature="0" />
  </g>
  <use
     id="aeee23a2-3621-4b3f-a2bd-7e53d1ecd7ba"
     xlink:href="#def7"
     class="style4"
     x="1166"
     y="568"
     style="fill:#eeaaaa;stroke:#990000;stroke-width:3"
     width="100%"
     height="100%"
     transform="translate(-29.5,-409.5)" />
  <g
     id="aeee23a2-3621-4b3f-a2bd-7e53d1ecd7baContainer"
     transform="translate(1136.5,158.5)" />
  <use
     id="b7eab327-0730-4308-8eb2-e7a9bb5422c2"
     xlink:href="#def9"
     class="style1"
     x="252"
     y="553"
     style="fill:#ecefff;stroke:#03689a;stroke-width:2"
     width="100%"
     height="100%"
     transform="translate(-29.5,-409.5)" />
  <g
     id="b7eab327-0730-4308-8eb2-e7a9bb5422c2Container"
     transform="translate(222.5,143.5)">
    <text
       id="b7eab327-0730-4308-8eb2-e7a9bb5422c2Text"
       class="style5"
       clip-path="url(#def10)"
       style="font-size:10.66666698px;font-family:'Segoe UI';fill:#000000;text-rendering:auto">
      <tspan
         x="8"
         y="18"
         id="tspan2227">E1a - Select the</tspan>
      <tspan
         x="9"
         y="32"
         id="tspan2229">Instruments to</tspan>
      <tspan
         x="9"
         y="46"
         id="tspan2231">Identify Profile</tspan>
    </text>
  </g>
  <use
     id="0d4be4f3-6e51-4460-9107-681dcb57bd57"
     xlink:href="#def5"
     class="style3"
     x="731"
     y="684"
     style="fill:#ffffcc;stroke:#a6a61d;stroke-width:2"
     width="100%"
     height="100%"
     transform="translate(-29.5,-409.5)" />
  <g
     id="0d4be4f3-6e51-4460-9107-681dcb57bd57Container"
     transform="translate(701.5,274.5)" />
  <g
     id="g2243"
     transform="translate(-29.5,-409.5)">
    <path
       style="fill:#a6a61d;stroke:#a6a61d;stroke-width:1px;stroke-linecap:butt;stroke-linejoin:miter;stroke-opacity:1"
       d="m 14.288518,6.459273 h 3.036311 v 8.930324 h 8.037291 v 3.214917 h -8.037291 v 7.947988 H 14.288518 V 18.604514 H 5.2688912 v -3.214917 h 9.0196268 z"
       transform="translate(735.5,688)"
       id="path2237"
       inkscape:connector-curvature="0" />
    <path
       style="fill:#a6a61d;stroke:#a6a61d;stroke-width:1px;stroke-linecap:butt;stroke-linejoin:miter;stroke-opacity:1"
       d="M 7.3228657,10.969087 9.5107951,8.959764 24.201178,22.489205 21.968597,24.587831 Z"
       transform="translate(735.5,688)"
       id="path2239"
       inkscape:connector-curvature="0" />
    <path
       style="fill:#a6a61d;stroke:#a6a61d;stroke-width:1px;stroke-linecap:butt;stroke-linejoin:miter;stroke-opacity:1"
       d="M 21.968597,8.959764 24.201178,10.969087 9.5107951,24.587831 7.3228657,22.489205 Z"
       transform="translate(735.5,688)"
       id="path2241"
       inkscape:connector-curvature="0" />
  </g>
  <use
     id="23b6304e-d12a-4c8d-9188-163d634923bb"
     xlink:href="#def12"
     class="style1"
     x="861"
     y="553"
     style="fill:#ecefff;stroke:#03689a;stroke-width:2"
     width="100%"
     height="100%"
     transform="translate(-29.5,-409.5)" />
  <g
     id="23b6304e-d12a-4c8d-9188-163d634923bbContainer"
     transform="translate(831.5,143.5)">
    <text
       id="23b6304e-d12a-4c8d-9188-163d634923bbText"
       class="style6"
       clip-path="url(#def13)"
       style="font-size:10.66666698px;font-family:'Segoe UI';fill:#000000;text-rendering:auto">
      <tspan
         x="0"
         y="9"
         id="tspan2246" />
      <tspan
         x="11"
         y="18"
         id="tspan2248">E1c - Complete</tspan>
      <tspan
         x="15"
         y="32"
         id="tspan2250">Questionnaire</tspan>
      <tspan
         x="9"
         y="46"
         id="tspan2252">Pre- Evaluation</tspan>
    </text>
  </g>
  <use
     id="79bf8f6b-d7b7-43cc-a4da-ce21d087391c"
     xlink:href="#def5"
     class="style3"
     x="1034"
     y="563"
     style="fill:#ffffcc;stroke:#a6a61d;stroke-width:2"
     width="100%"
     height="100%"
     transform="translate(-29.5,-409.5)" />
  <g
     id="79bf8f6b-d7b7-43cc-a4da-ce21d087391cContainer"
     transform="translate(1004.5,153.5)" />
  <g
     id="g2264"
     transform="translate(-29.5,-409.5)">
    <path
       style="fill:#a6a61d;stroke:#a6a61d;stroke-width:1px;stroke-linecap:butt;stroke-linejoin:miter;stroke-opacity:1"
       d="m 14.288518,6.459273 h 3.036311 v 8.930324 h 8.037291 v 3.214917 h -8.037291 v 7.947988 H 14.288518 V 18.604514 H 5.2688912 v -3.214917 h 9.0196268 z"
       transform="translate(1038.5,567)"
       id="path2258"
       inkscape:connector-curvature="0" />
    <path
       style="fill:#a6a61d;stroke:#a6a61d;stroke-width:1px;stroke-linecap:butt;stroke-linejoin:miter;stroke-opacity:1"
       d="M 7.3228657,10.969087 9.5107951,8.959764 24.201178,22.489205 21.968597,24.587831 Z"
       transform="translate(1038.5,567)"
       id="path2260"
       inkscape:connector-curvature="0" />
    <path
       style="fill:#a6a61d;stroke:#a6a61d;stroke-width:1px;stroke-linecap:butt;stroke-linejoin:miter;stroke-opacity:1"
       d="M 21.968597,8.959764 24.201178,10.969087 9.5107951,24.587831 7.3228657,22.489205 Z"
       transform="translate(1038.5,567)"
       id="path2262"
       inkscape:connector-curvature="0" />
  </g>
  <use
     id="5a240fe0-9859-40e3-abb2-ab04fbdf36d3"
     xlink:href="#def5"
     class="style3"
     x="731"
     y="563"
     style="fill:#ffffcc;stroke:#a6a61d;stroke-width:2"
     width="100%"
     height="100%"
     transform="translate(-29.5,-409.5)" />
  <g
     id="5a240fe0-9859-40e3-abb2-ab04fbdf36d3Container"
     transform="translate(701.5,153.5)" />
  <g
     id="g2274"
     transform="translate(-29.5,-409.5)">
    <path
       style="fill:#a6a61d;stroke:#a6a61d;stroke-width:1px;stroke-linecap:butt;stroke-linejoin:miter;stroke-opacity:1"
       d="m 14.288518,6.459273 h 3.036311 v 8.930324 h 8.037291 v 3.214917 h -8.037291 v 7.947988 H 14.288518 V 18.604514 H 5.2688912 v -3.214917 h 9.0196268 z"
       transform="translate(735.5,567)"
       id="path2268"
       inkscape:connector-curvature="0" />
    <path
       style="fill:#a6a61d;stroke:#a6a61d;stroke-width:1px;stroke-linecap:butt;stroke-linejoin:miter;stroke-opacity:1"
       d="M 7.3228657,10.969087 9.5107951,8.959764 24.201178,22.489205 21.968597,24.587831 Z"
       transform="translate(735.5,567)"
       id="path2270"
       inkscape:connector-curvature="0" />
    <path
       style="fill:#a6a61d;stroke:#a6a61d;stroke-width:1px;stroke-linecap:butt;stroke-linejoin:miter;stroke-opacity:1"
       d="M 21.968597,8.959764 24.201178,10.969087 9.5107951,24.587831 7.3228657,22.489205 Z"
       transform="translate(735.5,567)"
       id="path2272"
       inkscape:connector-curvature="0" />
  </g>
  <use
     id="46a8847d-6d67-4cce-a85e-2e206363271e"
     xlink:href="#def5"
     class="style3"
     x="607"
     y="684"
     style="fill:#ffffcc;stroke:#a6a61d;stroke-width:2"
     width="100%"
     height="100%"
     transform="translate(-29.5,-409.5)" />
  <g
     id="46a8847d-6d67-4cce-a85e-2e206363271eContainer"
     transform="translate(577.5,274.5)" />
  <g
     id="g2284"
     transform="translate(-29.5,-409.5)">
    <path
       style="fill:#a6a61d;stroke:#a6a61d;stroke-width:1px;stroke-linecap:butt;stroke-linejoin:miter;stroke-opacity:1"
       d="m 14.288518,6.459273 h 3.036311 v 8.930324 h 8.037291 v 3.214917 h -8.037291 v 7.947988 H 14.288518 V 18.604514 H 5.2688912 v -3.214917 h 9.0196268 z"
       transform="translate(611.5,688)"
       id="path2278"
       inkscape:connector-curvature="0" />
    <path
       style="fill:#a6a61d;stroke:#a6a61d;stroke-width:1px;stroke-linecap:butt;stroke-linejoin:miter;stroke-opacity:1"
       d="M 7.3228657,10.969087 9.5107951,8.959764 24.201178,22.489205 21.968597,24.587831 Z"
       transform="translate(611.5,688)"
       id="path2280"
       inkscape:connector-curvature="0" />
    <path
       style="fill:#a6a61d;stroke:#a6a61d;stroke-width:1px;stroke-linecap:butt;stroke-linejoin:miter;stroke-opacity:1"
       d="M 21.968597,8.959764 24.201178,10.969087 9.5107951,24.587831 7.3228657,22.489205 Z"
       transform="translate(611.5,688)"
       id="path2282"
       inkscape:connector-curvature="0" />
  </g>
  <use
     id="2571f6dc-0128-4c0e-aaca-59b95686ca25"
     xlink:href="#def7"
     class="style7"
     x="93"
     y="568"
     style="fill:#e6ff97;stroke:#62a716;stroke-width:2"
     width="100%"
     height="100%"
     transform="translate(-29.5,-409.5)" />
  <g
     id="2571f6dc-0128-4c0e-aaca-59b95686ca25Container"
     transform="translate(63.5,158.5)" />
  <polyline
     id="acdd1dd2-4c4c-4b66-a494-dc8575bc7a2f"
     style="fill:none;stroke:#000000;stroke-width:1;stroke-opacity:1;marker-end:url(#defMarker)"
     points="84,0 0,0 "
     transform="translate(617.5,294.5)" />
  <text
     x="659.5"
     y="292.5"
     style="font-size:10.66666698px;font-family:'Segoe UI';fill:#000000"
     id="text2289" />
  <polyline
     id="86e320d9-ca3a-49d2-a0db-e1ccd8c96f80"
     style="fill:none;stroke:#000000;stroke-width:1;stroke-opacity:1;marker-end:url(#defMarker)"
     points="0,71 0,0 "
     transform="translate(597.5,203.5)" />
  <text
     x="597.5"
     y="237"
     style="font-size:10.66666698px;font-family:'Segoe UI';fill:#000000"
     id="text2292" />
  <polyline
     id="08a67d94-9060-4d4b-9c52-295a86ca6d3e"
     style="fill:none;stroke:#000000;stroke-width:1;stroke-opacity:1;marker-end:url(#defMarker)"
     points="0,0 77,0 "
     transform="translate(927.5,173.5)" />
  <text
     x="966"
     y="171.5"
     style="font-size:10.66666698px;font-family:'Segoe UI';fill:#000000"
     id="text2295" />
  <polyline
     id="4759f318-936f-4285-8118-33bff53c0515"
     style="fill:none;stroke:#000000;stroke-width:1;stroke-opacity:1;marker-end:url(#defMarker)"
     points="0,0 92,0 "
     transform="translate(1044.5,173.5)" />
  <text
     x="1090.5"
     y="171.5"
     style="font-size:10.66666698px;font-family:'Segoe UI';fill:#000000"
     id="text2298" />
  <polyline
     id="faa1044b-ad80-4b4b-b23c-4a89e80e3f58"
     style="fill:none;stroke:#000000;stroke-width:1;stroke-opacity:1;marker-end:url(#defMarker)"
     points="308,91 12,91 6,90.99994 2.686279,91 0,88.31366 0,85 0,0 "
     transform="translate(269.5,203.5)" />
  <text
     x="269.5"
     y="292.5"
     style="font-size:10.66666698px;font-family:'Segoe UI';fill:#000000"
     id="text2301" />
  <polyline
     id="6b4add42-bf87-47d8-98bf-b9c462825659"
     style="fill:none;stroke:#000000;stroke-width:1;stroke-opacity:1;marker-end:url(#defMarker)"
     points="283,0 283,89 282.9999,94.99994 282.9999,98.31366 280.3136,100.9999 277,100.9999 0,101 "
     transform="translate(741.5,193.5)" />
  <text
     x="1024.5"
     y="292.5"
     style="font-size:10.66666698px;font-family:'Segoe UI';fill:#000000"
     id="text2304" />
  <polyline
     id="90389989-845c-4267-99f4-4a3ae562cb51"
     style="fill:none;stroke:#000000;stroke-width:1;stroke-opacity:1;marker-end:url(#defMarker)"
     points="0,0 90,0 "
     transform="translate(741.5,173.5)" />
  <text
     x="786.5"
     y="171.5"
     style="font-size:10.66666698px;font-family:'Segoe UI';fill:#000000"
     id="text2307" />
  <polyline
     id="28059bce-5241-4c45-b311-fe341be3cf11"
     style="fill:none;stroke:#000000;stroke-width:1;stroke-opacity:1;marker-end:url(#defMarker)"
     points="0,0 129,0 "
     transform="translate(93.5,173.5)" />
  <text
     x="158"
     y="171.5"
     style="font-size:10.66666698px;font-family:'Segoe UI';fill:#000000"
     id="text2310" />
  <polyline
     id="5b16049b-f0a5-43a3-a1df-c4bf1c9b26a7"
     style="fill:none;stroke:#000000;stroke-width:1;stroke-opacity:1;marker-end:url(#defMarker)"
     points="0,0 0,81 "
     transform="translate(721.5,193.5)" />
  <text
     x="721.5"
     y="232"
     style="font-size:10.66666698px;font-family:'Segoe UI';fill:#000000"
     id="text2313" />
  <polyline
     id="82d14732-b4a6-4a07-b01b-05e71d1b1437"
     style="fill:none;stroke:#000000;stroke-width:1;stroke-opacity:1;marker-end:url(#defMarker)"
     points="0,0 59,0 "
     transform="translate(642.5,173.5)" />
  <text
     x="672"
     y="171.5"
     style="font-size:10.66666698px;font-family:'Segoe UI';fill:#000000"
     id="text2316" />
  <polyline
     id="87d4ccd2-ac8d-492b-b75c-983b3e0da229"
     style="fill:none;stroke:#000000;stroke-width:1;stroke-opacity:1;marker-end:url(#defMarker)"
     points="0,0 101,0 "
     transform="translate(451.5,173.5)" />
  <text
     x="502"
     y="171.5"
     style="font-size:10.66666698px;font-family:'Segoe UI';fill:#000000"
     id="text2319" />
  <polyline
     id="49cab39f-40cb-4408-9545-679ae890fb59"
     style="fill:none;stroke:#000000;stroke-width:1;stroke-opacity:1;marker-end:url(#defMarker)"
     points="0,0 95,0 "
     transform="translate(316.5,173.5)" />
  <text
     x="364"
     y="171.5"
     style="font-size:10.66666698px;font-family:'Segoe UI';fill:#000000"
     id="text2322" />
  <polyline
     id="6172df0c-fff9-4e24-8a1f-e1290263e1ce"
     style="fill:none;stroke:#000000;stroke-width:1;stroke-opacity:1;marker-end:url(#defMarker)"
     points="162,46.00006 162,12.00006 162,6 162,2.68634 159.3137,0 156,0 156,0 156,6.103516E-05 156,6.103516E-05 12.00003,6.103516E-05 6,0 2.68631,6.103516E-05 0,2.68634 0,6.000061 3.051758E-05,36.00006 "
     transform="translate(269.5,107.5)" />
  <text
     x="350.5"
     y="105.5"
     style="font-size:10.66666698px;font-family:'Segoe UI';fill:#000000"
     id="text2325" />
</svg>
