<?xml version="1.0" encoding="UTF-8" standalone="no"?>
<svg
   xmlns:dc="http://purl.org/dc/elements/1.1/"
   xmlns:cc="http://creativecommons.org/ns#"
   xmlns:rdf="http://www.w3.org/1999/02/22-rdf-syntax-ns#"
   xmlns:svg="http://www.w3.org/2000/svg"
   xmlns="http://www.w3.org/2000/svg"
   xmlns:xlink="http://www.w3.org/1999/xlink"
   xmlns:sodipodi="http://sodipodi.sourceforge.net/DTD/sodipodi-0.dtd"
   xmlns:inkscape="http://www.inkscape.org/namespaces/inkscape"
   width="1382"
   height="322"
   version="1.1"
   id="svg2717"
   sodipodi:docname="E2.svg"
   inkscape:version="0.92.4 (5da689c313, 2019-01-14)">
  <metadata
     id="metadata2721">
    <rdf:RDF>
      <cc:Work
         rdf:about="">
        <dc:format>image/svg+xml</dc:format>
        <dc:type
           rdf:resource="http://purl.org/dc/dcmitype/StillImage" />
        <dc:title></dc:title>
      </cc:Work>
    </rdf:RDF>
  </metadata>
  <sodipodi:namedview
     pagecolor="#ffffff"
     bordercolor="#666666"
     borderopacity="1"
     objecttolerance="10"
     gridtolerance="10"
     guidetolerance="10"
     inkscape:pageopacity="0"
     inkscape:pageshadow="2"
     inkscape:window-width="1680"
     inkscape:window-height="987"
     id="namedview2719"
     showgrid="false"
     fit-margin-top="0"
     fit-margin-left="0"
     fit-margin-right="0"
     fit-margin-bottom="0"
     inkscape:zoom="1.079264"
     inkscape:cx="695"
     inkscape:cy="137.5"
     inkscape:window-x="-8"
     inkscape:window-y="-8"
     inkscape:window-maximized="1"
     inkscape:current-layer="svg2717" />
  <style
     type="text/css"
     id="style2533"><![CDATA[
	.style1{fill:#FFFFCC;stroke:#A6A61D;stroke-width:2;}
	.style2{fill:#ECEFFF;stroke:#03689A;stroke-width:2;}
	.style3{text-rendering:auto;font-family:'Segoe UI';font-size:8pt;fill:#000000;clip-path:url(#def6);}
	.style4{fill:#E6FF97;stroke:#62A716;stroke-width:2;}
	.style5{text-rendering:auto;font-family:'Segoe UI';font-size:8pt;fill:#000000;clip-path:url(#def10);}
	.style6{text-rendering:auto;font-family:'Segoe UI';font-size:8pt;fill:#000000;clip-path:url(#def13);}
	.style7{fill:#EEAAAA;stroke:#990000;stroke-width:3;}]]></style>
  <defs
     id="defs2579">
    <path
       id="c05c162a-675e-4cb8-b76f-493dbc07704bHeaderPath"
       d="m 12,387 h 321 v 50 H 12 Z"
       inkscape:connector-curvature="0"
       style="fill-rule:evenodd" />
    <clipPath
       id="8809353e-a1aa-45b3-b707-94de67ec83a1HeaderClipPath">
      <use
         xlink:href="#c05c162a-675e-4cb8-b76f-493dbc07704bHeaderPath"
         id="use2536"
         x="0"
         y="0"
         width="100%"
         height="100%" />
    </clipPath>
    <polygon
       id="def3"
       points="20,0 40,20 20,40 0,20 " />
    <clipPath
       id="def4">
      <use
         xlink:href="#def3"
         id="use2540"
         x="0"
         y="0"
         width="100%"
         height="100%" />
    </clipPath>
    <path
       id="def5"
       d="m 7,0 h 76 v 0 c 3.87,0 7,3.13 7,7 0,0 0,0 0,0 v 0 46 0 c 0,3.87 -3.13,7 -7,7 v 0 H 7 v 0 C 3.13,60 0,56.87 0,53 V 53 7 7 C 0,3.13 3.13,0 7,0 Z"
       inkscape:connector-curvature="0"
       style="fill-rule:evenodd" />
    <clipPath
       id="def6">
      <use
         xlink:href="#def5"
         id="use2544"
         x="0"
         y="0"
         width="100%"
         height="100%" />
    </clipPath>
    <circle
       id="def7"
       cx="15"
       cy="15"
       r="15" />
    <clipPath
       id="def8">
      <use
         xlink:href="#def7"
         id="use2548"
         x="0"
         y="0"
         width="100%"
         height="100%" />
    </clipPath>
    <clipPath
       id="def9">
      <use
         xlink:href="#def3"
         id="use2551"
         x="0"
         y="0"
         width="100%"
         height="100%" />
    </clipPath>
    <clipPath
       id="def10">
      <use
         xlink:href="#def5"
         id="use2554"
         x="0"
         y="0"
         width="100%"
         height="100%" />
    </clipPath>
    <clipPath
       id="def11">
      <use
         xlink:href="#def3"
         id="use2557"
         x="0"
         y="0"
         width="100%"
         height="100%" />
    </clipPath>
    <path
       id="def12"
       d="m 7,0 h 82 v 0 c 3.87,0 7,3.13 7,7 0,0 0,0 0,0 v 0 46 0 c 0,3.87 -3.13,7 -7,7 v 0 H 7 v 0 C 3.13,60 0,56.87 0,53 V 53 7 7 C 0,3.13 3.13,0 7,0 Z"
       inkscape:connector-curvature="0"
       style="fill-rule:evenodd" />
    <clipPath
       id="def13">
      <use
         xlink:href="#def12"
         id="use2561"
         x="0"
         y="0"
         width="100%"
         height="100%" />
    </clipPath>
    <clipPath
       id="def14">
      <use
         xlink:href="#def7"
         id="use2564"
         x="0"
         y="0"
         width="100%"
         height="100%" />
    </clipPath>
    <clipPath
       id="def15">
      <use
         xlink:href="#def3"
         id="use2567"
         x="0"
         y="0"
         width="100%"
         height="100%" />
    </clipPath>
    <clipPath
       id="def16">
      <use
         xlink:href="#def3"
         id="use2570"
         x="0"
         y="0"
         width="100%"
         height="100%" />
    </clipPath>
    <marker
       id="defMarkerShadow"
       viewbox="0 0 10 8"
       refX="10"
       refY="4"
       markerUnits="strokeWidth"
       markerWidth="10"
       markerHeight="8"
       orient="auto"
       style="fill:#000000;fill-opacity:0.1">
      <path
         d="M 9,4 1,9 3,4 1,-1 Z"
         id="path2573"
         inkscape:connector-curvature="0"
         style="fill-rule:evenodd" />
    </marker>
    <marker
       id="defMarker"
       viewbox="0 0 10 8"
       refX="10"
       refY="4"
       markerUnits="strokeWidth"
       markerWidth="10"
       markerHeight="8"
       orient="auto"
       style="fill:#000000;fill-opacity:1">
      <path
         d="M 9,4 1,9 3,4 1,-1 Z"
         id="path2576"
         inkscape:connector-curvature="0"
         style="fill-rule:evenodd" />
    </marker>
  </defs>
  <g
     id="g2591"
     transform="translate(-11.5,-65.5)">
    <rect
       x="12"
       y="66"
       width="1381"
       height="321"
       rx="0"
       ry="0"
       style="fill:#ffffff;stroke:#000000;stroke-width:1px;stroke-linecap:butt;stroke-linejoin:miter;stroke-opacity:1"
       id="rect2581" />
    <line
       x1="62"
       y1="66"
       x2="62"
       y2="387"
       style="stroke:#000000;stroke-width:1px;stroke-linecap:butt;stroke-linejoin:miter;stroke-opacity:1"
       id="line2583" />
    <text
       style="font-weight:bold;font-size:10.66666698px;font-family:'Segoe UI';fill:#000000"
       transform="rotate(-90,12,387)"
       clip-path="url(#8809353e-a1aa-45b3-b707-94de67ec83a1HeaderClipPath)"
       id="text2589">
      <tspan
         x="34.188389"
         y="408"
         id="tspan2585">E2 - Introduce the Form and Collect the Signature of</tspan>
      <tspan
         x="150.0946"
         y="421.52081"
         id="tspan2587">Subjects</tspan>
    </text>
  </g>
  <use
     id="ab643057-ae40-42b3-86ae-cc492d75093e"
     xlink:href="#def3"
     class="style1"
     x="553"
     y="197"
     style="fill:#ffffcc;stroke:#a6a61d;stroke-width:2"
     width="100%"
     height="100%"
     transform="translate(-11.5,-65.5)" />
  <g
     id="ab643057-ae40-42b3-86ae-cc492d75093eContainer"
     transform="translate(541.5,131.5)" />
  <g
     id="g2601"
     transform="translate(-11.5,-65.5)">
    <path
       style="fill:#a6a61d;stroke:#a6a61d;stroke-width:1px;stroke-linecap:butt;stroke-linejoin:miter;stroke-opacity:1"
       d="m 14.288518,6.459273 h 3.036311 v 8.930324 h 8.037291 v 3.214917 h -8.037291 v 7.947988 H 14.288518 V 18.604514 H 5.2688912 v -3.214917 h 9.0196268 z"
       transform="translate(557.5,201)"
       id="path2595"
       inkscape:connector-curvature="0" />
    <path
       style="fill:#a6a61d;stroke:#a6a61d;stroke-width:1px;stroke-linecap:butt;stroke-linejoin:miter;stroke-opacity:1"
       d="M 7.3228657,10.969087 9.5107951,8.959764 24.201178,22.489205 21.968597,24.587831 Z"
       transform="translate(557.5,201)"
       id="path2597"
       inkscape:connector-curvature="0" />
    <path
       style="fill:#a6a61d;stroke:#a6a61d;stroke-width:1px;stroke-linecap:butt;stroke-linejoin:miter;stroke-opacity:1"
       d="M 21.968597,8.959764 24.201178,10.969087 9.5107951,24.587831 7.3228657,22.489205 Z"
       transform="translate(557.5,201)"
       id="path2599"
       inkscape:connector-curvature="0" />
  </g>
  <use
     id="c957e6b6-7fee-4d1a-a746-d9379594712a"
     xlink:href="#def5"
     class="style2"
     x="267"
     y="187"
     style="fill:#ecefff;stroke:#03689a;stroke-width:2"
     width="100%"
     height="100%"
     transform="translate(-11.5,-65.5)" />
  <g
     id="c957e6b6-7fee-4d1a-a746-d9379594712aContainer"
     transform="translate(255.5,121.5)">
    <text
       id="c957e6b6-7fee-4d1a-a746-d9379594712aText"
       class="style3"
       clip-path="url(#def6)"
       style="font-size:10.66666698px;font-family:'Segoe UI';fill:#000000;text-rendering:auto">
      <tspan
         x="0"
         y="9"
         id="tspan2604" />
      <tspan
         x="6"
         y="32"
         id="tspan2606">E2a - Introduce</tspan>
      <tspan
         x="10"
         y="46"
         id="tspan2608">Consent Term</tspan>
    </text>
  </g>
  <use
     id="ef42d312-81e7-4100-b986-b569907dc3e2"
     xlink:href="#def7"
     class="style4"
     x="110"
     y="202"
     style="fill:#e6ff97;stroke:#62a716;stroke-width:2"
     width="100%"
     height="100%"
     transform="translate(-11.5,-65.5)" />
  <g
     id="ef42d312-81e7-4100-b986-b569907dc3e2Container"
     transform="translate(98.5,136.5)" />
  <use
     id="0282a278-0341-4cbc-8d7f-cbe55934a8b4"
     xlink:href="#def3"
     class="style1"
     x="719"
     y="318"
     style="fill:#ffffcc;stroke:#a6a61d;stroke-width:2"
     width="100%"
     height="100%"
     transform="translate(-11.5,-65.5)" />
  <g
     id="0282a278-0341-4cbc-8d7f-cbe55934a8b4Container"
     transform="translate(707.5,252.5)" />
  <g
     id="g2622"
     transform="translate(-11.5,-65.5)">
    <path
       style="fill:#a6a61d;stroke:#a6a61d;stroke-width:1px;stroke-linecap:butt;stroke-linejoin:miter;stroke-opacity:1"
       d="m 14.288518,6.459273 h 3.036311 v 8.930324 h 8.037291 v 3.214917 h -8.037291 v 7.947988 H 14.288518 V 18.604514 H 5.2688912 v -3.214917 h 9.0196268 z"
       transform="translate(723.5,322)"
       id="path2616"
       inkscape:connector-curvature="0" />
    <path
       style="fill:#a6a61d;stroke:#a6a61d;stroke-width:1px;stroke-linecap:butt;stroke-linejoin:miter;stroke-opacity:1"
       d="M 7.3228657,10.969087 9.5107951,8.959764 24.201178,22.489205 21.968597,24.587831 Z"
       transform="translate(723.5,322)"
       id="path2618"
       inkscape:connector-curvature="0" />
    <path
       style="fill:#a6a61d;stroke:#a6a61d;stroke-width:1px;stroke-linecap:butt;stroke-linejoin:miter;stroke-opacity:1"
       d="M 21.968597,8.959764 24.201178,10.969087 9.5107951,24.587831 7.3228657,22.489205 Z"
       transform="translate(723.5,322)"
       id="path2620"
       inkscape:connector-curvature="0" />
  </g>
  <use
     id="94beac87-57d9-4b7d-b450-00c4f34ae7b0"
     xlink:href="#def5"
     class="style2"
     x="694"
     y="187"
     style="fill:#ecefff;stroke:#03689a;stroke-width:2"
     width="100%"
     height="100%"
     transform="translate(-11.5,-65.5)" />
  <g
     id="94beac87-57d9-4b7d-b450-00c4f34ae7b0Container"
     transform="translate(682.5,121.5)">
    <text
       id="94beac87-57d9-4b7d-b450-00c4f34ae7b0Text"
       class="style5"
       clip-path="url(#def10)"
       style="font-size:10.66666698px;font-family:'Segoe UI';fill:#000000;text-rendering:auto">
      <tspan
         x="5"
         y="18"
         id="tspan2625">E2b - Introduce</tspan>
      <tspan
         x="17"
         y="32"
         id="tspan2627">Data Acces</tspan>
      <tspan
         x="17"
         y="46"
         id="tspan2629">Agreement</tspan>
    </text>
  </g>
  <use
     id="3685256b-1392-4e72-8e29-ac5f4c1e830d"
     xlink:href="#def3"
     class="style1"
     x="842"
     y="318"
     style="fill:#ffffcc;stroke:#a6a61d;stroke-width:2"
     width="100%"
     height="100%"
     transform="translate(-11.5,-65.5)" />
  <g
     id="3685256b-1392-4e72-8e29-ac5f4c1e830dContainer"
     transform="translate(830.5,252.5)" />
  <g
     id="g2641"
     transform="translate(-11.5,-65.5)">
    <path
       style="fill:#a6a61d;stroke:#a6a61d;stroke-width:1px;stroke-linecap:butt;stroke-linejoin:miter;stroke-opacity:1"
       d="m 14.288518,6.459273 h 3.036311 v 8.930324 h 8.037291 v 3.214917 h -8.037291 v 7.947988 H 14.288518 V 18.604514 H 5.2688912 v -3.214917 h 9.0196268 z"
       transform="translate(846.5,322)"
       id="path2635"
       inkscape:connector-curvature="0" />
    <path
       style="fill:#a6a61d;stroke:#a6a61d;stroke-width:1px;stroke-linecap:butt;stroke-linejoin:miter;stroke-opacity:1"
       d="M 7.3228657,10.969087 9.5107951,8.959764 24.201178,22.489205 21.968597,24.587831 Z"
       transform="translate(846.5,322)"
       id="path2637"
       inkscape:connector-curvature="0" />
    <path
       style="fill:#a6a61d;stroke:#a6a61d;stroke-width:1px;stroke-linecap:butt;stroke-linejoin:miter;stroke-opacity:1"
       d="M 21.968597,8.959764 24.201178,10.969087 9.5107951,24.587831 7.3228657,22.489205 Z"
       transform="translate(846.5,322)"
       id="path2639"
       inkscape:connector-curvature="0" />
  </g>
  <use
     id="44fd2e76-74b8-4d07-b304-12e6aa68f3ae"
     xlink:href="#def12"
     class="style2"
     x="972"
     y="187"
     style="fill:#ecefff;stroke:#03689a;stroke-width:2"
     width="100%"
     height="100%"
     transform="translate(-11.5,-65.5)" />
  <g
     id="44fd2e76-74b8-4d07-b304-12e6aa68f3aeContainer"
     transform="translate(960.5,121.5)">
    <text
       id="44fd2e76-74b8-4d07-b304-12e6aa68f3aeText"
       class="style6"
       clip-path="url(#def13)"
       style="font-size:10.66666698px;font-family:'Segoe UI';fill:#000000;text-rendering:auto">
      <tspan
         x="0"
         y="9"
         id="tspan2644" />
      <tspan
         x="18"
         y="18"
         id="tspan2646">E2c - Collect</tspan>
      <tspan
         x="19"
         y="32"
         id="tspan2648">Signature of</tspan>
      <tspan
         x="29"
         y="46"
         id="tspan2650">Subject</tspan>
    </text>
  </g>
  <use
     id="ebe5a02c-4fb5-4c60-b781-f0ff4f24165c"
     xlink:href="#def7"
     class="style7"
     x="1264"
     y="202"
     style="fill:#eeaaaa;stroke:#990000;stroke-width:3"
     width="100%"
     height="100%"
     transform="translate(-11.5,-65.5)" />
  <g
     id="ebe5a02c-4fb5-4c60-b781-f0ff4f24165cContainer"
     transform="translate(1252.5,136.5)" />
  <use
     id="dfdade85-24d7-4e99-8ef6-3089073be9b7"
     xlink:href="#def3"
     class="style1"
     x="842"
     y="197"
     style="fill:#ffffcc;stroke:#a6a61d;stroke-width:2"
     width="100%"
     height="100%"
     transform="translate(-11.5,-65.5)" />
  <g
     id="dfdade85-24d7-4e99-8ef6-3089073be9b7Container"
     transform="translate(830.5,131.5)" />
  <g
     id="g2664"
     transform="translate(-11.5,-65.5)">
    <path
       style="fill:#a6a61d;stroke:#a6a61d;stroke-width:1px;stroke-linecap:butt;stroke-linejoin:miter;stroke-opacity:1"
       d="m 14.288518,6.459273 h 3.036311 v 8.930324 h 8.037291 v 3.214917 h -8.037291 v 7.947988 H 14.288518 V 18.604514 H 5.2688912 v -3.214917 h 9.0196268 z"
       transform="translate(846.5,201)"
       id="path2658"
       inkscape:connector-curvature="0" />
    <path
       style="fill:#a6a61d;stroke:#a6a61d;stroke-width:1px;stroke-linecap:butt;stroke-linejoin:miter;stroke-opacity:1"
       d="M 7.3228657,10.969087 9.5107951,8.959764 24.201178,22.489205 21.968597,24.587831 Z"
       transform="translate(846.5,201)"
       id="path2660"
       inkscape:connector-curvature="0" />
    <path
       style="fill:#a6a61d;stroke:#a6a61d;stroke-width:1px;stroke-linecap:butt;stroke-linejoin:miter;stroke-opacity:1"
       d="M 21.968597,8.959764 24.201178,10.969087 9.5107951,24.587831 7.3228657,22.489205 Z"
       transform="translate(846.5,201)"
       id="path2662"
       inkscape:connector-curvature="0" />
  </g>
  <use
     id="ddf90c9a-521c-403b-aece-05720f5f2dd1"
     xlink:href="#def3"
     class="style1"
     x="1145"
     y="197"
     style="fill:#ffffcc;stroke:#a6a61d;stroke-width:2"
     width="100%"
     height="100%"
     transform="translate(-11.5,-65.5)" />
  <g
     id="ddf90c9a-521c-403b-aece-05720f5f2dd1Container"
     transform="translate(1133.5,131.5)" />
  <g
     id="g2674"
     transform="translate(-11.5,-65.5)">
    <path
       style="fill:#a6a61d;stroke:#a6a61d;stroke-width:1px;stroke-linecap:butt;stroke-linejoin:miter;stroke-opacity:1"
       d="m 14.288518,6.459273 h 3.036311 v 8.930324 h 8.037291 v 3.214917 h -8.037291 v 7.947988 H 14.288518 V 18.604514 H 5.2688912 v -3.214917 h 9.0196268 z"
       transform="translate(1149.5,201)"
       id="path2668"
       inkscape:connector-curvature="0" />
    <path
       style="fill:#a6a61d;stroke:#a6a61d;stroke-width:1px;stroke-linecap:butt;stroke-linejoin:miter;stroke-opacity:1"
       d="M 7.3228657,10.969087 9.5107951,8.959764 24.201178,22.489205 21.968597,24.587831 Z"
       transform="translate(1149.5,201)"
       id="path2670"
       inkscape:connector-curvature="0" />
    <path
       style="fill:#a6a61d;stroke:#a6a61d;stroke-width:1px;stroke-linecap:butt;stroke-linejoin:miter;stroke-opacity:1"
       d="M 21.968597,8.959764 24.201178,10.969087 9.5107951,24.587831 7.3228657,22.489205 Z"
       transform="translate(1149.5,201)"
       id="path2672"
       inkscape:connector-curvature="0" />
  </g>
  <polyline
     id="fd9577ca-1ce2-420a-946c-29a2ac6a02d1"
     style="fill:none;stroke:#000000;stroke-width:1;stroke-opacity:1;marker-end:url(#defMarker)"
     points="0,0 196,0 "
     transform="translate(345.5,151.5)" />
  <text
     x="443.5"
     y="149.5"
     style="font-size:10.66666698px;font-family:'Segoe UI';fill:#000000"
     id="text2677" />
  <polyline
     id="6e7b846b-0a0f-4e5d-b78a-e38fde228401"
     style="fill:none;stroke:#000000;stroke-width:1;stroke-opacity:1;marker-end:url(#defMarker)"
     points="0,0 101,0 "
     transform="translate(581.5,151.5)" />
  <text
     x="632"
     y="149.5"
     style="font-size:10.66666698px;font-family:'Segoe UI';fill:#000000"
     id="text2680" />
  <polyline
     id="42160f7e-ac98-413d-8c90-997b6868077e"
     style="fill:none;stroke:#000000;stroke-width:1;stroke-opacity:1;marker-end:url(#defMarker)"
     points="0,0 127,0 "
     transform="translate(128.5,151.5)" />
  <text
     x="192"
     y="149.5"
     style="font-size:10.66666698px;font-family:'Segoe UI';fill:#000000"
     id="text2683" />
  <polyline
     id="42ab88b8-a87a-4230-be05-a150ca634e77"
     style="fill:none;stroke:#000000;stroke-width:1;stroke-opacity:1;marker-end:url(#defMarker)"
     points="261,66.00002 261,12.00002 261,6 261,2.686295 258.3137,0 255,0 255,0 255,1.525879E-05 255,1.525879E-05 12.00003,1.525879E-05 6,0 2.68631,1.525879E-05 0,2.68631 0,6.000015 3.051758E-05,56.00002 "
     transform="translate(300.5,65.5)" />
  <text
     x="431"
     y="63.5"
     style="font-size:10.66666698px;font-family:'Segoe UI';fill:#000000"
     id="text2686" />
  <polyline
     id="ef7ed53c-6221-4408-b373-d7a97d6a6663"
     style="fill:none;stroke:#000000;stroke-width:1;stroke-opacity:1;marker-end:url(#defMarker)"
     points="407,91 12,91 6,90.99997 2.686279,91 0,88.31369 0,85 0,0 "
     transform="translate(300.5,181.5)" />
  <text
     x="300.5"
     y="270.5"
     style="font-size:10.66666698px;font-family:'Segoe UI';fill:#000000"
     id="text2689" />
  <polyline
     id="03edbce5-d015-4827-a007-005d3b9b39e4"
     style="fill:none;stroke:#000000;stroke-width:1;stroke-opacity:1;marker-end:url(#defMarker)"
     points="0,71 0,0 "
     transform="translate(727.5,181.5)" />
  <text
     x="727.5"
     y="215"
     style="font-size:10.66666698px;font-family:'Segoe UI';fill:#000000"
     id="text2692" />
  <polyline
     id="70c87035-6c15-4f8d-9966-adc181794ecf"
     style="fill:none;stroke:#000000;stroke-width:1;stroke-opacity:1;marker-end:url(#defMarker)"
     points="0,0 77,0 "
     transform="translate(1056.5,151.5)" />
  <text
     x="1095"
     y="149.5"
     style="font-size:10.66666698px;font-family:'Segoe UI';fill:#000000"
     id="text2695" />
  <polyline
     id="7047c5ac-0b00-48ea-b002-bc1693c56e4f"
     style="fill:none;stroke:#000000;stroke-width:1;stroke-opacity:1;marker-end:url(#defMarker)"
     points="0,0 0,81 "
     transform="translate(850.5,171.5)" />
  <text
     x="850.5"
     y="210"
     style="font-size:10.66666698px;font-family:'Segoe UI';fill:#000000"
     id="text2698" />
  <polyline
     id="f04dcb99-2d98-4e96-831a-2989336a9df9"
     style="fill:none;stroke:#000000;stroke-width:1;stroke-opacity:1;marker-end:url(#defMarker)"
     points="83,0 0,0 "
     transform="translate(747.5,272.5)" />
  <text
     x="789"
     y="270.5"
     style="font-size:10.66666698px;font-family:'Segoe UI';fill:#000000"
     id="text2701" />
  <polyline
     id="5d379197-3f05-4d05-9ef7-c1935e0b51a5"
     style="fill:none;stroke:#000000;stroke-width:1;stroke-opacity:1;marker-end:url(#defMarker)"
     points="283,0 283,89 282.9999,94.99997 282.9999,98.31369 280.3136,101 277,101 0,101 "
     transform="translate(870.5,171.5)" />
  <text
     x="1153.5"
     y="270.5"
     style="font-size:10.66666698px;font-family:'Segoe UI';fill:#000000"
     id="text2704" />
  <polyline
     id="bfc2d810-bb5b-4947-9759-6a387591085e"
     style="fill:none;stroke:#000000;stroke-width:1;stroke-opacity:1;marker-end:url(#defMarker)"
     points="0,0 79,0 "
     transform="translate(1173.5,151.5)" />
  <text
     x="1213"
     y="149.5"
     style="font-size:10.66666698px;font-family:'Segoe UI';fill:#000000"
     id="text2707" />
  <polyline
     id="f05cda91-163f-4c01-9f1e-cc344e701d85"
     style="fill:none;stroke:#000000;stroke-width:1;stroke-opacity:1;marker-end:url(#defMarker)"
     points="0,0 90,0 "
     transform="translate(870.5,151.5)" />
  <text
     x="915.5"
     y="149.5"
     style="font-size:10.66666698px;font-family:'Segoe UI';fill:#000000"
     id="text2710" />
  <polyline
     id="d3ced637-afda-4c1e-b06e-914036dc59ea"
     style="fill:none;stroke:#000000;stroke-width:1;stroke-opacity:1;marker-end:url(#defMarker)"
     points="0,0 58,0 "
     transform="translate(772.5,151.5)" />
  <text
     x="801.5"
     y="149.5"
     style="font-size:10.66666698px;font-family:'Segoe UI';fill:#000000"
     id="text2713" />
</svg>
