<?xml version="1.0" encoding="UTF-8" standalone="no"?>
<svg
   xmlns:dc="http://purl.org/dc/elements/1.1/"
   xmlns:cc="http://creativecommons.org/ns#"
   xmlns:rdf="http://www.w3.org/1999/02/22-rdf-syntax-ns#"
   xmlns:svg="http://www.w3.org/2000/svg"
   xmlns="http://www.w3.org/2000/svg"
   xmlns:xlink="http://www.w3.org/1999/xlink"
   xmlns:sodipodi="http://sodipodi.sourceforge.net/DTD/sodipodi-0.dtd"
   xmlns:inkscape="http://www.inkscape.org/namespaces/inkscape"
   width="1536"
   height="351"
   version="1.1"
   id="svg1122"
   sodipodi:docname="E9.svg"
   inkscape:version="0.92.4 (5da689c313, 2019-01-14)">
  <metadata
     id="metadata1126">
    <rdf:RDF>
      <cc:Work
         rdf:about="">
        <dc:format>image/svg+xml</dc:format>
        <dc:type
           rdf:resource="http://purl.org/dc/dcmitype/StillImage" />
        <dc:title></dc:title>
      </cc:Work>
    </rdf:RDF>
  </metadata>
  <sodipodi:namedview
     pagecolor="#ffffff"
     bordercolor="#666666"
     borderopacity="1"
     objecttolerance="10"
     gridtolerance="10"
     guidetolerance="10"
     inkscape:pageopacity="0"
     inkscape:pageshadow="2"
     inkscape:window-width="1680"
     inkscape:window-height="987"
     id="namedview1124"
     showgrid="false"
     fit-margin-top="0"
     fit-margin-left="0"
     fit-margin-right="0"
     fit-margin-bottom="0"
     inkscape:zoom="0.96214511"
     inkscape:cx="763"
     inkscape:cy="134"
     inkscape:window-x="-8"
     inkscape:window-y="-8"
     inkscape:window-maximized="1"
     inkscape:current-layer="svg1122" />
  <style
     type="text/css"
     id="style865"><![CDATA[
	.style1{fill:#FFFFCC;stroke:#A6A61D;stroke-width:2;}
	.style2{fill:#ECEFFF;stroke:#03689A;stroke-width:2;}
	.style3{text-rendering:auto;font-family:'Segoe UI';font-size:8pt;fill:#000000;clip-path:url(#def7);}
	.style4{fill:#E6FF97;stroke:#62A716;stroke-width:2;}
	.style5{text-rendering:auto;font-family:'Segoe UI';font-size:8pt;fill:#000000;clip-path:url(#def14);}
	.style6{text-rendering:auto;font-family:'Segoe UI';font-size:8pt;fill:#000000;clip-path:url(#def18);}
	.style7{fill:#EEAAAA;stroke:#990000;stroke-width:3;}
	.style8{text-rendering:auto;font-family:'Segoe UI';font-size:8pt;fill:#000000;clip-path:url(#def22);}]]></style>
  <defs
     id="defs925">
    <path
       id="4aa734e8-ae34-43e7-bbb1-c2e98d4f850aHeaderPath"
       d="m 30,380 h 350 v 50 H 30 Z"
       inkscape:connector-curvature="0"
       style="fill-rule:evenodd" />
    <clipPath
       id="63ef620f-c2e8-49eb-b81e-9f5e4010cefcHeaderClipPath">
      <use
         xlink:href="#4aa734e8-ae34-43e7-bbb1-c2e98d4f850aHeaderPath"
         id="use868"
         x="0"
         y="0"
         width="100%"
         height="100%" />
    </clipPath>
    <polygon
       id="def3"
       points="20,0 40,20 20,40 0,20 " />
    <clipPath
       id="def4">
      <use
         xlink:href="#def3"
         id="use872"
         x="0"
         y="0"
         width="100%"
         height="100%" />
    </clipPath>
    <clipPath
       id="def5">
      <use
         xlink:href="#def3"
         id="use875"
         x="0"
         y="0"
         width="100%"
         height="100%" />
    </clipPath>
    <path
       id="def6"
       d="m 7,0 h 93 v 0 c 3.87,0 7,3.13 7,7 0,0 0,0 0,0 v 0 58 0 c 0,3.87 -3.13,7 -7,7 v 0 H 7 v 0 C 3.13,72 0,68.87 0,65 V 7 7 C 0,3.13 3.13,0 7,0 Z"
       inkscape:connector-curvature="0"
       style="fill-rule:evenodd" />
    <clipPath
       id="def7">
      <use
         xlink:href="#def6"
         id="use879"
         x="0"
         y="0"
         width="100%"
         height="100%" />
    </clipPath>
    <clipPath
       id="def8">
      <use
         xlink:href="#def3"
         id="use882"
         x="0"
         y="0"
         width="100%"
         height="100%" />
    </clipPath>
    <clipPath
       id="def9">
      <use
         xlink:href="#def3"
         id="use885"
         x="0"
         y="0"
         width="100%"
         height="100%" />
    </clipPath>
    <circle
       id="def10"
       cx="15"
       cy="15"
       r="15" />
    <clipPath
       id="def11">
      <use
         xlink:href="#def10"
         id="use889"
         x="0"
         y="0"
         width="100%"
         height="100%" />
    </clipPath>
    <clipPath
       id="def12">
      <use
         xlink:href="#def3"
         id="use892"
         x="0"
         y="0"
         width="100%"
         height="100%" />
    </clipPath>
    <path
       id="def13"
       d="m 7,0 h 76 v 0 c 3.87,0 7,3.13 7,7 0,0 0,0 0,0 v 0 46 0 c 0,3.87 -3.13,7 -7,7 v 0 H 7 v 0 C 3.13,60 0,56.87 0,53 V 53 7 7 C 0,3.13 3.13,0 7,0 Z"
       inkscape:connector-curvature="0"
       style="fill-rule:evenodd" />
    <clipPath
       id="def14">
      <use
         xlink:href="#def13"
         id="use896"
         x="0"
         y="0"
         width="100%"
         height="100%" />
    </clipPath>
    <clipPath
       id="def15">
      <use
         xlink:href="#def3"
         id="use899"
         x="0"
         y="0"
         width="100%"
         height="100%" />
    </clipPath>
    <clipPath
       id="def16">
      <use
         xlink:href="#def3"
         id="use902"
         x="0"
         y="0"
         width="100%"
         height="100%" />
    </clipPath>
    <path
       id="def17"
       d="m 7,0 h 79 v 0 c 3.87,0 7,3.13 7,7 0,0 0,0 0,0 v 0 60 0 c 0,3.87 -3.13,7 -7,7 v 0 H 7 v 0 C 3.13,74 0,70.87 0,67 V 7 7 C 0,3.13 3.13,0 7,0 Z"
       inkscape:connector-curvature="0"
       style="fill-rule:evenodd" />
    <clipPath
       id="def18">
      <use
         xlink:href="#def17"
         id="use906"
         x="0"
         y="0"
         width="100%"
         height="100%" />
    </clipPath>
    <clipPath
       id="def19">
      <use
         xlink:href="#def10"
         id="use909"
         x="0"
         y="0"
         width="100%"
         height="100%" />
    </clipPath>
    <clipPath
       id="def20">
      <use
         xlink:href="#def3"
         id="use912"
         x="0"
         y="0"
         width="100%"
         height="100%" />
    </clipPath>
    <path
       id="def21"
       d="m 7,0 h 76 v 0 c 3.87,0 7,3.13 7,7 0,0 0,0 0,0 v 0 50 0 c 0,3.87 -3.13,7 -7,7 v 0 H 7 v 0 C 3.13,64 0,60.87 0,57 V 57 7 7 C 0,3.13 3.13,0 7,0 Z"
       inkscape:connector-curvature="0"
       style="fill-rule:evenodd" />
    <clipPath
       id="def22">
      <use
         xlink:href="#def21"
         id="use916"
         x="0"
         y="0"
         width="100%"
         height="100%" />
    </clipPath>
    <marker
       id="defMarkerShadow"
       viewbox="0 0 10 8"
       refX="10"
       refY="4"
       markerUnits="strokeWidth"
       markerWidth="10"
       markerHeight="8"
       orient="auto"
       style="fill:#000000;fill-opacity:0.1">
      <path
         d="M 9,4 1,9 3,4 1,-1 Z"
         id="path919"
         inkscape:connector-curvature="0"
         style="fill-rule:evenodd" />
    </marker>
    <marker
       id="defMarker"
       viewbox="0 0 10 8"
       refX="10"
       refY="4"
       markerUnits="strokeWidth"
       markerWidth="10"
       markerHeight="8"
       orient="auto"
       style="fill:#000000;fill-opacity:1">
      <path
         d="M 9,4 1,9 3,4 1,-1 Z"
         id="path922"
         inkscape:connector-curvature="0"
         style="fill-rule:evenodd" />
    </marker>
  </defs>
  <g
     id="g935"
     transform="translate(-29.5,-29.5)">
    <rect
       x="30"
       y="30"
       width="1535"
       height="350"
       rx="0"
       ry="0"
       style="fill:#ffffff;stroke:#000000;stroke-width:1px;stroke-linecap:butt;stroke-linejoin:miter;stroke-opacity:1"
       id="rect927" />
    <line
       x1="80"
       y1="30"
       x2="80"
       y2="380"
       style="stroke:#000000;stroke-width:1px;stroke-linecap:butt;stroke-linejoin:miter;stroke-opacity:1"
       id="line929" />
    <text
       style="font-weight:bold;font-size:10.66666698px;font-family:'Segoe UI';fill:#000000"
       transform="rotate(-90,30,380)"
       clip-path="url(#63ef620f-c2e8-49eb-b81e-9f5e4010cefcHeaderClipPath)"
       id="text933">
      <tspan
         x="83.271721"
         y="409"
         id="tspan931">E9 - Execution of Tasks and Evaluation Conduct</tspan>
    </text>
  </g>
  <use
     id="e7521cba-8250-4359-8d37-43f815ceaa13"
     xlink:href="#def3"
     class="style1"
     x="730"
     y="161"
     style="fill:#ffffcc;stroke:#a6a61d;stroke-width:2"
     width="100%"
     height="100%"
     transform="translate(-29.5,-29.5)" />
  <g
     id="e7521cba-8250-4359-8d37-43f815ceaa13Container"
     transform="translate(700.5,131.5)" />
  <g
     id="g945"
     transform="translate(-29.5,-29.5)">
    <path
       style="fill:#a6a61d;stroke:#a6a61d;stroke-width:1px;stroke-linecap:butt;stroke-linejoin:miter;stroke-opacity:1"
       d="m 14.288518,6.459273 h 3.036311 v 8.930324 h 8.037291 v 3.214917 h -8.037291 v 7.947988 H 14.288518 V 18.604514 H 5.2688912 v -3.214917 h 9.0196268 z"
       transform="translate(734.5,165)"
       id="path939"
       inkscape:connector-curvature="0" />
    <path
       style="fill:#a6a61d;stroke:#a6a61d;stroke-width:1px;stroke-linecap:butt;stroke-linejoin:miter;stroke-opacity:1"
       d="M 7.3228657,10.969087 9.5107951,8.959764 24.201178,22.489205 21.968597,24.587831 Z"
       transform="translate(734.5,165)"
       id="path941"
       inkscape:connector-curvature="0" />
    <path
       style="fill:#a6a61d;stroke:#a6a61d;stroke-width:1px;stroke-linecap:butt;stroke-linejoin:miter;stroke-opacity:1"
       d="M 21.968597,8.959764 24.201178,10.969087 9.5107951,24.587831 7.3228657,22.489205 Z"
       transform="translate(734.5,165)"
       id="path943"
       inkscape:connector-curvature="0" />
  </g>
  <use
     id="66e2d4e9-e347-430e-aae9-6520efc5e7b2"
     xlink:href="#def3"
     class="style1"
     x="730"
     y="276"
     style="fill:#ffffcc;stroke:#a6a61d;stroke-width:2"
     width="100%"
     height="100%"
     transform="translate(-29.5,-29.5)" />
  <g
     id="66e2d4e9-e347-430e-aae9-6520efc5e7b2Container"
     transform="translate(700.5,246.5)" />
  <g
     id="g955"
     transform="translate(-29.5,-29.5)">
    <path
       style="fill:#a6a61d;stroke:#a6a61d;stroke-width:1px;stroke-linecap:butt;stroke-linejoin:miter;stroke-opacity:1"
       d="m 14.288518,6.459273 h 3.036311 v 8.930324 h 8.037291 v 3.214917 h -8.037291 v 7.947988 H 14.288518 V 18.604514 H 5.2688912 v -3.214917 h 9.0196268 z"
       transform="translate(734.5,280)"
       id="path949"
       inkscape:connector-curvature="0" />
    <path
       style="fill:#a6a61d;stroke:#a6a61d;stroke-width:1px;stroke-linecap:butt;stroke-linejoin:miter;stroke-opacity:1"
       d="M 7.3228657,10.969087 9.5107951,8.959764 24.201178,22.489205 21.968597,24.587831 Z"
       transform="translate(734.5,280)"
       id="path951"
       inkscape:connector-curvature="0" />
    <path
       style="fill:#a6a61d;stroke:#a6a61d;stroke-width:1px;stroke-linecap:butt;stroke-linejoin:miter;stroke-opacity:1"
       d="M 21.968597,8.959764 24.201178,10.969087 9.5107951,24.587831 7.3228657,22.489205 Z"
       transform="translate(734.5,280)"
       id="path953"
       inkscape:connector-curvature="0" />
  </g>
  <use
     id="ea7fce9d-fbc4-46db-854f-b2ffb6634f9b"
     xlink:href="#def6"
     class="style2"
     x="880"
     y="145"
     style="fill:#ecefff;stroke:#03689a;stroke-width:2"
     width="100%"
     height="100%"
     transform="translate(-29.5,-29.5)" />
  <g
     id="ea7fce9d-fbc4-46db-854f-b2ffb6634f9bContainer"
     transform="translate(850.5,115.5)">
    <text
       id="ea7fce9d-fbc4-46db-854f-b2ffb6634f9bText"
       class="style3"
       clip-path="url(#def7)"
       style="font-size:10.66666698px;font-family:'Segoe UI';fill:#000000;text-rendering:auto">
      <tspan
         x="0"
         y="9"
         id="tspan958" />
      <tspan
         x="15"
         y="31"
         id="tspan960">E9c - Complete</tspan>
      <tspan
         x="9"
         y="45"
         id="tspan962">Questionnaire Post</tspan>
      <tspan
         x="25"
         y="59"
         id="tspan964">-Evaluation</tspan>
    </text>
  </g>
  <use
     id="5c4f0e06-dbaa-461c-af43-c2b6bb72fe8d"
     xlink:href="#def3"
     class="style1"
     x="465"
     y="161"
     style="fill:#ffffcc;stroke:#a6a61d;stroke-width:2"
     width="100%"
     height="100%"
     transform="translate(-29.5,-29.5)" />
  <g
     id="5c4f0e06-dbaa-461c-af43-c2b6bb72fe8dContainer"
     transform="translate(435.5,131.5)" />
  <g
     id="g976"
     transform="translate(-29.5,-29.5)">
    <path
       style="fill:#a6a61d;stroke:#a6a61d;stroke-width:1px;stroke-linecap:butt;stroke-linejoin:miter;stroke-opacity:1"
       d="m 14.288518,6.459273 h 3.036311 v 8.930324 h 8.037291 v 3.214917 h -8.037291 v 7.947988 H 14.288518 V 18.604514 H 5.2688912 v -3.214917 h 9.0196268 z"
       transform="translate(469.5,165)"
       id="path970"
       inkscape:connector-curvature="0" />
    <path
       style="fill:#a6a61d;stroke:#a6a61d;stroke-width:1px;stroke-linecap:butt;stroke-linejoin:miter;stroke-opacity:1"
       d="M 7.3228657,10.969087 9.5107951,8.959764 24.201178,22.489205 21.968597,24.587831 Z"
       transform="translate(469.5,165)"
       id="path972"
       inkscape:connector-curvature="0" />
    <path
       style="fill:#a6a61d;stroke:#a6a61d;stroke-width:1px;stroke-linecap:butt;stroke-linejoin:miter;stroke-opacity:1"
       d="M 21.968597,8.959764 24.201178,10.969087 9.5107951,24.587831 7.3228657,22.489205 Z"
       transform="translate(469.5,165)"
       id="path974"
       inkscape:connector-curvature="0" />
  </g>
  <use
     id="e0e67a28-ecb4-4fb1-bd37-6e3be7e745e0"
     xlink:href="#def3"
     class="style1"
     x="607"
     y="276"
     style="fill:#ffffcc;stroke:#a6a61d;stroke-width:2"
     width="100%"
     height="100%"
     transform="translate(-29.5,-29.5)" />
  <g
     id="e0e67a28-ecb4-4fb1-bd37-6e3be7e745e0Container"
     transform="translate(577.5,246.5)" />
  <g
     id="g986"
     transform="translate(-29.5,-29.5)">
    <path
       style="fill:#a6a61d;stroke:#a6a61d;stroke-width:1px;stroke-linecap:butt;stroke-linejoin:miter;stroke-opacity:1"
       d="m 14.288518,6.459273 h 3.036311 v 8.930324 h 8.037291 v 3.214917 h -8.037291 v 7.947988 H 14.288518 V 18.604514 H 5.2688912 v -3.214917 h 9.0196268 z"
       transform="translate(611.5,280)"
       id="path980"
       inkscape:connector-curvature="0" />
    <path
       style="fill:#a6a61d;stroke:#a6a61d;stroke-width:1px;stroke-linecap:butt;stroke-linejoin:miter;stroke-opacity:1"
       d="M 7.3228657,10.969087 9.5107951,8.959764 24.201178,22.489205 21.968597,24.587831 Z"
       transform="translate(611.5,280)"
       id="path982"
       inkscape:connector-curvature="0" />
    <path
       style="fill:#a6a61d;stroke:#a6a61d;stroke-width:1px;stroke-linecap:butt;stroke-linejoin:miter;stroke-opacity:1"
       d="M 21.968597,8.959764 24.201178,10.969087 9.5107951,24.587831 7.3228657,22.489205 Z"
       transform="translate(611.5,280)"
       id="path984"
       inkscape:connector-curvature="0" />
  </g>
  <use
     id="1d7901e9-df49-44d8-bc0f-a1c6b987c28b"
     xlink:href="#def10"
     class="style4"
     x="134"
     y="166"
     style="fill:#e6ff97;stroke:#62a716;stroke-width:2"
     width="100%"
     height="100%"
     transform="translate(-29.5,-29.5)" />
  <g
     id="1d7901e9-df49-44d8-bc0f-a1c6b987c28bContainer"
     transform="translate(104.5,136.5)" />
  <use
     id="9a6b1c0b-070d-4024-9594-c666d6554312"
     xlink:href="#def3"
     class="style1"
     x="1062"
     y="161"
     style="fill:#ffffcc;stroke:#a6a61d;stroke-width:2"
     width="100%"
     height="100%"
     transform="translate(-29.5,-29.5)" />
  <g
     id="9a6b1c0b-070d-4024-9594-c666d6554312Container"
     transform="translate(1032.5,131.5)" />
  <g
     id="g998"
     transform="translate(-29.5,-29.5)">
    <path
       style="fill:#a6a61d;stroke:#a6a61d;stroke-width:1px;stroke-linecap:butt;stroke-linejoin:miter;stroke-opacity:1"
       d="m 14.288518,6.459273 h 3.036311 v 8.930324 h 8.037291 v 3.214917 h -8.037291 v 7.947988 H 14.288518 V 18.604514 H 5.2688912 v -3.214917 h 9.0196268 z"
       transform="translate(1066.5,165)"
       id="path992"
       inkscape:connector-curvature="0" />
    <path
       style="fill:#a6a61d;stroke:#a6a61d;stroke-width:1px;stroke-linecap:butt;stroke-linejoin:miter;stroke-opacity:1"
       d="M 7.3228657,10.969087 9.5107951,8.959764 24.201178,22.489205 21.968597,24.587831 Z"
       transform="translate(1066.5,165)"
       id="path994"
       inkscape:connector-curvature="0" />
    <path
       style="fill:#a6a61d;stroke:#a6a61d;stroke-width:1px;stroke-linecap:butt;stroke-linejoin:miter;stroke-opacity:1"
       d="M 21.968597,8.959764 24.201178,10.969087 9.5107951,24.587831 7.3228657,22.489205 Z"
       transform="translate(1066.5,165)"
       id="path996"
       inkscape:connector-curvature="0" />
  </g>
  <use
     id="f9494096-d10f-4fae-851a-44bfb9615d14"
     xlink:href="#def13"
     class="style2"
     x="582"
     y="151"
     style="fill:#ecefff;stroke:#03689a;stroke-width:2"
     width="100%"
     height="100%"
     transform="translate(-29.5,-29.5)" />
  <g
     id="f9494096-d10f-4fae-851a-44bfb9615d14Container"
     transform="translate(552.5,121.5)">
    <text
       id="f9494096-d10f-4fae-851a-44bfb9615d14Text"
       class="style5"
       clip-path="url(#def14)"
       style="font-size:10.66666698px;font-family:'Segoe UI';fill:#000000;text-rendering:auto">
      <tspan
         x="0"
         y="9"
         id="tspan1001" />
      <tspan
         x="11"
         y="25"
         id="tspan1003">E9b - Conduct</tspan>
      <tspan
         x="21"
         y="39"
         id="tspan1005">Interview</tspan>
    </text>
  </g>
  <use
     id="a5ad1897-8b43-4257-9aa2-b1134f2460ef"
     xlink:href="#def3"
     class="style1"
     x="1062"
     y="276"
     style="fill:#ffffcc;stroke:#a6a61d;stroke-width:2"
     width="100%"
     height="100%"
     transform="translate(-29.5,-29.5)" />
  <g
     id="a5ad1897-8b43-4257-9aa2-b1134f2460efContainer"
     transform="translate(1032.5,246.5)" />
  <g
     id="g1017"
     transform="translate(-29.5,-29.5)">
    <path
       style="fill:#a6a61d;stroke:#a6a61d;stroke-width:1px;stroke-linecap:butt;stroke-linejoin:miter;stroke-opacity:1"
       d="m 14.288518,6.459273 h 3.036311 v 8.930324 h 8.037291 v 3.214917 h -8.037291 v 7.947988 H 14.288518 V 18.604514 H 5.2688912 v -3.214917 h 9.0196268 z"
       transform="translate(1066.5,280)"
       id="path1011"
       inkscape:connector-curvature="0" />
    <path
       style="fill:#a6a61d;stroke:#a6a61d;stroke-width:1px;stroke-linecap:butt;stroke-linejoin:miter;stroke-opacity:1"
       d="M 7.3228657,10.969087 9.5107951,8.959764 24.201178,22.489205 21.968597,24.587831 Z"
       transform="translate(1066.5,280)"
       id="path1013"
       inkscape:connector-curvature="0" />
    <path
       style="fill:#a6a61d;stroke:#a6a61d;stroke-width:1px;stroke-linecap:butt;stroke-linejoin:miter;stroke-opacity:1"
       d="M 21.968597,8.959764 24.201178,10.969087 9.5107951,24.587831 7.3228657,22.489205 Z"
       transform="translate(1066.5,280)"
       id="path1015"
       inkscape:connector-curvature="0" />
  </g>
  <use
     id="7c4cc2f2-791a-404e-a07a-61fe90ba6579"
     xlink:href="#def3"
     class="style1"
     x="914"
     y="276"
     style="fill:#ffffcc;stroke:#a6a61d;stroke-width:2"
     width="100%"
     height="100%"
     transform="translate(-29.5,-29.5)" />
  <g
     id="7c4cc2f2-791a-404e-a07a-61fe90ba6579Container"
     transform="translate(884.5,246.5)" />
  <g
     id="g1027"
     transform="translate(-29.5,-29.5)">
    <path
       style="fill:#a6a61d;stroke:#a6a61d;stroke-width:1px;stroke-linecap:butt;stroke-linejoin:miter;stroke-opacity:1"
       d="m 14.288518,6.459273 h 3.036311 v 8.930324 h 8.037291 v 3.214917 h -8.037291 v 7.947988 H 14.288518 V 18.604514 H 5.2688912 v -3.214917 h 9.0196268 z"
       transform="translate(918.5,280)"
       id="path1021"
       inkscape:connector-curvature="0" />
    <path
       style="fill:#a6a61d;stroke:#a6a61d;stroke-width:1px;stroke-linecap:butt;stroke-linejoin:miter;stroke-opacity:1"
       d="M 7.3228657,10.969087 9.5107951,8.959764 24.201178,22.489205 21.968597,24.587831 Z"
       transform="translate(918.5,280)"
       id="path1023"
       inkscape:connector-curvature="0" />
    <path
       style="fill:#a6a61d;stroke:#a6a61d;stroke-width:1px;stroke-linecap:butt;stroke-linejoin:miter;stroke-opacity:1"
       d="M 21.968597,8.959764 24.201178,10.969087 9.5107951,24.587831 7.3228657,22.489205 Z"
       transform="translate(918.5,280)"
       id="path1025"
       inkscape:connector-curvature="0" />
  </g>
  <use
     id="72d814dc-2568-4cb2-a3cc-3e655cb61d4c"
     xlink:href="#def17"
     class="style2"
     x="1204"
     y="144"
     style="fill:#ecefff;stroke:#03689a;stroke-width:2"
     width="100%"
     height="100%"
     transform="translate(-29.5,-29.5)" />
  <g
     id="72d814dc-2568-4cb2-a3cc-3e655cb61d4cContainer"
     transform="translate(1174.5,114.5)">
    <text
       id="72d814dc-2568-4cb2-a3cc-3e655cb61d4cText"
       class="style6"
       clip-path="url(#def18)"
       style="font-size:10.66666698px;font-family:'Segoe UI';fill:#000000;text-rendering:auto">
      <tspan
         x="7"
         y="17"
         id="tspan1030">E9d - Complete</tspan>
      <tspan
         x="18"
         y="32"
         id="tspan1032">the Heuristic</tspan>
      <tspan
         x="19"
         y="46"
         id="tspan1034">Evaluation</tspan>
      <tspan
         x="23"
         y="60"
         id="tspan1036">Checklist</tspan>
    </text>
  </g>
  <use
     id="87cf0466-386c-418a-899c-c635bc01d179"
     xlink:href="#def10"
     class="style7"
     x="1503"
     y="166"
     style="fill:#eeaaaa;stroke:#990000;stroke-width:3"
     width="100%"
     height="100%"
     transform="translate(-29.5,-29.5)" />
  <g
     id="87cf0466-386c-418a-899c-c635bc01d179Container"
     transform="translate(1473.5,136.5)" />
  <use
     id="a0e61837-c20a-4b82-8097-c0f85028ff65"
     xlink:href="#def3"
     class="style1"
     x="1386"
     y="161"
     style="fill:#ffffcc;stroke:#a6a61d;stroke-width:2"
     width="100%"
     height="100%"
     transform="translate(-29.5,-29.5)" />
  <g
     id="a0e61837-c20a-4b82-8097-c0f85028ff65Container"
     transform="translate(1356.5,131.5)" />
  <g
     id="g1050"
     transform="translate(-29.5,-29.5)">
    <path
       style="fill:#a6a61d;stroke:#a6a61d;stroke-width:1px;stroke-linecap:butt;stroke-linejoin:miter;stroke-opacity:1"
       d="m 14.288518,6.459273 h 3.036311 v 8.930324 h 8.037291 v 3.214917 h -8.037291 v 7.947988 H 14.288518 V 18.604514 H 5.2688912 v -3.214917 h 9.0196268 z"
       transform="translate(1390.5,165)"
       id="path1044"
       inkscape:connector-curvature="0" />
    <path
       style="fill:#a6a61d;stroke:#a6a61d;stroke-width:1px;stroke-linecap:butt;stroke-linejoin:miter;stroke-opacity:1"
       d="M 7.3228657,10.969087 9.5107951,8.959764 24.201178,22.489205 21.968597,24.587831 Z"
       transform="translate(1390.5,165)"
       id="path1046"
       inkscape:connector-curvature="0" />
    <path
       style="fill:#a6a61d;stroke:#a6a61d;stroke-width:1px;stroke-linecap:butt;stroke-linejoin:miter;stroke-opacity:1"
       d="M 21.968597,8.959764 24.201178,10.969087 9.5107951,24.587831 7.3228657,22.489205 Z"
       transform="translate(1390.5,165)"
       id="path1048"
       inkscape:connector-curvature="0" />
  </g>
  <use
     id="bbcb4569-5e67-4a8e-8bdd-6b181399fd5b"
     xlink:href="#def21"
     class="style2"
     x="244"
     y="149"
     style="fill:#ecefff;stroke:#03689a;stroke-width:2"
     width="100%"
     height="100%"
     transform="translate(-29.5,-29.5)" />
  <g
     id="bbcb4569-5e67-4a8e-8bdd-6b181399fd5bContainer"
     transform="translate(214.5,119.5)">
    <text
       id="bbcb4569-5e67-4a8e-8bdd-6b181399fd5bText"
       class="style8"
       clip-path="url(#def22)"
       style="font-size:10.66666698px;font-family:'Segoe UI';fill:#000000;text-rendering:auto">
      <tspan
         x="11"
         y="14"
         id="tspan1053">E9a - Perform</tspan>
      <tspan
         x="13"
         y="27"
         id="tspan1055">Modeling of</tspan>
      <tspan
         x="26"
         y="41"
         id="tspan1057">the use</tspan>
      <tspan
         x="23"
         y="55"
         id="tspan1059">Scenario</tspan>
    </text>
  </g>
  <polyline
     id="9585938c-39b2-43fc-be4b-7c6be18de32c"
     style="fill:none;stroke:#000000;stroke-width:1;stroke-opacity:1;marker-end:url(#defMarker)"
     points="0,0 75,0 "
     transform="translate(957.5,151.5)" />
  <text
     x="995"
     y="149.5"
     style="font-size:10.66666698px;font-family:'Segoe UI';fill:#000000"
     id="text1064" />
  <polyline
     id="27e4831e-6138-4648-b217-ce38891a6637"
     style="fill:none;stroke:#000000;stroke-width:1;stroke-opacity:1;marker-end:url(#defMarker)"
     points="0,65 0,0 "
     transform="translate(597.5,181.5)" />
  <text
     x="597.5"
     y="212"
     style="font-size:10.66666698px;font-family:'Segoe UI';fill:#000000"
     id="text1067" />
  <polyline
     id="0a666c42-a2ae-4109-996a-67a0c0cd48a8"
     style="fill:none;stroke:#000000;stroke-width:1;stroke-opacity:1;marker-end:url(#defMarker)"
     points="144,0 0,0 "
     transform="translate(740.5,266.5)" />
  <text
     x="812.5"
     y="264.5"
     style="font-size:10.66666698px;font-family:'Segoe UI';fill:#000000"
     id="text1070" />
  <polyline
     id="13543efb-0bcd-43ac-9798-f5a5f327e99b"
     style="fill:none;stroke:#000000;stroke-width:1;stroke-opacity:1;marker-end:url(#defMarker)"
     points="0,0 0,75 "
     transform="translate(1052.5,171.5)" />
  <text
     x="1052.5"
     y="207"
     style="font-size:10.66666698px;font-family:'Segoe UI';fill:#000000"
     id="text1073" />
  <polyline
     id="aea5ebbe-060a-47af-a4fb-391db3e9d3df"
     style="fill:none;stroke:#000000;stroke-width:1;stroke-opacity:1;marker-end:url(#defMarker)"
     points="0,0 102,0 "
     transform="translate(1072.5,151.5)" />
  <text
     x="1123.5"
     y="149.5"
     style="font-size:10.66666698px;font-family:'Segoe UI';fill:#000000"
     id="text1076" />
  <polyline
     id="c0981eaa-4aab-47df-adbf-f5b75edcb853"
     style="fill:none;stroke:#000000;stroke-width:1;stroke-opacity:1;marker-end:url(#defMarker)"
     points="83,0 0,0 "
     transform="translate(617.5,266.5)" />
  <text
     x="659"
     y="264.5"
     style="font-size:10.66666698px;font-family:'Segoe UI';fill:#000000"
     id="text1079" />
  <polyline
     id="a4880b73-f6c0-4d07-a1fb-3bd166643a2f"
     style="fill:none;stroke:#000000;stroke-width:1;stroke-opacity:1;marker-end:url(#defMarker)"
     points="0,0 77,0 "
     transform="translate(475.5,151.5)" />
  <text
     x="514"
     y="149.5"
     style="font-size:10.66666698px;font-family:'Segoe UI';fill:#000000"
     id="text1082" />
  <polyline
     id="d89b2359-98bc-4d8a-bc2c-9e4355fc478a"
     style="fill:none;stroke:#000000;stroke-width:1;stroke-opacity:1;marker-end:url(#defMarker)"
     points="0,0 89,0 "
     transform="translate(1267.5,151.5)" />
  <text
     x="1312"
     y="149.5"
     style="font-size:10.66666698px;font-family:'Segoe UI';fill:#000000"
     id="text1085" />
  <polyline
     id="44fa7c8c-80b6-47d9-ac34-705c4d08c671"
     style="fill:none;stroke:#000000;stroke-width:1;stroke-opacity:1;marker-end:url(#defMarker)"
     points="0,0 77,0 "
     transform="translate(1396.5,151.5)" />
  <text
     x="1435"
     y="149.5"
     style="font-size:10.66666698px;font-family:'Segoe UI';fill:#000000"
     id="text1088" />
  <polyline
     id="ec0b2a40-fccf-49a4-84d7-09f694a45093"
     style="fill:none;stroke:#000000;stroke-width:1;stroke-opacity:1;marker-end:url(#defMarker)"
     points="318,83 12,83 6,82.99997 2.686279,83 0,80.31369 0,77 0,0 "
     transform="translate(259.5,183.5)" />
  <text
     x="259.5"
     y="264.5"
     style="font-size:10.66666698px;font-family:'Segoe UI';fill:#000000"
     id="text1091" />
  <polyline
     id="07a13e1f-7f9b-4669-a08d-32d84f434f93"
     style="fill:none;stroke:#000000;stroke-width:1;stroke-opacity:1;marker-end:url(#defMarker)"
     points="0,0 80,0 "
     transform="translate(134.5,151.5)" />
  <text
     x="174.5"
     y="149.5"
     style="font-size:10.66666698px;font-family:'Segoe UI';fill:#000000"
     id="text1094" />
  <polyline
     id="6dc66156-5fe8-413b-989a-ecb3d18be28b"
     style="fill:none;stroke:#000000;stroke-width:1;stroke-opacity:1;marker-end:url(#defMarker)"
     points="196,40.00001 196,12.00001 196,6 196,2.686295 193.3137,0 190,0 190,0 190,7.629395E-06 190,7.629395E-06 12.00003,7.629395E-06 6,0 2.68631,7.629395E-06 0,2.686302 0,6.000008 3.051758E-05,28.00001 "
     transform="translate(259.5,91.5)" />
  <text
     x="357.5"
     y="89.5"
     style="font-size:10.66666698px;font-family:'Segoe UI';fill:#000000"
     id="text1097" />
  <polyline
     id="cd704e2e-ec2a-43e8-8ad2-99c1b8a740b4"
     style="fill:none;stroke:#000000;stroke-width:1;stroke-opacity:1;marker-end:url(#defMarker)"
     points="1,59 1,32.5 0,32.5 0,0 "
     transform="translate(903.5,187.5)" />
  <text
     x="904"
     y="218"
     style="font-size:10.66666698px;font-family:'Segoe UI';fill:#000000"
     id="text1100" />
  <polyline
     id="89b7d241-54f6-4d07-a1c5-28ba2cd0776a"
     style="fill:none;stroke:#000000;stroke-width:1;stroke-opacity:1;marker-end:url(#defMarker)"
     points="304,0 304,83 303.9999,88.99997 303.9999,92.31369 301.3136,94.99997 298,94.99997 0,95 "
     transform="translate(1072.5,171.5)" />
  <text
     x="1376.5"
     y="264.5"
     style="font-size:10.66666698px;font-family:'Segoe UI';fill:#000000"
     id="text1103" />
  <polyline
     id="46812397-76dc-4254-9f61-48421c84d235"
     style="fill:none;stroke:#000000;stroke-width:1;stroke-opacity:1;marker-end:url(#defMarker)"
     points="0,0 131,0 "
     transform="translate(304.5,151.5)" />
  <text
     x="370"
     y="149.5"
     style="font-size:10.66666698px;font-family:'Segoe UI';fill:#000000"
     id="text1106" />
  <polyline
     id="3d8f3344-fd41-4d6c-9cf1-f2c89b96e591"
     style="fill:none;stroke:#000000;stroke-width:1;stroke-opacity:1;marker-end:url(#defMarker)"
     points="0,0 58,0 "
     transform="translate(642.5,151.5)" />
  <text
     x="671.5"
     y="149.5"
     style="font-size:10.66666698px;font-family:'Segoe UI';fill:#000000"
     id="text1109" />
  <polyline
     id="6a1cb348-4d90-4fdd-8ffe-230a2a27c844"
     style="fill:none;stroke:#000000;stroke-width:1;stroke-opacity:1;marker-end:url(#defMarker)"
     points="108,0 0,0 "
     transform="translate(924.5,266.5)" />
  <text
     x="978.5"
     y="264.5"
     style="font-size:10.66666698px;font-family:'Segoe UI';fill:#000000"
     id="text1112" />
  <polyline
     id="8c862379-0bae-4c3b-96a9-c3fbda9274f5"
     style="fill:none;stroke:#000000;stroke-width:1;stroke-opacity:1;marker-end:url(#defMarker)"
     points="0,0 0,75 "
     transform="translate(720.5,171.5)" />
  <text
     x="720.5"
     y="207"
     style="font-size:10.66666698px;font-family:'Segoe UI';fill:#000000"
     id="text1115" />
  <polyline
     id="81aeaacd-3ddd-4b32-a986-b3f61da10f99"
     style="fill:none;stroke:#000000;stroke-width:1;stroke-opacity:1;marker-end:url(#defMarker)"
     points="0,0 110,0 "
     transform="translate(740.5,151.5)" />
  <text
     x="795.5"
     y="149.5"
     style="font-size:10.66666698px;font-family:'Segoe UI';fill:#000000"
     id="text1118" />
</svg>
