<?xml version="1.0" encoding="UTF-8" standalone="no"?>
<svg
   xmlns:dc="http://purl.org/dc/elements/1.1/"
   xmlns:cc="http://creativecommons.org/ns#"
   xmlns:rdf="http://www.w3.org/1999/02/22-rdf-syntax-ns#"
   xmlns:svg="http://www.w3.org/2000/svg"
   xmlns="http://www.w3.org/2000/svg"
   xmlns:xlink="http://www.w3.org/1999/xlink"
   xmlns:sodipodi="http://sodipodi.sourceforge.net/DTD/sodipodi-0.dtd"
   xmlns:inkscape="http://www.inkscape.org/namespaces/inkscape"
   width="750px"
   height="493px"
   version="1.1"
   id="svg4171"
   sodipodi:docname="p4a.svg"
   inkscape:version="0.92.4 (5da689c313, 2019-01-14)">
  <metadata
     id="metadata4175">
    <rdf:RDF>
      <cc:Work
         rdf:about="">
        <dc:format>image/svg+xml</dc:format>
        <dc:type
           rdf:resource="http://purl.org/dc/dcmitype/StillImage" />
      </cc:Work>
    </rdf:RDF>
  </metadata>
  <sodipodi:namedview
     pagecolor="#ffffff"
     bordercolor="#666666"
     borderopacity="1"
     objecttolerance="10"
     gridtolerance="10"
     guidetolerance="10"
     inkscape:pageopacity="0"
     inkscape:pageshadow="2"
     inkscape:window-width="1366"
     inkscape:window-height="705"
     id="namedview4173"
     showgrid="false"
     inkscape:zoom="1.3539732"
     inkscape:cx="586.26853"
     inkscape:cy="145.27656"
     inkscape:window-x="-8"
     inkscape:window-y="-8"
     inkscape:window-maximized="1"
     inkscape:current-layer="svg4171" />
  <style
     type="text/css"
     id="style4066"><![CDATA[
	.style1{fill:#E6FF97;stroke:#62A716;stroke-width:2;}
	.style2{fill:#FFFFCC;stroke:#A6A61D;stroke-width:2;}
	.style3{fill:#ECEFFF;stroke:#03689A;stroke-width:2;}
	.style4{text-rendering:auto;font-family:'Segoe UI';font-size:8.25pt;fill:#000000;clip-path:url(#def8);}
	.style5{fill:#EEAAAA;stroke:#990000;stroke-width:3;}
	.style6{text-rendering:auto;font-family:'Segoe UI';font-size:8.25pt;fill:#000000;clip-path:url(#def11);}
	.style7{fill:#FFFFFF;}
	.style8{text-rendering:auto;font-family:'Segoe UI';font-size:8.25pt;fill:#000000;clip-path:url(#def15);}
	.style9{text-rendering:auto;font-family:'Segoe UI';font-size:8.25pt;fill:#000000;clip-path:url(#def16);}]]></style>
  <defs
     id="defs4104">
    <path
       id="94fdfa25-6758-4584-8bf9-01638fa213aeHeaderPath"
       fill-rule="evenodd"
       d="M 30,380 L 380,380 L 380,430 L 30,430 Z " />
    <clipPath
       id="0a5f2eb5-ed94-4907-8b1a-b4075d1f6c4fHeaderClipPath">
      <use
         xlink:href="#94fdfa25-6758-4584-8bf9-01638fa213aeHeaderPath"
         id="use4069" />
    </clipPath>
    <ellipse
       id="def3"
       cx="15"
       cy="15"
       rx="15"
       ry="15" />
    <clipPath
       id="def4">
      <use
         xlink:href="#def3"
         transform="translate(0,0)"
         id="use4073" />
    </clipPath>
    <polygon
       id="def5"
       points="-0,20 20,-0 40,20 20,40 -0,20 " />
    <clipPath
       id="def6">
      <use
         xlink:href="#def5"
         transform="translate(0,0)"
         id="use4077" />
    </clipPath>
    <path
       id="def7"
       fill-rule="evenodd"
       d="M 7,0 L 83,0 L 83,0 C 86.87,-0 90,3.13 90,7 C 90,7 90,7 90,7 L 90,7 L 90,53 L 90,53 C 90,56.87 86.87,60 83,60 L 83,60 L 7,60 L 7,60 C 3.13,60 0,56.87 0,53 L 0,53 L 0,7 L 0,7 C -0,3.13 3.13,0 7,0 Z " />
    <clipPath
       id="def8">
      <use
         xlink:href="#def7"
         transform="translate(0,0)"
         id="use4081" />
    </clipPath>
    <clipPath
       id="def9">
      <use
         xlink:href="#def3"
         transform="translate(0,0)"
         id="use4084" />
    </clipPath>
    <path
       id="def10"
       fill-rule="evenodd"
       d="M 7,0 L 120,0 L 120,0 C 123.87,-0 127,3.13 127,7 C 127,7 127,7 127,7 L 127,7 L 127,67 L 127,67 C 127,70.87 123.87,74 120,74 L 120,74 L 7,74 L 7,74 C 3.13,74 0,70.87 0,67 L 0,7 L 0,7 C -0,3.13 3.13,0 7,0 Z " />
    <clipPath
       id="def11">
      <use
         xlink:href="#def10"
         transform="translate(0,0)"
         id="use4088" />
    </clipPath>
    <marker
       id="defMarkerShadow"
       viewbox="0 0 10 8"
       refX="10"
       refY="4"
       markerUnits="strokeWidth"
       markerWidth="10"
       markerHeight="8"
       orient="auto"
       fill="#000000"
       fill-opacity="0.1">
      <path
         fill-rule="evenodd"
         d="M 9,4 L 1,9 L 3,4 L 1,-1 Z "
         id="path4091" />
    </marker>
    <marker
       id="defMarker"
       viewbox="0 0 10 8"
       refX="10"
       refY="4"
       markerUnits="strokeWidth"
       markerWidth="10"
       markerHeight="8"
       orient="auto"
       fill="#000000"
       fill-opacity="1">
      <path
         fill-rule="evenodd"
         d="M 9,4 L 1,9 L 3,4 L 1,-1 Z "
         id="path4094" />
    </marker>
    <rect
       id="def14"
       width="77"
       height="45" />
    <clipPath
       id="def15">
      <use
         xlink:href="#def14"
         transform="translate(0,0)"
         id="use4098" />
    </clipPath>
    <clipPath
       id="def16">
      <use
         xlink:href="#def14"
         transform="translate(0,0)"
         id="use4101" />
    </clipPath>
  </defs>
  <g
     id="g4114">
    <rect
       x="30"
       y="30"
       width="700"
       height="350"
       rx="0"
       ry="0"
       style="fill:White;stroke:Black;stroke-width:1px;stroke-linecap:butt;stroke-linejoin:miter;stroke-opacity:1"
       id="rect4106" />
    <line
       x1="80"
       y1="30"
       x2="80"
       y2="380"
       style="stroke:Black;stroke-width:1px;stroke-linecap:butt;stroke-linejoin:miter;stroke-opacity:1"
       id="line4108" />
    <text
       style="font-family:'Segoe UI';font-size:8pt;font-weight:bold;fill:Black;clip-path:url(#0a5f2eb5-ed94-4907-8b1a-b4075d1f6c4fHeaderClipPath);"
       transform="rotate(-90 30 380)"
       clip-path="url(#0a5f2eb5-ed94-4907-8b1a-b4075d1f6c4fHeaderClipPath)"
       id="text4112">
      <tspan
         x="101.3837"
         y="409"
         id="tspan4110"> P4a - Select the Empirical Study Method</tspan>
    </text>
  </g>
  <use
     id="65608d7d-6e70-4d03-8d7c-c9e3a040bebe"
     xlink:href="#def3"
     class="style1"
     x="119"
     y="181" />
  <g
     id="65608d7d-6e70-4d03-8d7c-c9e3a040bebeContainer"
     transform="translate(119,181) rotate(0,25,25)" />
  <use
     id="304349db-5001-4b93-bcbc-134af42e35bb"
     xlink:href="#def5"
     class="style2"
     x="250"
     y="176" />
  <g
     id="304349db-5001-4b93-bcbc-134af42e35bbContainer"
     transform="translate(250,176) rotate(0,25,25)" />
  <use
     id="5edab828-51e9-4c58-84a6-e2a3aa1ccca2"
     xlink:href="#def7"
     class="style3"
     x="448"
     y="74" />
  <g
     id="5edab828-51e9-4c58-84a6-e2a3aa1ccca2Container"
     transform="translate(448,74) rotate(0,25,25)">
    <text
       id="5edab828-51e9-4c58-84a6-e2a3aa1ccca2Text"
       class="style4"
       clip-path="url(#def8)">
      <tspan
         x="30"
         y="17"
         id="tspan4121">Select  </tspan>
      <tspan
         x="23"
         y="31"
         id="tspan4123">Protocol </tspan>
      <tspan
         x="28"
         y="46"
         id="tspan4125">Survey</tspan>
    </text>
  </g>
  <use
     id="248ce27b-8c95-4381-b2ee-9f3401c8ac33"
     xlink:href="#def3"
     class="style5"
     x="669"
     y="181" />
  <g
     id="248ce27b-8c95-4381-b2ee-9f3401c8ac33Container"
     transform="translate(669,181) rotate(0,25,25)" />
  <use
     id="7e42c863-20fd-46bd-8f75-66975c8176b9"
     xlink:href="#def10"
     class="style3"
     x="448"
     y="229" />
  <g
     id="7e42c863-20fd-46bd-8f75-66975c8176b9Container"
     transform="translate(448,229) rotate(0,25,25)">
    <text
       id="7e42c863-20fd-46bd-8f75-66975c8176b9Text"
       class="style6"
       clip-path="url(#def11)">
      <tspan
         x="7"
         y="17"
         id="tspan4132">Select Protocol Survey </tspan>
      <tspan
         x="6"
         y="31"
         id="tspan4134">or Protocol Controlled </tspan>
      <tspan
         x="28"
         y="46"
         id="tspan4136">Experiment or </tspan>
      <tspan
         x="12"
         y="60"
         id="tspan4138">Protocol Case Study</tspan>
    </text>
  </g>
  <polyline
     id="911c3bb5-83cf-4785-b478-75b1b57a1878"
     style="stroke:#000000;fill:none;stroke-opacity:1;stroke-width:1;"
     points="0,0 0,37 0,43 0,46.31369 2.686279,49 6,48.99997 178,49 "
     marker-end="url(#defMarker)"
     transform="translate(270,216)" />
  <text
     x="270"
     y="263"
     style="font-family:'Segoe UI';font-size:8.25pt;fill:Black;"
     id="text4143" />
  <polyline
     id="2160434a-a106-4efe-93a6-fbc16f90aeee"
     style="stroke:#000000;fill:none;stroke-opacity:1;stroke-width:1;"
     points="3.051758E-05,72.00001 3.051758E-05,12.00001 0,6.000008 0,2.686302 2.68631,7.629395E-06 6,0 178,7.629395E-06 "
     marker-end="url(#defMarker)"
     transform="translate(270,104)" />
  <text
     x="270"
     y="102"
     style="font-family:'Segoe UI';font-size:8.25pt;fill:Black;"
     id="text4146" />
  <polyline
     id="98ab9c37-6b01-4246-8d92-382b133da75c"
     style="stroke:#000000;fill:none;stroke-opacity:1;stroke-width:1;"
     points="0,7.629395E-06 134,7.629395E-06 139.9999,7.629395E-06 143.3137,0 145.9999,2.686287 145.9999,6 145.9999,6 145.9999,6.000008 145.9999,6.000008 146,77.00001 "
     marker-end="url(#defMarker)"
     transform="translate(538,104)" />
  <text
     x="684"
     y="102"
     style="font-family:'Segoe UI';font-size:8.25pt;fill:Black;"
     id="text4149" />
  <polyline
     id="618c172d-5529-45c6-9809-aad02db740f4"
     style="stroke:#000000;fill:none;stroke-opacity:1;stroke-width:1;"
     points="0,54 98,54 104,53.99997 107.3137,53.99997 109.9999,51.31369 109.9999,47.99997 110,0 "
     marker-end="url(#defMarker)"
     transform="translate(574,211)" />
  <text
     x="684"
     y="263"
     style="font-family:'Segoe UI';font-size:8.25pt;fill:Black;"
     id="text4152" />
  <polyline
     id="6049190a-bf69-4dcf-8ca3-310041c8f7ec"
     style="stroke:#000000;fill:none;stroke-opacity:1;stroke-width:1;"
     points="0,0 101,0 "
     marker-end="url(#defMarker)"
     transform="translate(149,196)" />
  <text
     x="199.5"
     y="194"
     style="font-family:'Segoe UI';font-size:8.25pt;fill:Black;"
     id="text4155" />
  <g
     id="Text_1c136d0c-b106-4986-bc14-2feeff66068bContainer"
     transform="translate(297,225.5) rotate(0,25,25)">
    <text
       id="Text_1c136d0c-b106-4986-bc14-2feeff66068bText"
       class="style8"
       clip-path="url(#def15)">
      <tspan
         x="7"
         y="14"
         id="tspan4157">If selected is </tspan>
      <tspan
         x="7"
         y="29"
         id="tspan4159">Usability</tspan>
    </text>
  </g>
  <g
     id="Text_fd43a5f5-7f3e-4849-b7c6-60fc555187ccContainer"
     transform="translate(298,66) rotate(0,25,25)">
    <text
       id="Text_fd43a5f5-7f3e-4849-b7c6-60fc555187ccText"
       class="style9"
       clip-path="url(#def16)">
      <tspan
         x="7"
         y="14"
         id="tspan4163">If selected is </tspan>
      <tspan
         x="7"
         y="29"
         id="tspan4165">Heuristic</tspan>
    </text>
  </g>
</svg>
