<?xml version="1.0" encoding="UTF-8" standalone="no"?>
<svg
   xmlns:dc="http://purl.org/dc/elements/1.1/"
   xmlns:cc="http://creativecommons.org/ns#"
   xmlns:rdf="http://www.w3.org/1999/02/22-rdf-syntax-ns#"
   xmlns:svg="http://www.w3.org/2000/svg"
   xmlns="http://www.w3.org/2000/svg"
   xmlns:xlink="http://www.w3.org/1999/xlink"
   xmlns:sodipodi="http://sodipodi.sourceforge.net/DTD/sodipodi-0.dtd"
   xmlns:inkscape="http://www.inkscape.org/namespaces/inkscape"
   width="750px"
   height="493px"
   version="1.1"
   id="svg246"
   sodipodi:docname="p5a.svg"
   inkscape:version="0.92.4 (5da689c313, 2019-01-14)">
  <metadata
     id="metadata250">
    <rdf:RDF>
      <cc:Work
         rdf:about="">
        <dc:format>image/svg+xml</dc:format>
        <dc:type
           rdf:resource="http://purl.org/dc/dcmitype/StillImage" />
      </cc:Work>
    </rdf:RDF>
  </metadata>
  <sodipodi:namedview
     pagecolor="#ffffff"
     bordercolor="#666666"
     borderopacity="1"
     objecttolerance="10"
     gridtolerance="10"
     guidetolerance="10"
     inkscape:pageopacity="0"
     inkscape:pageshadow="2"
     inkscape:window-width="1366"
     inkscape:window-height="705"
     id="namedview248"
     showgrid="false"
     inkscape:zoom="1.0872211"
     inkscape:cx="375"
     inkscape:cy="246.5"
     inkscape:window-x="-8"
     inkscape:window-y="-8"
     inkscape:window-maximized="1"
     inkscape:current-layer="svg246" />
  <style
     type="text/css"
     id="style131"><![CDATA[
	.style1{fill:#E6FF97;stroke:#62A716;stroke-width:2;}
	.style2{fill:#ECEFFF;stroke:#03689A;stroke-width:2;}
	.style3{text-rendering:auto;font-family:'Segoe UI';font-size:8pt;fill:#000000;clip-path:url(#def6);}
	.style4{fill:#FFFFCC;stroke:#A6A61D;stroke-width:2;}
	.style5{text-rendering:auto;font-family:'Segoe UI';font-size:8pt;fill:#000000;clip-path:url(#def9);}
	.style6{fill:#EEAAAA;stroke:#990000;stroke-width:3;}
	.style7{text-rendering:auto;font-family:'Segoe UI';font-size:8pt;fill:#000000;clip-path:url(#def11);}
	.style8{fill:#FFFFFF;}
	.style9{text-rendering:auto;font-family:'Segoe UI';font-size:8pt;fill:#000000;clip-path:url(#def15);}
	.style10{text-rendering:auto;font-family:'Segoe UI';font-size:8pt;fill:#000000;clip-path:url(#def17);}]]></style>
  <defs
     id="defs172">
    <path
       id="c83a185d-6011-4e35-8e52-01ce8610ddf9HeaderPath"
       fill-rule="evenodd"
       d="M 30,380 L 380,380 L 380,430 L 30,430 Z " />
    <clipPath
       id="5c990473-bf79-44f5-90d9-16bace92a65eHeaderClipPath">
      <use
         xlink:href="#c83a185d-6011-4e35-8e52-01ce8610ddf9HeaderPath"
         id="use134" />
    </clipPath>
    <ellipse
       id="def3"
       cx="15"
       cy="15"
       rx="15"
       ry="15" />
    <clipPath
       id="def4">
      <use
         xlink:href="#def3"
         transform="translate(0,0)"
         id="use138" />
    </clipPath>
    <path
       id="def5"
       fill-rule="evenodd"
       d="M 7,0 L 83,0 L 83,0 C 86.87,-0 90,3.13 90,7 C 90,7 90,7 90,7 L 90,7 L 90,53 L 90,53 C 90,56.87 86.87,60 83,60 L 83,60 L 7,60 L 7,60 C 3.13,60 0,56.87 0,53 L 0,53 L 0,7 L 0,7 C -0,3.13 3.13,0 7,0 Z " />
    <clipPath
       id="def6">
      <use
         xlink:href="#def5"
         transform="translate(0,0)"
         id="use142" />
    </clipPath>
    <polygon
       id="def7"
       points="-0,20 20,-0 40,20 20,40 -0,20 " />
    <clipPath
       id="def8">
      <use
         xlink:href="#def7"
         transform="translate(0,0)"
         id="use146" />
    </clipPath>
    <clipPath
       id="def9">
      <use
         xlink:href="#def5"
         transform="translate(0,0)"
         id="use149" />
    </clipPath>
    <clipPath
       id="def10">
      <use
         xlink:href="#def3"
         transform="translate(0,0)"
         id="use152" />
    </clipPath>
    <clipPath
       id="def11">
      <use
         xlink:href="#def5"
         transform="translate(0,0)"
         id="use155" />
    </clipPath>
    <marker
       id="defMarkerShadow"
       viewbox="0 0 10 8"
       refX="10"
       refY="4"
       markerUnits="strokeWidth"
       markerWidth="10"
       markerHeight="8"
       orient="auto"
       fill="#000000"
       fill-opacity="0.1">
      <path
         fill-rule="evenodd"
         d="M 9,4 L 1,9 L 3,4 L 1,-1 Z "
         id="path158" />
    </marker>
    <marker
       id="defMarker"
       viewbox="0 0 10 8"
       refX="10"
       refY="4"
       markerUnits="strokeWidth"
       markerWidth="10"
       markerHeight="8"
       orient="auto"
       fill="#000000"
       fill-opacity="1">
      <path
         fill-rule="evenodd"
         d="M 9,4 L 1,9 L 3,4 L 1,-1 Z "
         id="path161" />
    </marker>
    <rect
       id="def14"
       width="69"
       height="45" />
    <clipPath
       id="def15">
      <use
         xlink:href="#def14"
         transform="translate(0,0)"
         id="use165" />
    </clipPath>
    <rect
       id="def16"
       width="68"
       height="45" />
    <clipPath
       id="def17">
      <use
         xlink:href="#def16"
         transform="translate(0,0)"
         id="use169" />
    </clipPath>
  </defs>
  <g
     id="g182">
    <rect
       x="30"
       y="30"
       width="700"
       height="350"
       rx="0"
       ry="0"
       style="fill:#FFFFFF;stroke:#000000;stroke-width:1px;stroke-linecap:butt;stroke-linejoin:miter;stroke-opacity:1"
       id="rect174" />
    <line
       x1="80"
       y1="30"
       x2="80"
       y2="380"
       style="stroke:#000000;stroke-width:1px;stroke-linecap:butt;stroke-linejoin:miter;stroke-opacity:1"
       id="line176" />
    <text
       style="font-family:'Segoe UI';font-size:8pt;font-weight:bold;fill:#000000;clip-path:url(#5c990473-bf79-44f5-90d9-16bace92a65eHeaderClipPath);"
       transform="rotate(-90 30 380)"
       clip-path="url(#5c990473-bf79-44f5-90d9-16bace92a65eHeaderClipPath)"
       id="text180">
      <tspan
         x="113.8863"
         y="409"
         id="tspan178">P5a - Select the Usability Evaluation</tspan>
    </text>
  </g>
  <use
     id="abefd2a7-c713-40ae-9236-383008f65742"
     xlink:href="#def3"
     class="style1"
     x="123"
     y="58" />
  <g
     id="abefd2a7-c713-40ae-9236-383008f65742Container"
     transform="translate(123,58) rotate(0,25,25)" />
  <use
     id="e186ec36-202d-4344-9150-3129d10e5ebb"
     xlink:href="#def5"
     class="style2"
     x="371"
     y="43" />
  <g
     id="e186ec36-202d-4344-9150-3129d10e5ebbContainer"
     transform="translate(371,43) rotate(0,25,25)">
    <text
       id="e186ec36-202d-4344-9150-3129d10e5ebbText"
       class="style3"
       clip-path="url(#def6)">
      <tspan
         x="7"
         y="25"
         id="tspan187">Select the type </tspan>
      <tspan
         x="11"
         y="39"
         id="tspan189">of Evaluation</tspan>
    </text>
  </g>
  <use
     id="e6076410-06c2-4d4d-9b6a-68f68a48bff4"
     xlink:href="#def7"
     class="style4"
     x="396"
     y="194" />
  <g
     id="e6076410-06c2-4d4d-9b6a-68f68a48bff4Container"
     transform="translate(396,194) rotate(0,25,25)" />
  <use
     id="dec10e91-f489-4c1c-9e14-e9c7c9dd59ec"
     xlink:href="#def5"
     class="style2"
     x="594"
     y="234" />
  <g
     id="dec10e91-f489-4c1c-9e14-e9c7c9dd59ecContainer"
     transform="translate(594,234) rotate(0,25,25)">
    <text
       id="dec10e91-f489-4c1c-9e14-e9c7c9dd59ecText"
       class="style5"
       clip-path="url(#def9)">
      <tspan
         x="22"
         y="25"
         id="tspan196">Heuristic </tspan>
      <tspan
         x="18"
         y="39"
         id="tspan198">Evaluation</tspan>
    </text>
  </g>
  <use
     id="e6074115-96cb-427b-88da-cabcc1fa95ab"
     xlink:href="#def3"
     class="style6"
     x="401"
     y="345" />
  <g
     id="e6074115-96cb-427b-88da-cabcc1fa95abContainer"
     transform="translate(401,345) rotate(0,25,25)" />
  <use
     id="7bc2d3da-d185-4f0f-80b8-5a22f9b4453d"
     xlink:href="#def5"
     class="style2"
     x="153"
     y="234" />
  <g
     id="7bc2d3da-d185-4f0f-80b8-5a22f9b4453dContainer"
     transform="translate(153,234) rotate(0,25,25)">
    <text
       id="7bc2d3da-d185-4f0f-80b8-5a22f9b4453dText"
       class="style7"
       clip-path="url(#def11)">
      <tspan
         x="23"
         y="25"
         id="tspan205">Usability </tspan>
      <tspan
         x="18"
         y="39"
         id="tspan207">Evaluation</tspan>
    </text>
  </g>
  <polyline
     id="c81b9aa4-d8f9-4242-8198-a02271d08803"
     style="stroke:#000000;fill:none;stroke-opacity:1;stroke-width:1;"
     points="208,0 208,54 207.9999,59.99997 207.9999,63.31369 205.3137,65.99997 202,65.99997 0,66 "
     marker-end="url(#defMarker)"
     transform="translate(431,294)" />
  <text
     x="639"
     y="358"
     style="font-family:'Segoe UI';font-size:8.25pt;fill:Black;"
     id="text212" />
  <polyline
     id="0eef1865-2d54-4fab-8ef9-d02da6a4e2a5"
     style="stroke:#000000;fill:none;stroke-opacity:1;stroke-width:1;"
     points="0,0 218,0 "
     marker-end="url(#defMarker)"
     transform="translate(153,73)" />
  <text
     x="262"
     y="71"
     style="font-family:'Segoe UI';font-size:8pt;fill:#000000;"
     id="text215" />
  <polyline
     id="dcc8877a-7349-40bc-9fee-61361fce62eb"
     style="stroke:#000000;fill:none;stroke-opacity:1;stroke-width:1;"
     points="0,0 0,91 "
     marker-end="url(#defMarker)"
     transform="translate(416,103)" />
  <text
     x="416"
     y="146.5"
     style="font-family:'Segoe UI';font-size:8pt;fill:#000000;"
     id="text218" />
  <polyline
     id="78ee5857-f805-4c75-b9b6-a0b0d59d4a90"
     style="stroke:#000000;fill:none;stroke-opacity:1;stroke-width:1;"
     points="198,1.525879E-05 12.00002,1.525879E-05 6,0 2.686295,1.525879E-05 0,2.68631 0,6.000015 1.525879E-05,20.00002 "
     marker-end="url(#defMarker)"
     transform="translate(198,214)" />
  <text
     x="198"
     y="212"
     style="font-family:'Segoe UI';font-size:8pt;fill:#000000;"
     id="text221" />
  <polyline
     id="14033fff-c640-4836-8e46-25bc9892567c"
     style="stroke:#000000;fill:none;stroke-opacity:1;stroke-dasharray:1,8;stroke-linecap=round;stroke-width:1;"
     points="639,294 639,294 "
     marker-end="url(#defMarker)"
     transform="translate(639,294)" />
  <text
     x="639"
     y="292"
     style="font-family:'Segoe UI';font-size:8pt;fill:#000000;"
     id="text224" />
  <polyline
     id="0d619813-7f42-4019-bde9-82fe8d3acfac"
     style="stroke:#000000;fill:none;stroke-opacity:1;stroke-width:1;"
     points="0,1.525879E-05 191,1.525879E-05 196.9999,1.525879E-05 200.3137,0 202.9999,2.686295 202.9999,6 202.9999,6 202.9999,6.000015 202.9999,6.000015 203,20.00002 "
     marker-end="url(#defMarker)"
     transform="translate(436,214)" />
  <text
     x="639"
     y="212"
     style="font-family:'Segoe UI';font-size:8pt;fill:#000000;"
     id="text227" />
  <polyline
     id="a55e0dd5-3109-4a8f-a503-8338cc49ea21"
     style="stroke:#000000;fill:none;stroke-opacity:1;stroke-width:1;"
     points="0,0 0,54 0,60 0,63.31369 2.686295,66 6,65.99997 203,66 "
     marker-end="url(#defMarker)"
     transform="translate(198,294)" />
  <text
     x="198"
     y="358"
     style="font-family:'Segoe UI';font-size:8.25pt;fill:Black;"
     id="text230" />
  <g
     id="Text_bdd03b05-e6e8-474f-a5b2-e2b4dc627814Container"
     transform="translate(521,180) rotate(0,25,25)">
    <text
       id="Text_bdd03b05-e6e8-474f-a5b2-e2b4dc627814Text"
       class="style9"
       clip-path="url(#def15)">
      <tspan
         x="7"
         y="14"
         id="tspan232">If Heuristic </tspan>
      <tspan
         x="7"
         y="29"
         id="tspan234">Evaluation</tspan>
    </text>
  </g>
  <g
     id="Text_d3b6f163-239c-4b8b-b85d-4cf8e0015a99Container"
     transform="translate(271,179) rotate(0,25,25)">
    <text
       id="Text_d3b6f163-239c-4b8b-b85d-4cf8e0015a99Text"
       class="style10"
       clip-path="url(#def17)">
      <tspan
         x="7"
         y="14"
         id="tspan238">If Usability </tspan>
      <tspan
         x="7"
         y="29"
         id="tspan240">Evaluation</tspan>
    </text>
  </g>
</svg>
