<?xml version="1.0" encoding="UTF-8" standalone="no"?>
<svg
   xmlns:dc="http://purl.org/dc/elements/1.1/"
   xmlns:cc="http://creativecommons.org/ns#"
   xmlns:rdf="http://www.w3.org/1999/02/22-rdf-syntax-ns#"
   xmlns:svg="http://www.w3.org/2000/svg"
   xmlns="http://www.w3.org/2000/svg"
   xmlns:xlink="http://www.w3.org/1999/xlink"
   xmlns:sodipodi="http://sodipodi.sourceforge.net/DTD/sodipodi-0.dtd"
   xmlns:inkscape="http://www.inkscape.org/namespaces/inkscape"
   width="1356"
   height="351"
   version="1.1"
   id="svg2324"
   sodipodi:docname="R1.svg"
   inkscape:version="0.92.4 (5da689c313, 2019-01-14)">
  <metadata
     id="metadata2328">
    <rdf:RDF>
      <cc:Work
         rdf:about="">
        <dc:format>image/svg+xml</dc:format>
        <dc:type
           rdf:resource="http://purl.org/dc/dcmitype/StillImage" />
        <dc:title></dc:title>
      </cc:Work>
    </rdf:RDF>
  </metadata>
  <sodipodi:namedview
     pagecolor="#ffffff"
     bordercolor="#666666"
     borderopacity="1"
     objecttolerance="10"
     gridtolerance="10"
     guidetolerance="10"
     inkscape:pageopacity="0"
     inkscape:pageshadow="2"
     inkscape:window-width="1680"
     inkscape:window-height="987"
     id="namedview2326"
     showgrid="false"
     inkscape:zoom="1.0854093"
     inkscape:cx="673"
     inkscape:cy="134"
     inkscape:window-x="-8"
     inkscape:window-y="-8"
     inkscape:window-maximized="1"
     inkscape:current-layer="svg2324"
     fit-margin-top="0"
     fit-margin-left="0"
     fit-margin-right="0"
     fit-margin-bottom="0" />
  <style
     type="text/css"
     id="style2135"><![CDATA[
	.style1{fill:#FFFFCC;stroke:#A6A61D;stroke-width:2;}
	.style2{fill:#EEAAAA;stroke:#990000;stroke-width:3;}
	.style3{fill:#ECEFFF;stroke:#03689A;stroke-width:2;}
	.style4{text-rendering:auto;font-family:'Segoe UI';font-size:8pt;fill:#000000;clip-path:url(#def8);}
	.style5{fill:#E6FF97;stroke:#62A716;stroke-width:2;}
	.style6{text-rendering:auto;font-family:'Segoe UI';font-size:8pt;fill:#000000;clip-path:url(#def12);}
	.style7{text-rendering:auto;font-family:'Segoe UI';font-size:8pt;fill:#000000;clip-path:url(#def14);}]]></style>
  <defs
     id="defs2182">
    <path
       id="bf06031b-31b9-4737-9b72-68006c963e24HeaderPath"
       d="m 30,380 h 350 v 50 H 30 Z"
       inkscape:connector-curvature="0"
       style="fill-rule:evenodd" />
    <clipPath
       id="1c3027a7-72ba-4c5b-adef-c786022bef90HeaderClipPath">
      <use
         xlink:href="#bf06031b-31b9-4737-9b72-68006c963e24HeaderPath"
         id="use2138"
         x="0"
         y="0"
         width="100%"
         height="100%" />
    </clipPath>
    <polygon
       id="def3"
       points="20,0 40,20 20,40 0,20 " />
    <clipPath
       id="def4">
      <use
         xlink:href="#def3"
         id="use2142"
         x="0"
         y="0"
         width="100%"
         height="100%" />
    </clipPath>
    <circle
       id="def5"
       cx="15"
       cy="15"
       r="15" />
    <clipPath
       id="def6">
      <use
         xlink:href="#def5"
         id="use2146"
         x="0"
         y="0"
         width="100%"
         height="100%" />
    </clipPath>
    <path
       id="def7"
       d="m 7,0 h 112 v 0 c 3.87,0 7,3.13 7,7 0,0 0,0 0,0 v 0 72 0 c 0,3.87 -3.13,7 -7,7 v 0 H 7 v 0 C 3.13,86 0,82.87 0,79 V 7 7 C 0,3.13 3.13,0 7,0 Z"
       inkscape:connector-curvature="0"
       style="fill-rule:evenodd" />
    <clipPath
       id="def8">
      <use
         xlink:href="#def7"
         id="use2150"
         x="0"
         y="0"
         width="100%"
         height="100%" />
    </clipPath>
    <clipPath
       id="def9">
      <use
         xlink:href="#def5"
         id="use2153"
         x="0"
         y="0"
         width="100%"
         height="100%" />
    </clipPath>
    <clipPath
       id="def10">
      <use
         xlink:href="#def3"
         id="use2156"
         x="0"
         y="0"
         width="100%"
         height="100%" />
    </clipPath>
    <path
       id="def11"
       d="m 7,0 h 94 v 0 c 3.87,0 7,3.13 7,7 0,0 0,0 0,0 v 0 46 0 c 0,3.87 -3.13,7 -7,7 v 0 H 7 v 0 C 3.13,60 0,56.87 0,53 V 53 7 7 C 0,3.13 3.13,0 7,0 Z"
       inkscape:connector-curvature="0"
       style="fill-rule:evenodd" />
    <clipPath
       id="def12">
      <use
         xlink:href="#def11"
         id="use2160"
         x="0"
         y="0"
         width="100%"
         height="100%" />
    </clipPath>
    <path
       id="def13"
       d="m 7,0 h 93 v 0 c 3.87,0 7,3.13 7,7 0,0 0,0 0,0 v 0 58 0 c 0,3.87 -3.13,7 -7,7 v 0 H 7 v 0 C 3.13,72 0,68.87 0,65 V 7 7 C 0,3.13 3.13,0 7,0 Z"
       inkscape:connector-curvature="0"
       style="fill-rule:evenodd" />
    <clipPath
       id="def14">
      <use
         xlink:href="#def13"
         id="use2164"
         x="0"
         y="0"
         width="100%"
         height="100%" />
    </clipPath>
    <clipPath
       id="def15">
      <use
         xlink:href="#def3"
         id="use2167"
         x="0"
         y="0"
         width="100%"
         height="100%" />
    </clipPath>
    <clipPath
       id="def16">
      <use
         xlink:href="#def3"
         id="use2170"
         x="0"
         y="0"
         width="100%"
         height="100%" />
    </clipPath>
    <clipPath
       id="def17">
      <use
         xlink:href="#def3"
         id="use2173"
         x="0"
         y="0"
         width="100%"
         height="100%" />
    </clipPath>
    <marker
       id="defMarkerShadow"
       viewbox="0 0 10 8"
       refX="10"
       refY="4"
       markerUnits="strokeWidth"
       markerWidth="10"
       markerHeight="8"
       orient="auto"
       style="fill:#000000;fill-opacity:0.1">
      <path
         d="M 9,4 1,9 3,4 1,-1 Z"
         id="path2176"
         inkscape:connector-curvature="0"
         style="fill-rule:evenodd" />
    </marker>
    <marker
       id="defMarker"
       viewbox="0 0 10 8"
       refX="10"
       refY="4"
       markerUnits="strokeWidth"
       markerWidth="10"
       markerHeight="8"
       orient="auto"
       style="fill:#000000;fill-opacity:1">
      <path
         d="M 9,4 1,9 3,4 1,-1 Z"
         id="path2179"
         inkscape:connector-curvature="0"
         style="fill-rule:evenodd" />
    </marker>
  </defs>
  <g
     id="g2192"
     transform="translate(-29.5,-29.5)">
    <rect
       x="30"
       y="30"
       width="1355"
       height="350"
       rx="0"
       ry="0"
       style="fill:#ffffff;stroke:#000000;stroke-width:1px;stroke-linecap:butt;stroke-linejoin:miter;stroke-opacity:1"
       id="rect2184" />
    <line
       x1="80"
       y1="30"
       x2="80"
       y2="380"
       style="stroke:#000000;stroke-width:1px;stroke-linecap:butt;stroke-linejoin:miter;stroke-opacity:1"
       id="line2186" />
    <text
       style="font-weight:bold;font-size:10.66666698px;font-family:'Segoe UI';fill:#000000"
       transform="rotate(-90,30,380)"
       clip-path="url(#1c3027a7-72ba-4c5b-adef-c786022bef90HeaderClipPath)"
       id="text2190">
      <tspan
         x="129.05299"
         y="409"
         id="tspan2188">R1 - Report Evaluator Profiles</tspan>
    </text>
  </g>
  <use
     id="4688a51e-b052-4bc9-b9d4-91a61225da0d"
     xlink:href="#def3"
     class="style1"
     x="873"
     y="297"
     style="fill:#ffffcc;stroke:#a6a61d;stroke-width:2"
     width="100%"
     height="100%"
     transform="translate(-29.5,-29.5)" />
  <g
     id="4688a51e-b052-4bc9-b9d4-91a61225da0dContainer"
     transform="translate(843.5,267.5)" />
  <g
     id="g2202"
     transform="translate(-29.5,-29.5)">
    <path
       style="fill:#a6a61d;stroke:#a6a61d;stroke-width:1px;stroke-linecap:butt;stroke-linejoin:miter;stroke-opacity:1"
       d="m 14.288518,6.459273 h 3.036311 v 8.930324 h 8.037291 v 3.214917 h -8.037291 v 7.947988 H 14.288518 V 18.604514 H 5.2688912 v -3.214917 h 9.0196268 z"
       transform="translate(877.5,301)"
       id="path2196"
       inkscape:connector-curvature="0" />
    <path
       style="fill:#a6a61d;stroke:#a6a61d;stroke-width:1px;stroke-linecap:butt;stroke-linejoin:miter;stroke-opacity:1"
       d="M 7.3228657,10.969087 9.5107951,8.959764 24.201178,22.489205 21.968597,24.587831 Z"
       transform="translate(877.5,301)"
       id="path2198"
       inkscape:connector-curvature="0" />
    <path
       style="fill:#a6a61d;stroke:#a6a61d;stroke-width:1px;stroke-linecap:butt;stroke-linejoin:miter;stroke-opacity:1"
       d="M 21.968597,8.959764 24.201178,10.969087 9.5107951,24.587831 7.3228657,22.489205 Z"
       transform="translate(877.5,301)"
       id="path2200"
       inkscape:connector-curvature="0" />
  </g>
  <use
     id="bcac04c2-3ae7-43b2-9bb3-6b7074da0d40"
     xlink:href="#def5"
     class="style2"
     x="1253"
     y="181"
     style="fill:#eeaaaa;stroke:#990000;stroke-width:3"
     width="100%"
     height="100%"
     transform="translate(-29.5,-29.5)" />
  <g
     id="bcac04c2-3ae7-43b2-9bb3-6b7074da0d40Container"
     transform="translate(1223.5,151.5)" />
  <use
     id="fc6aa21d-9ea4-4356-8748-7376358a63a2"
     xlink:href="#def7"
     class="style3"
     x="1004"
     y="153"
     style="fill:#ecefff;stroke:#03689a;stroke-width:2"
     width="100%"
     height="100%"
     transform="translate(-29.5,-29.5)" />
  <g
     id="fc6aa21d-9ea4-4356-8748-7376358a63a2Container"
     transform="translate(974.5,123.5)">
    <text
       id="fc6aa21d-9ea4-4356-8748-7376358a63a2Text"
       class="style4"
       clip-path="url(#def8)"
       style="font-size:10.66666698px;font-family:'Segoe UI';fill:#000000;text-rendering:auto">
      <tspan
         x="63"
         y="16"
         id="tspan2207" />
      <tspan
         x="18"
         y="31"
         id="tspan2209">R1c - Report total</tspan>
      <tspan
         x="9"
         y="45"
         id="tspan2211">number of participants</tspan>
      <tspan
         x="18"
         y="59"
         id="tspan2213">who performed the</tspan>
      <tspan
         x="36"
         y="73"
         id="tspan2215">evaluation</tspan>
    </text>
  </g>
  <use
     id="17b9f7f6-60b7-4a5f-a31c-655b11f2824b"
     xlink:href="#def5"
     class="style5"
     x="141"
     y="181"
     style="fill:#e6ff97;stroke:#62a716;stroke-width:2"
     width="100%"
     height="100%"
     transform="translate(-29.5,-29.5)" />
  <g
     id="17b9f7f6-60b7-4a5f-a31c-655b11f2824bContainer"
     transform="translate(111.5,151.5)" />
  <use
     id="24242369-5932-4ffc-ac83-3e7768fcb932"
     xlink:href="#def3"
     class="style1"
     x="583"
     y="176"
     style="fill:#ffffcc;stroke:#a6a61d;stroke-width:2"
     width="100%"
     height="100%"
     transform="translate(-29.5,-29.5)" />
  <g
     id="24242369-5932-4ffc-ac83-3e7768fcb932Container"
     transform="translate(553.5,146.5)" />
  <g
     id="g2229"
     transform="translate(-29.5,-29.5)">
    <path
       style="fill:#a6a61d;stroke:#a6a61d;stroke-width:1px;stroke-linecap:butt;stroke-linejoin:miter;stroke-opacity:1"
       d="m 14.288518,6.459273 h 3.036311 v 8.930324 h 8.037291 v 3.214917 h -8.037291 v 7.947988 H 14.288518 V 18.604514 H 5.2688912 v -3.214917 h 9.0196268 z"
       transform="translate(587.5,180)"
       id="path2223"
       inkscape:connector-curvature="0" />
    <path
       style="fill:#a6a61d;stroke:#a6a61d;stroke-width:1px;stroke-linecap:butt;stroke-linejoin:miter;stroke-opacity:1"
       d="M 7.3228657,10.969087 9.5107951,8.959764 24.201178,22.489205 21.968597,24.587831 Z"
       transform="translate(587.5,180)"
       id="path2225"
       inkscape:connector-curvature="0" />
    <path
       style="fill:#a6a61d;stroke:#a6a61d;stroke-width:1px;stroke-linecap:butt;stroke-linejoin:miter;stroke-opacity:1"
       d="M 21.968597,8.959764 24.201178,10.969087 9.5107951,24.587831 7.3228657,22.489205 Z"
       transform="translate(587.5,180)"
       id="path2227"
       inkscape:connector-curvature="0" />
  </g>
  <use
     id="5ce68833-e0e3-4c73-a4e4-2035594982b5"
     xlink:href="#def11"
     class="style3"
     x="297"
     y="166"
     style="fill:#ecefff;stroke:#03689a;stroke-width:2"
     width="100%"
     height="100%"
     transform="translate(-29.5,-29.5)" />
  <g
     id="5ce68833-e0e3-4c73-a4e4-2035594982b5Container"
     transform="translate(267.5,136.5)">
    <text
       id="5ce68833-e0e3-4c73-a4e4-2035594982b5Text"
       class="style6"
       clip-path="url(#def12)"
       style="font-size:10.66666698px;font-family:'Segoe UI';fill:#000000;text-rendering:auto">
      <tspan
         x="13"
         y="18"
         id="tspan2232">R1a - Reporting</tspan>
      <tspan
         x="9"
         y="32"
         id="tspan2234">the classification of</tspan>
      <tspan
         x="23"
         y="46"
         id="tspan2236">the subjects</tspan>
    </text>
  </g>
  <use
     id="f54b029d-cafd-45c8-a6c0-69fadd6d9045"
     xlink:href="#def13"
     class="style3"
     x="702"
     y="160"
     style="fill:#ecefff;stroke:#03689a;stroke-width:2"
     width="100%"
     height="100%"
     transform="translate(-29.5,-29.5)" />
  <g
     id="f54b029d-cafd-45c8-a6c0-69fadd6d9045Container"
     transform="translate(672.5,130.5)">
    <text
       id="f54b029d-cafd-45c8-a6c0-69fadd6d9045Text"
       class="style7"
       clip-path="url(#def14)"
       style="font-size:10.66666698px;font-family:'Segoe UI';fill:#000000;text-rendering:auto">
      <tspan
         x="0"
         y="9"
         id="tspan2241" />
      <tspan
         x="14"
         y="16"
         id="tspan2243">R1b - Report the</tspan>
      <tspan
         x="9"
         y="31"
         id="tspan2245">Characterization of</tspan>
      <tspan
         x="11"
         y="45"
         id="tspan2247">Participants in the</tspan>
      <tspan
         x="26"
         y="59"
         id="tspan2249">Evaluation</tspan>
    </text>
  </g>
  <use
     id="6bd6d6ae-4a34-48e0-9b01-5faabcb06092"
     xlink:href="#def3"
     class="style1"
     x="735"
     y="297"
     style="fill:#ffffcc;stroke:#a6a61d;stroke-width:2"
     width="100%"
     height="100%"
     transform="translate(-29.5,-29.5)" />
  <g
     id="6bd6d6ae-4a34-48e0-9b01-5faabcb06092Container"
     transform="translate(705.5,267.5)" />
  <g
     id="g2261"
     transform="translate(-29.5,-29.5)">
    <path
       style="fill:#a6a61d;stroke:#a6a61d;stroke-width:1px;stroke-linecap:butt;stroke-linejoin:miter;stroke-opacity:1"
       d="m 14.288518,6.459273 h 3.036311 v 8.930324 h 8.037291 v 3.214917 h -8.037291 v 7.947988 H 14.288518 V 18.604514 H 5.2688912 v -3.214917 h 9.0196268 z"
       transform="translate(739.5,301)"
       id="path2255"
       inkscape:connector-curvature="0" />
    <path
       style="fill:#a6a61d;stroke:#a6a61d;stroke-width:1px;stroke-linecap:butt;stroke-linejoin:miter;stroke-opacity:1"
       d="M 7.3228657,10.969087 9.5107951,8.959764 24.201178,22.489205 21.968597,24.587831 Z"
       transform="translate(739.5,301)"
       id="path2257"
       inkscape:connector-curvature="0" />
    <path
       style="fill:#a6a61d;stroke:#a6a61d;stroke-width:1px;stroke-linecap:butt;stroke-linejoin:miter;stroke-opacity:1"
       d="M 21.968597,8.959764 24.201178,10.969087 9.5107951,24.587831 7.3228657,22.489205 Z"
       transform="translate(739.5,301)"
       id="path2259"
       inkscape:connector-curvature="0" />
  </g>
  <use
     id="418e17e1-2c0f-4e12-abba-b84479063ca7"
     xlink:href="#def3"
     class="style1"
     x="1176"
     y="176"
     style="fill:#ffffcc;stroke:#a6a61d;stroke-width:2"
     width="100%"
     height="100%"
     transform="translate(-29.5,-29.5)" />
  <g
     id="418e17e1-2c0f-4e12-abba-b84479063ca7Container"
     transform="translate(1146.5,146.5)" />
  <g
     id="g2271"
     transform="translate(-29.5,-29.5)">
    <path
       style="fill:#a6a61d;stroke:#a6a61d;stroke-width:1px;stroke-linecap:butt;stroke-linejoin:miter;stroke-opacity:1"
       d="m 14.288518,6.459273 h 3.036311 v 8.930324 h 8.037291 v 3.214917 h -8.037291 v 7.947988 H 14.288518 V 18.604514 H 5.2688912 v -3.214917 h 9.0196268 z"
       transform="translate(1180.5,180)"
       id="path2265"
       inkscape:connector-curvature="0" />
    <path
       style="fill:#a6a61d;stroke:#a6a61d;stroke-width:1px;stroke-linecap:butt;stroke-linejoin:miter;stroke-opacity:1"
       d="M 7.3228657,10.969087 9.5107951,8.959764 24.201178,22.489205 21.968597,24.587831 Z"
       transform="translate(1180.5,180)"
       id="path2267"
       inkscape:connector-curvature="0" />
    <path
       style="fill:#a6a61d;stroke:#a6a61d;stroke-width:1px;stroke-linecap:butt;stroke-linejoin:miter;stroke-opacity:1"
       d="M 21.968597,8.959764 24.201178,10.969087 9.5107951,24.587831 7.3228657,22.489205 Z"
       transform="translate(1180.5,180)"
       id="path2269"
       inkscape:connector-curvature="0" />
  </g>
  <use
     id="0e0fa9d3-d428-4ef6-aa1b-185cdf066cd5"
     xlink:href="#def3"
     class="style1"
     x="873"
     y="176"
     style="fill:#ffffcc;stroke:#a6a61d;stroke-width:2"
     width="100%"
     height="100%"
     transform="translate(-29.5,-29.5)" />
  <g
     id="0e0fa9d3-d428-4ef6-aa1b-185cdf066cd5Container"
     transform="translate(843.5,146.5)" />
  <g
     id="g2281"
     transform="translate(-29.5,-29.5)">
    <path
       style="fill:#a6a61d;stroke:#a6a61d;stroke-width:1px;stroke-linecap:butt;stroke-linejoin:miter;stroke-opacity:1"
       d="m 14.288518,6.459273 h 3.036311 v 8.930324 h 8.037291 v 3.214917 h -8.037291 v 7.947988 H 14.288518 V 18.604514 H 5.2688912 v -3.214917 h 9.0196268 z"
       transform="translate(877.5,180)"
       id="path2275"
       inkscape:connector-curvature="0" />
    <path
       style="fill:#a6a61d;stroke:#a6a61d;stroke-width:1px;stroke-linecap:butt;stroke-linejoin:miter;stroke-opacity:1"
       d="M 7.3228657,10.969087 9.5107951,8.959764 24.201178,22.489205 21.968597,24.587831 Z"
       transform="translate(877.5,180)"
       id="path2277"
       inkscape:connector-curvature="0" />
    <path
       style="fill:#a6a61d;stroke:#a6a61d;stroke-width:1px;stroke-linecap:butt;stroke-linejoin:miter;stroke-opacity:1"
       d="M 21.968597,8.959764 24.201178,10.969087 9.5107951,24.587831 7.3228657,22.489205 Z"
       transform="translate(877.5,180)"
       id="path2279"
       inkscape:connector-curvature="0" />
  </g>
  <polyline
     id="2b5e0067-c95b-41d3-867a-2b52ce5d5245"
     style="fill:none;stroke:#000000;stroke-width:1;stroke-opacity:1;marker-end:url(#defMarker)"
     points="98,0 0,0 "
     transform="translate(745.5,287.5)" />
  <text
     x="794.5"
     y="285.5"
     style="font-size:10.66666698px;font-family:'Segoe UI';fill:#000000"
     id="text2284" />
  <polyline
     id="a81aa3c2-62c5-4dc6-a066-449a9933b164"
     style="fill:none;stroke:#000000;stroke-width:1;stroke-opacity:1;marker-end:url(#defMarker)"
     points="0,0 126,0 "
     transform="translate(141.5,166.5)" />
  <text
     x="204.5"
     y="164.5"
     style="font-size:10.66666698px;font-family:'Segoe UI';fill:#000000"
     id="text2287" />
  <polyline
     id="6e67a740-a698-4d90-8759-2072f401b7ab"
     style="fill:none;stroke:#000000;stroke-width:1;stroke-opacity:1;marker-end:url(#defMarker)"
     points="252,53.00001 252,12.00001 252,5.999992 252,2.686295 249.3137,0 246,0 246,0 246,7.629395E-06 246,7.629395E-06 12.00003,7.629395E-06 6,0 2.68631,7.629395E-06 0,2.686302 0,6.000008 3.051758E-05,43.00001 "
     transform="translate(321.5,93.5)" />
  <text
     x="447.5"
     y="91.5"
     style="font-size:10.66666698px;font-family:'Segoe UI';fill:#000000"
     id="text2290" />
  <polyline
     id="1a02643a-176e-4eb1-84b9-7346ca59b63c"
     style="fill:none;stroke:#000000;stroke-width:1;stroke-opacity:1;marker-end:url(#defMarker)"
     points="0,0 91,0 "
     transform="translate(883.5,166.5)" />
  <text
     x="929"
     y="164.5"
     style="font-size:10.66666698px;font-family:'Segoe UI';fill:#000000"
     id="text2293" />
  <polyline
     id="af41a26b-600e-4bbd-8907-40615660dee0"
     style="fill:none;stroke:#000000;stroke-width:1;stroke-opacity:1;marker-end:url(#defMarker)"
     points="0,0 64,0 "
     transform="translate(779.5,166.5)" />
  <text
     x="811.5"
     y="164.5"
     style="font-size:10.66666698px;font-family:'Segoe UI';fill:#000000"
     id="text2296" />
  <polyline
     id="d684743f-73d6-4fa6-aa01-137965354872"
     style="fill:none;stroke:#000000;stroke-width:1;stroke-opacity:1;marker-end:url(#defMarker)"
     points="0,0 37,0 "
     transform="translate(1186.5,166.5)" />
  <text
     x="1205"
     y="164.5"
     style="font-size:10.66666698px;font-family:'Segoe UI';fill:#000000"
     id="text2299" />
  <polyline
     id="a7442c4a-a23f-45dd-b778-47a99051b652"
     style="fill:none;stroke:#000000;stroke-width:1;stroke-opacity:1;marker-end:url(#defMarker)"
     points="384,91 12,91 6,90.99997 2.686279,91 0,88.31369 0,85 0,0 "
     transform="translate(321.5,196.5)" />
  <text
     x="321.5"
     y="285.5"
     style="font-size:10.66666698px;font-family:'Segoe UI';fill:#000000"
     id="text2302" />
  <polyline
     id="bc2bfdda-7051-489f-9bfc-ab8b8c480fbc"
     style="fill:none;stroke:#000000;stroke-width:1;stroke-opacity:1;marker-end:url(#defMarker)"
     points="283,0 283,89 282.9999,94.99997 282.9999,98.31369 280.3136,101 277,101 0,101 "
     transform="translate(883.5,186.5)" />
  <text
     x="1166.5"
     y="285.5"
     style="font-size:10.66666698px;font-family:'Segoe UI';fill:#000000"
     id="text2305" />
  <polyline
     id="d7a80eaf-4677-454e-9536-92fdfd2a7db4"
     style="fill:none;stroke:#000000;stroke-width:1;stroke-opacity:1;marker-end:url(#defMarker)"
     points="0,65 0,0 "
     transform="translate(725.5,202.5)" />
  <text
     x="725.5"
     y="233"
     style="font-size:10.66666698px;font-family:'Segoe UI';fill:#000000"
     id="text2308" />
  <polyline
     id="7a32a7b7-2f24-403f-9d19-fd6e6f8825fd"
     style="fill:none;stroke:#000000;stroke-width:1;stroke-opacity:1;marker-end:url(#defMarker)"
     points="0,0 46,0 "
     transform="translate(1100.5,166.5)" />
  <text
     x="1123.5"
     y="164.5"
     style="font-size:10.66666698px;font-family:'Segoe UI';fill:#000000"
     id="text2311" />
  <polyline
     id="884d4351-de05-4485-8af5-b4373bb09483"
     style="fill:none;stroke:#000000;stroke-width:1;stroke-opacity:1;marker-end:url(#defMarker)"
     points="0,0 79,0 "
     transform="translate(593.5,166.5)" />
  <text
     x="633"
     y="164.5"
     style="font-size:10.66666698px;font-family:'Segoe UI';fill:#000000"
     id="text2314" />
  <polyline
     id="e4086f19-a4fe-4953-9353-3a2a1493286f"
     style="fill:none;stroke:#000000;stroke-width:1;stroke-opacity:1;marker-end:url(#defMarker)"
     points="0,0 178,0 "
     transform="translate(375.5,166.5)" />
  <text
     x="464.5"
     y="164.5"
     style="font-size:10.66666698px;font-family:'Segoe UI';fill:#000000"
     id="text2317" />
  <polyline
     id="da8cee87-c929-4d9b-a1d2-02044d35ee5d"
     style="fill:none;stroke:#000000;stroke-width:1;stroke-opacity:1;marker-end:url(#defMarker)"
     points="0,0 0,81 "
     transform="translate(863.5,186.5)" />
  <text
     x="863.5"
     y="225"
     style="font-size:10.66666698px;font-family:'Segoe UI';fill:#000000"
     id="text2320" />
</svg>
