<?xml version="1.0" encoding="UTF-8" standalone="no"?>
<svg
   xmlns:dc="http://purl.org/dc/elements/1.1/"
   xmlns:cc="http://creativecommons.org/ns#"
   xmlns:rdf="http://www.w3.org/1999/02/22-rdf-syntax-ns#"
   xmlns:svg="http://www.w3.org/2000/svg"
   xmlns="http://www.w3.org/2000/svg"
   xmlns:xlink="http://www.w3.org/1999/xlink"
   xmlns:sodipodi="http://sodipodi.sourceforge.net/DTD/sodipodi-0.dtd"
   xmlns:inkscape="http://www.inkscape.org/namespaces/inkscape"
   width="1285"
   height="338"
   version="1.1"
   id="svg3010"
   sodipodi:docname="R4.svg"
   inkscape:version="0.92.4 (5da689c313, 2019-01-14)">
  <metadata
     id="metadata3014">
    <rdf:RDF>
      <cc:Work
         rdf:about="">
        <dc:format>image/svg+xml</dc:format>
        <dc:type
           rdf:resource="http://purl.org/dc/dcmitype/StillImage" />
        <dc:title></dc:title>
      </cc:Work>
    </rdf:RDF>
  </metadata>
  <sodipodi:namedview
     pagecolor="#ffffff"
     bordercolor="#666666"
     borderopacity="1"
     objecttolerance="10"
     gridtolerance="10"
     guidetolerance="10"
     inkscape:pageopacity="0"
     inkscape:pageshadow="2"
     inkscape:window-width="1680"
     inkscape:window-height="987"
     id="namedview3012"
     showgrid="false"
     fit-margin-top="0"
     fit-margin-left="0"
     fit-margin-right="0"
     fit-margin-bottom="0"
     inkscape:zoom="1.1667942"
     inkscape:cx="651"
     inkscape:cy="134.5"
     inkscape:window-x="-8"
     inkscape:window-y="-8"
     inkscape:window-maximized="1"
     inkscape:current-layer="svg3010" />
  <style
     type="text/css"
     id="style2823"><![CDATA[
	.style1{fill:#E6FF97;stroke:#62A716;stroke-width:2;}
	.style2{fill:#FFFFCC;stroke:#A6A61D;stroke-width:2;}
	.style3{fill:#ECEFFF;stroke:#03689A;stroke-width:2;}
	.style4{text-rendering:auto;font-family:'Segoe UI';font-size:8pt;fill:#000000;clip-path:url(#def8);}
	.style5{text-rendering:auto;font-family:'Segoe UI';font-size:8pt;fill:#000000;clip-path:url(#def12);}
	.style6{text-rendering:auto;font-family:'Segoe UI';font-size:8pt;fill:#000000;clip-path:url(#def15);}
	.style7{fill:#EEAAAA;stroke:#990000;stroke-width:3;}]]></style>
  <defs
     id="defs2870">
    <path
       id="d88e782b-e9bc-402f-af3f-b1e986413bbdHeaderPath"
       d="m 3,381 h 337 v 50 H 3 Z"
       inkscape:connector-curvature="0"
       style="fill-rule:evenodd" />
    <clipPath
       id="0f3aa2f4-24f8-4c2f-a222-56828f246a36HeaderClipPath">
      <use
         xlink:href="#d88e782b-e9bc-402f-af3f-b1e986413bbdHeaderPath"
         id="use2826"
         x="0"
         y="0"
         width="100%"
         height="100%" />
    </clipPath>
    <circle
       id="def3"
       cx="15"
       cy="15"
       r="15" />
    <clipPath
       id="def4">
      <use
         xlink:href="#def3"
         id="use2830"
         x="0"
         y="0"
         width="100%"
         height="100%" />
    </clipPath>
    <polygon
       id="def5"
       points="20,0 40,20 20,40 0,20 " />
    <clipPath
       id="def6">
      <use
         xlink:href="#def5"
         id="use2834"
         x="0"
         y="0"
         width="100%"
         height="100%" />
    </clipPath>
    <path
       id="def7"
       d="m 7,0 h 94 v 0 c 3.87,0 7,3.13 7,7 0,0 0,0 0,0 v 0 58 0 c 0,3.87 -3.13,7 -7,7 v 0 H 7 v 0 C 3.13,72 0,68.87 0,65 V 7 7 C 0,3.13 3.13,0 7,0 Z"
       inkscape:connector-curvature="0"
       style="fill-rule:evenodd" />
    <clipPath
       id="def8">
      <use
         xlink:href="#def7"
         id="use2838"
         x="0"
         y="0"
         width="100%"
         height="100%" />
    </clipPath>
    <clipPath
       id="def9">
      <use
         xlink:href="#def5"
         id="use2841"
         x="0"
         y="0"
         width="100%"
         height="100%" />
    </clipPath>
    <clipPath
       id="def10">
      <use
         xlink:href="#def5"
         id="use2844"
         x="0"
         y="0"
         width="100%"
         height="100%" />
    </clipPath>
    <path
       id="def11"
       d="m 7,0 h 76 v 0 c 3.87,0 7,3.13 7,7 0,0 0,0 0,0 v 0 46 0 c 0,3.87 -3.13,7 -7,7 v 0 H 7 v 0 C 3.13,60 0,56.87 0,53 V 53 7 7 C 0,3.13 3.13,0 7,0 Z"
       inkscape:connector-curvature="0"
       style="fill-rule:evenodd" />
    <clipPath
       id="def12">
      <use
         xlink:href="#def11"
         id="use2848"
         x="0"
         y="0"
         width="100%"
         height="100%" />
    </clipPath>
    <clipPath
       id="def13">
      <use
         xlink:href="#def5"
         id="use2851"
         x="0"
         y="0"
         width="100%"
         height="100%" />
    </clipPath>
    <path
       id="def14"
       d="m 7,0 h 90 v 0 c 3.87,0 7,3.13 7,7 0,0 0,0 0,0 v 0 58 0 c 0,3.87 -3.13,7 -7,7 v 0 H 7 v 0 C 3.13,72 0,68.87 0,65 V 7 7 C 0,3.13 3.13,0 7,0 Z"
       inkscape:connector-curvature="0"
       style="fill-rule:evenodd" />
    <clipPath
       id="def15">
      <use
         xlink:href="#def14"
         id="use2855"
         x="0"
         y="0"
         width="100%"
         height="100%" />
    </clipPath>
    <clipPath
       id="def16">
      <use
         xlink:href="#def5"
         id="use2858"
         x="0"
         y="0"
         width="100%"
         height="100%" />
    </clipPath>
    <clipPath
       id="def17">
      <use
         xlink:href="#def3"
         id="use2861"
         x="0"
         y="0"
         width="100%"
         height="100%" />
    </clipPath>
    <marker
       id="defMarkerShadow"
       viewbox="0 0 10 8"
       refX="10"
       refY="4"
       markerUnits="strokeWidth"
       markerWidth="10"
       markerHeight="8"
       orient="auto"
       style="fill:#000000;fill-opacity:0.1">
      <path
         d="M 9,4 1,9 3,4 1,-1 Z"
         id="path2864"
         inkscape:connector-curvature="0"
         style="fill-rule:evenodd" />
    </marker>
    <marker
       id="defMarker"
       viewbox="0 0 10 8"
       refX="10"
       refY="4"
       markerUnits="strokeWidth"
       markerWidth="10"
       markerHeight="8"
       orient="auto"
       style="fill:#000000;fill-opacity:1">
      <path
         d="M 9,4 1,9 3,4 1,-1 Z"
         id="path2867"
         inkscape:connector-curvature="0"
         style="fill-rule:evenodd" />
    </marker>
  </defs>
  <g
     id="g2880"
     transform="translate(-2.5,-43.5)">
    <rect
       x="3"
       y="44"
       width="1284"
       height="337"
       rx="0"
       ry="0"
       style="fill:#ffffff;stroke:#000000;stroke-width:1px;stroke-linecap:butt;stroke-linejoin:miter;stroke-opacity:1"
       id="rect2872" />
    <line
       x1="53"
       y1="44"
       x2="53"
       y2="381"
       style="stroke:#000000;stroke-width:1px;stroke-linecap:butt;stroke-linejoin:miter;stroke-opacity:1"
       id="line2874" />
    <text
       style="font-weight:bold;font-size:10.66666698px;font-family:'Segoe UI';fill:#000000"
       transform="rotate(-90,3,381)"
       clip-path="url(#0f3aa2f4-24f8-4c2f-a222-56828f246a36HeaderClipPath)"
       id="text2878">
      <tspan
         x="79.037354"
         y="410"
         id="tspan2876">R4 - Report the Developed Protocol</tspan>
    </text>
  </g>
  <use
     id="afc5e77c-aaa2-4356-beea-e119a7d92cae"
     xlink:href="#def3"
     class="style1"
     x="113"
     y="182"
     style="fill:#e6ff97;stroke:#62a716;stroke-width:2"
     width="100%"
     height="100%"
     transform="translate(-2.5,-43.5)" />
  <g
     id="afc5e77c-aaa2-4356-beea-e119a7d92caeContainer"
     transform="translate(110.5,138.5)" />
  <use
     id="7e515427-d35d-42e1-9713-dfa41525cf25"
     xlink:href="#def5"
     class="style2"
     x="484"
     y="177"
     style="fill:#ffffcc;stroke:#a6a61d;stroke-width:2"
     width="100%"
     height="100%"
     transform="translate(-2.5,-43.5)" />
  <g
     id="7e515427-d35d-42e1-9713-dfa41525cf25Container"
     transform="translate(481.5,133.5)" />
  <g
     id="g2892"
     transform="translate(-2.5,-43.5)">
    <path
       style="fill:#a6a61d;stroke:#a6a61d;stroke-width:1px;stroke-linecap:butt;stroke-linejoin:miter;stroke-opacity:1"
       d="m 14.288518,6.459273 h 3.036311 v 8.930324 h 8.037291 v 3.214917 h -8.037291 v 7.947988 H 14.288518 V 18.604514 H 5.2688912 v -3.214917 h 9.0196268 z"
       transform="translate(488.5,181)"
       id="path2886"
       inkscape:connector-curvature="0" />
    <path
       style="fill:#a6a61d;stroke:#a6a61d;stroke-width:1px;stroke-linecap:butt;stroke-linejoin:miter;stroke-opacity:1"
       d="M 7.3228657,10.969087 9.5107951,8.959764 24.201178,22.489205 21.968597,24.587831 Z"
       transform="translate(488.5,181)"
       id="path2888"
       inkscape:connector-curvature="0" />
    <path
       style="fill:#a6a61d;stroke:#a6a61d;stroke-width:1px;stroke-linecap:butt;stroke-linejoin:miter;stroke-opacity:1"
       d="M 21.968597,8.959764 24.201178,10.969087 9.5107951,24.587831 7.3228657,22.489205 Z"
       transform="translate(488.5,181)"
       id="path2890"
       inkscape:connector-curvature="0" />
  </g>
  <use
     id="b662c873-2f90-421c-bcd6-6e7a6eb3b366"
     xlink:href="#def7"
     class="style3"
     x="271"
     y="161"
     style="fill:#ecefff;stroke:#03689a;stroke-width:2"
     width="100%"
     height="100%"
     transform="translate(-2.5,-43.5)" />
  <g
     id="b662c873-2f90-421c-bcd6-6e7a6eb3b366Container"
     transform="translate(268.5,117.5)">
    <text
       id="b662c873-2f90-421c-bcd6-6e7a6eb3b366Text"
       class="style4"
       clip-path="url(#def8)"
       style="font-size:10.66666698px;font-family:'Segoe UI';fill:#000000;text-rendering:auto">
      <tspan
         x="0"
         y="9"
         id="tspan2895" />
      <tspan
         x="7"
         y="31"
         id="tspan2897">R4a - Describe the</tspan>
      <tspan
         x="9"
         y="45"
         id="tspan2899">experimental study</tspan>
      <tspan
         x="32"
         y="59"
         id="tspan2901">protocol</tspan>
    </text>
  </g>
  <use
     id="1bbe2268-a0ca-43a9-9259-5dc340342fac"
     xlink:href="#def5"
     class="style2"
     x="802"
     y="299"
     style="fill:#ffffcc;stroke:#a6a61d;stroke-width:2"
     width="100%"
     height="100%"
     transform="translate(-2.5,-43.5)" />
  <g
     id="1bbe2268-a0ca-43a9-9259-5dc340342facContainer"
     transform="translate(799.5,255.5)" />
  <g
     id="g2913"
     transform="translate(-2.5,-43.5)">
    <path
       style="fill:#a6a61d;stroke:#a6a61d;stroke-width:1px;stroke-linecap:butt;stroke-linejoin:miter;stroke-opacity:1"
       d="m 14.288518,6.459273 h 3.036311 v 8.930324 h 8.037291 v 3.214917 h -8.037291 v 7.947988 H 14.288518 V 18.604514 H 5.2688912 v -3.214917 h 9.0196268 z"
       transform="translate(806.5,303)"
       id="path2907"
       inkscape:connector-curvature="0" />
    <path
       style="fill:#a6a61d;stroke:#a6a61d;stroke-width:1px;stroke-linecap:butt;stroke-linejoin:miter;stroke-opacity:1"
       d="M 7.3228657,10.969087 9.5107951,8.959764 24.201178,22.489205 21.968597,24.587831 Z"
       transform="translate(806.5,303)"
       id="path2909"
       inkscape:connector-curvature="0" />
    <path
       style="fill:#a6a61d;stroke:#a6a61d;stroke-width:1px;stroke-linecap:butt;stroke-linejoin:miter;stroke-opacity:1"
       d="M 21.968597,8.959764 24.201178,10.969087 9.5107951,24.587831 7.3228657,22.489205 Z"
       transform="translate(806.5,303)"
       id="path2911"
       inkscape:connector-curvature="0" />
  </g>
  <use
     id="6fba2f19-dfd4-4a1f-a511-4e39aa6baf77"
     xlink:href="#def5"
     class="style2"
     x="664"
     y="299"
     style="fill:#ffffcc;stroke:#a6a61d;stroke-width:2"
     width="100%"
     height="100%"
     transform="translate(-2.5,-43.5)" />
  <g
     id="6fba2f19-dfd4-4a1f-a511-4e39aa6baf77Container"
     transform="translate(661.5,255.5)" />
  <g
     id="g2923"
     transform="translate(-2.5,-43.5)">
    <path
       style="fill:#a6a61d;stroke:#a6a61d;stroke-width:1px;stroke-linecap:butt;stroke-linejoin:miter;stroke-opacity:1"
       d="m 14.288518,6.459273 h 3.036311 v 8.930324 h 8.037291 v 3.214917 h -8.037291 v 7.947988 H 14.288518 V 18.604514 H 5.2688912 v -3.214917 h 9.0196268 z"
       transform="translate(668.5,303)"
       id="path2917"
       inkscape:connector-curvature="0" />
    <path
       style="fill:#a6a61d;stroke:#a6a61d;stroke-width:1px;stroke-linecap:butt;stroke-linejoin:miter;stroke-opacity:1"
       d="M 7.3228657,10.969087 9.5107951,8.959764 24.201178,22.489205 21.968597,24.587831 Z"
       transform="translate(668.5,303)"
       id="path2919"
       inkscape:connector-curvature="0" />
    <path
       style="fill:#a6a61d;stroke:#a6a61d;stroke-width:1px;stroke-linecap:butt;stroke-linejoin:miter;stroke-opacity:1"
       d="M 21.968597,8.959764 24.201178,10.969087 9.5107951,24.587831 7.3228657,22.489205 Z"
       transform="translate(668.5,303)"
       id="path2921"
       inkscape:connector-curvature="0" />
  </g>
  <use
     id="36ed1e67-2272-48ae-9643-9df6d91c6638"
     xlink:href="#def11"
     class="style3"
     x="639"
     y="167"
     style="fill:#ecefff;stroke:#03689a;stroke-width:2"
     width="100%"
     height="100%"
     transform="translate(-2.5,-43.5)" />
  <g
     id="36ed1e67-2272-48ae-9643-9df6d91c6638Container"
     transform="translate(636.5,123.5)">
    <text
       id="36ed1e67-2272-48ae-9643-9df6d91c6638Text"
       class="style5"
       clip-path="url(#def12)"
       style="font-size:10.66666698px;font-family:'Segoe UI';fill:#000000;text-rendering:auto">
      <tspan
         x="0"
         y="9"
         id="tspan2926" />
      <tspan
         x="10"
         y="18"
         id="tspan2928">R4b - Describe</tspan>
      <tspan
         x="19"
         y="32"
         id="tspan2930">the survey</tspan>
      <tspan
         x="23"
         y="46"
         id="tspan2932">protocol</tspan>
    </text>
  </g>
  <use
     id="dda0bb22-2720-4800-9cb2-a72d2b8375be"
     xlink:href="#def5"
     class="style2"
     x="802"
     y="177"
     style="fill:#ffffcc;stroke:#a6a61d;stroke-width:2"
     width="100%"
     height="100%"
     transform="translate(-2.5,-43.5)" />
  <g
     id="dda0bb22-2720-4800-9cb2-a72d2b8375beContainer"
     transform="translate(799.5,133.5)" />
  <g
     id="g2944"
     transform="translate(-2.5,-43.5)">
    <path
       style="fill:#a6a61d;stroke:#a6a61d;stroke-width:1px;stroke-linecap:butt;stroke-linejoin:miter;stroke-opacity:1"
       d="m 14.288518,6.459273 h 3.036311 v 8.930324 h 8.037291 v 3.214917 h -8.037291 v 7.947988 H 14.288518 V 18.604514 H 5.2688912 v -3.214917 h 9.0196268 z"
       transform="translate(806.5,181)"
       id="path2938"
       inkscape:connector-curvature="0" />
    <path
       style="fill:#a6a61d;stroke:#a6a61d;stroke-width:1px;stroke-linecap:butt;stroke-linejoin:miter;stroke-opacity:1"
       d="M 7.3228657,10.969087 9.5107951,8.959764 24.201178,22.489205 21.968597,24.587831 Z"
       transform="translate(806.5,181)"
       id="path2940"
       inkscape:connector-curvature="0" />
    <path
       style="fill:#a6a61d;stroke:#a6a61d;stroke-width:1px;stroke-linecap:butt;stroke-linejoin:miter;stroke-opacity:1"
       d="M 21.968597,8.959764 24.201178,10.969087 9.5107951,24.587831 7.3228657,22.489205 Z"
       transform="translate(806.5,181)"
       id="path2942"
       inkscape:connector-curvature="0" />
  </g>
  <use
     id="c16ad0b0-860f-483e-bafb-c151ec9e05b5"
     xlink:href="#def14"
     class="style3"
     x="934"
     y="161"
     style="fill:#ecefff;stroke:#03689a;stroke-width:2"
     width="100%"
     height="100%"
     transform="translate(-2.5,-43.5)" />
  <g
     id="c16ad0b0-860f-483e-bafb-c151ec9e05b5Container"
     transform="translate(931.5,117.5)">
    <text
       id="c16ad0b0-860f-483e-bafb-c151ec9e05b5Text"
       class="style6"
       clip-path="url(#def15)"
       style="font-size:10.66666698px;font-family:'Segoe UI';fill:#000000;text-rendering:auto">
      <tspan
         x="0"
         y="9"
         id="tspan2947" />
      <tspan
         x="6"
         y="31"
         id="tspan2949">R4c - Describe the</tspan>
      <tspan
         x="25"
         y="45"
         id="tspan2951">case study</tspan>
      <tspan
         x="30"
         y="59"
         id="tspan2953">protocol</tspan>
    </text>
  </g>
  <use
     id="719cd32a-1b43-402a-9141-d5373c830830"
     xlink:href="#def5"
     class="style2"
     x="1128"
     y="177"
     style="fill:#ffffcc;stroke:#a6a61d;stroke-width:2"
     width="100%"
     height="100%"
     transform="translate(-2.5,-43.5)" />
  <g
     id="719cd32a-1b43-402a-9141-d5373c830830Container"
     transform="translate(1125.5,133.5)" />
  <g
     id="g2965"
     transform="translate(-2.5,-43.5)">
    <path
       style="fill:#a6a61d;stroke:#a6a61d;stroke-width:1px;stroke-linecap:butt;stroke-linejoin:miter;stroke-opacity:1"
       d="m 14.288518,6.459273 h 3.036311 v 8.930324 h 8.037291 v 3.214917 h -8.037291 v 7.947988 H 14.288518 V 18.604514 H 5.2688912 v -3.214917 h 9.0196268 z"
       transform="translate(1132.5,181)"
       id="path2959"
       inkscape:connector-curvature="0" />
    <path
       style="fill:#a6a61d;stroke:#a6a61d;stroke-width:1px;stroke-linecap:butt;stroke-linejoin:miter;stroke-opacity:1"
       d="M 7.3228657,10.969087 9.5107951,8.959764 24.201178,22.489205 21.968597,24.587831 Z"
       transform="translate(1132.5,181)"
       id="path2961"
       inkscape:connector-curvature="0" />
    <path
       style="fill:#a6a61d;stroke:#a6a61d;stroke-width:1px;stroke-linecap:butt;stroke-linejoin:miter;stroke-opacity:1"
       d="M 21.968597,8.959764 24.201178,10.969087 9.5107951,24.587831 7.3228657,22.489205 Z"
       transform="translate(1132.5,181)"
       id="path2963"
       inkscape:connector-curvature="0" />
  </g>
  <use
     id="c46acba4-22df-46f7-8827-9e17b8d53456"
     xlink:href="#def3"
     class="style7"
     x="1206"
     y="182"
     style="fill:#eeaaaa;stroke:#990000;stroke-width:3"
     width="100%"
     height="100%"
     transform="translate(-2.5,-43.5)" />
  <g
     id="c46acba4-22df-46f7-8827-9e17b8d53456Container"
     transform="translate(1203.5,138.5)" />
  <polyline
     id="135c0f53-6cfd-4c8a-83b7-2198f12cbfec"
     style="fill:none;stroke:#000000;stroke-width:1;stroke-opacity:1;marker-end:url(#defMarker)"
     points="0,0 38,0 "
     transform="translate(1165.5,153.5)" />
  <text
     x="1184.5"
     y="151.5"
     style="font-size:10.66666698px;font-family:'Segoe UI';fill:#000000"
     id="text2970" />
  <polyline
     id="692e062c-d45b-4617-9b4b-67cbf393c7de"
     style="fill:none;stroke:#000000;stroke-width:1;stroke-opacity:1;marker-end:url(#defMarker)"
     points="0,0 92,0 "
     transform="translate(839.5,153.5)" />
  <text
     x="885.5"
     y="151.5"
     style="font-size:10.66666698px;font-family:'Segoe UI';fill:#000000"
     id="text2973" />
  <polyline
     id="1595199d-df96-4693-8c23-b2cacea39574"
     style="fill:none;stroke:#000000;stroke-width:1;stroke-opacity:1;marker-end:url(#defMarker)"
     points="0,0 0,82 "
     transform="translate(819.5,173.5)" />
  <text
     x="819.5"
     y="212.5"
     style="font-size:10.66666698px;font-family:'Segoe UI';fill:#000000"
     id="text2976" />
  <polyline
     id="914d5ee2-6360-46fc-a249-4565dd362a12"
     style="fill:none;stroke:#000000;stroke-width:1;stroke-opacity:1;marker-end:url(#defMarker)"
     points="0,0 90,0 "
     transform="translate(1035.5,153.5)" />
  <text
     x="1080.5"
     y="151.5"
     style="font-size:10.66666698px;font-family:'Segoe UI';fill:#000000"
     id="text2979" />
  <polyline
     id="60d51d16-ead4-4371-a2ba-c0f7590c376c"
     style="fill:none;stroke:#000000;stroke-width:1;stroke-opacity:1;marker-end:url(#defMarker)"
     points="0,0 115,0 "
     transform="translate(521.5,153.5)" />
  <text
     x="579"
     y="151.5"
     style="font-size:10.66666698px;font-family:'Segoe UI';fill:#000000"
     id="text2982" />
  <polyline
     id="a67405e5-13f0-4f49-adf8-caf2b1ee802c"
     style="fill:none;stroke:#000000;stroke-width:1;stroke-opacity:1;marker-end:url(#defMarker)"
     points="98,0 0,0 "
     transform="translate(701.5,275.5)" />
  <text
     x="750.5"
     y="273.5"
     style="font-size:10.66666698px;font-family:'Segoe UI';fill:#000000"
     id="text2985" />
  <polyline
     id="54bcc1e6-16f5-4a7a-9bca-d5edae271a85"
     style="fill:none;stroke:#000000;stroke-width:1;stroke-opacity:1;marker-end:url(#defMarker)"
     points="0,0 128,0 "
     transform="translate(140.5,153.5)" />
  <text
     x="204.5"
     y="151.5"
     style="font-size:10.66666698px;font-family:'Segoe UI';fill:#000000"
     id="text2988" />
  <polyline
     id="80a1466c-3e17-4aba-ba90-a2a4e0eeaa7f"
     style="fill:none;stroke:#000000;stroke-width:1;stroke-opacity:1;marker-end:url(#defMarker)"
     points="0,0 105,0 "
     transform="translate(376.5,153.5)" />
  <text
     x="429"
     y="151.5"
     style="font-size:10.66666698px;font-family:'Segoe UI';fill:#000000"
     id="text2991" />
  <polyline
     id="2e902449-3ba9-4a1e-9e9d-68aa7d968f7b"
     style="fill:none;stroke:#000000;stroke-width:1;stroke-opacity:1;marker-end:url(#defMarker)"
     points="339,86 12,86 6,85.99997 2.686279,86 0,83.31369 0,80 0,0 "
     transform="translate(322.5,189.5)" />
  <text
     x="322.5"
     y="273.5"
     style="font-size:10.66666698px;font-family:'Segoe UI';fill:#000000"
     id="text2994" />
  <polyline
     id="9262ed56-da34-4441-9434-a6bf4bb39e6e"
     style="fill:none;stroke:#000000;stroke-width:1;stroke-opacity:1;marker-end:url(#defMarker)"
     points="306,0 306,90 305.9999,95.99997 305.9999,99.31369 303.3136,102 300,102 0,102 "
     transform="translate(839.5,173.5)" />
  <text
     x="1145.5"
     y="273.5"
     style="font-size:10.66666698px;font-family:'Segoe UI';fill:#000000"
     id="text2997" />
  <polyline
     id="d3b04fe0-57d1-472f-a486-8760ddfab28b"
     style="fill:none;stroke:#000000;stroke-width:1;stroke-opacity:1;marker-end:url(#defMarker)"
     points="179,54.00001 179,12.00001 179,5.999992 179,2.686295 176.3137,0 173,0 173,0 173,7.629395E-06 173,7.629395E-06 12.00003,7.629395E-06 6,0 2.68631,7.629395E-06 0,2.686302 0,6.000008 3.051758E-05,38.00001 "
     transform="translate(322.5,79.5)" />
  <text
     x="412"
     y="77.5"
     style="font-size:10.66666698px;font-family:'Segoe UI';fill:#000000"
     id="text3000" />
  <polyline
     id="5b9d9c06-ab6e-4220-9e03-929562bcb7b0"
     style="fill:none;stroke:#000000;stroke-width:1;stroke-opacity:1;marker-end:url(#defMarker)"
     points="0,0 73,0 "
     transform="translate(726.5,153.5)" />
  <text
     x="763"
     y="151.5"
     style="font-size:10.66666698px;font-family:'Segoe UI';fill:#000000"
     id="text3003" />
  <polyline
     id="3cca33a0-60a5-483c-b31d-0186d709be30"
     style="fill:none;stroke:#000000;stroke-width:1;stroke-opacity:1;marker-end:url(#defMarker)"
     points="0,72 0,0 "
     transform="translate(681.5,183.5)" />
  <text
     x="681.5"
     y="217.5"
     style="font-size:10.66666698px;font-family:'Segoe UI';fill:#000000"
     id="text3006" />
</svg>
