<?xml version="1.0" encoding="UTF-8" standalone="no"?>
<svg
   xmlns:dc="http://purl.org/dc/elements/1.1/"
   xmlns:cc="http://creativecommons.org/ns#"
   xmlns:rdf="http://www.w3.org/1999/02/22-rdf-syntax-ns#"
   xmlns:svg="http://www.w3.org/2000/svg"
   xmlns="http://www.w3.org/2000/svg"
   xmlns:xlink="http://www.w3.org/1999/xlink"
   xmlns:sodipodi="http://sodipodi.sourceforge.net/DTD/sodipodi-0.dtd"
   xmlns:inkscape="http://www.inkscape.org/namespaces/inkscape"
   width="1199px"
   height="548px"
   version="1.1"
   id="svg5448"
   sodipodi:docname="USA-DSLLifeCycle.svg"
   inkscape:version="0.92.4 (5da689c313, 2019-01-14)">
  <metadata
     id="metadata5452">
    <rdf:RDF>
      <cc:Work
         rdf:about="">
        <dc:format>image/svg+xml</dc:format>
        <dc:type
           rdf:resource="http://purl.org/dc/dcmitype/StillImage" />
      </cc:Work>
    </rdf:RDF>
  </metadata>
  <sodipodi:namedview
     pagecolor="#ffffff"
     bordercolor="#666666"
     borderopacity="1"
     objecttolerance="10"
     gridtolerance="10"
     guidetolerance="10"
     inkscape:pageopacity="0"
     inkscape:pageshadow="2"
     inkscape:window-width="1366"
     inkscape:window-height="705"
     id="namedview5450"
     showgrid="false"
     inkscape:zoom="0.97810219"
     inkscape:cx="599.5"
     inkscape:cy="274"
     inkscape:window-x="-8"
     inkscape:window-y="-8"
     inkscape:window-maximized="1"
     inkscape:current-layer="svg5448" />
  <style
     type="text/css"
     id="style5082"><![CDATA[
	.style1{fill:#FFFFCC;stroke:#A6A61D;stroke-width:2;}
	.style2{fill:#EEAAAA;stroke:#990000;stroke-width:3;}
	.style3{fill:#ECEFFF;stroke:#03689A;stroke-width:3;}
	.style4{fill:#E6FF97;stroke:#62A716;stroke-width:2;}
	.style5{fill:#FFFFFF;}
	.style6{text-rendering:auto;font-family:'Segoe UI';font-size:8pt;fill:#000000;clip-path:url(#def31);}
	.style7{text-rendering:auto;font-family:'Segoe UI';font-size:8pt;fill:#000000;clip-path:url(#def32);}
	.style8{text-rendering:auto;font-family:'Segoe UI';font-size:8pt;fill:#000000;clip-path:url(#def33);}
	.style9{text-rendering:auto;font-family:'Segoe UI';font-size:8pt;fill:#000000;clip-path:url(#def34);}]]></style>
  <defs
     id="defs5168">
    <path
       id="780a32ea-36d7-4396-9995-c3c45474d08eHeaderPath"
       fill-rule="evenodd"
       d="M 29,435 L 408,435 L 408,485 L 29,485 Z " />
    <clipPath
       id="eba36823-c973-41ea-9340-1ae2761a1bebHeaderClipPath">
      <use
         xlink:href="#780a32ea-36d7-4396-9995-c3c45474d08eHeaderPath"
         id="use5085" />
    </clipPath>
    <path
       id="adbfaf45-90b6-430a-a9e6-4d0acc389e37HeaderPath"
       fill-rule="evenodd"
       d="M 79,56 L 371,56 L 371,86 L 79,86 Z " />
    <clipPath
       id="62959161-472b-4096-bd34-9ab0575ec24fHeaderClipPath">
      <use
         xlink:href="#adbfaf45-90b6-430a-a9e6-4d0acc389e37HeaderPath"
         id="use5089" />
    </clipPath>
    <path
       id="dec0f7c4-55a7-4ac6-9335-2ae7b32fcc95HeaderPath"
       fill-rule="evenodd"
       d="M 371,56 L 636,56 L 636,86 L 371,86 Z " />
    <clipPath
       id="ff0e3685-01d1-463b-88bd-92bbccaf1f9fHeaderClipPath">
      <use
         xlink:href="#dec0f7c4-55a7-4ac6-9335-2ae7b32fcc95HeaderPath"
         id="use5093" />
    </clipPath>
    <path
       id="2bcee78c-3389-4934-bf5b-5ecc7505e57bHeaderPath"
       fill-rule="evenodd"
       d="M 636,56 L 881,56 L 881,86 L 636,86 Z " />
    <clipPath
       id="bfcf99e4-f001-4e6b-b12b-8de9967116bdHeaderClipPath">
      <use
         xlink:href="#2bcee78c-3389-4934-bf5b-5ecc7505e57bHeaderPath"
         id="use5097" />
    </clipPath>
    <path
       id="fe1707c1-837a-42ab-94f4-5cc9eb181de3HeaderPath"
       fill-rule="evenodd"
       d="M 881,56 L 1179,56 L 1179,86 L 881,86 Z " />
    <clipPath
       id="f082f449-9666-4660-aec0-55751703b407HeaderClipPath">
      <use
         xlink:href="#fe1707c1-837a-42ab-94f4-5cc9eb181de3HeaderPath"
         id="use5101" />
    </clipPath>
    <polygon
       id="def11"
       points="-0,20 20,-0 40,20 20,40 -0,20 " />
    <clipPath
       id="def12">
      <use
         xlink:href="#def11"
         transform="translate(0,0)"
         id="use5105" />
    </clipPath>
    <clipPath
       id="def13">
      <use
         xlink:href="#def11"
         transform="translate(0,0)"
         id="use5108" />
    </clipPath>
    <clipPath
       id="def14">
      <use
         xlink:href="#def11"
         transform="translate(0,0)"
         id="use5111" />
    </clipPath>
    <clipPath
       id="def15">
      <use
         xlink:href="#def11"
         transform="translate(0,0)"
         id="use5114" />
    </clipPath>
    <clipPath
       id="def16">
      <use
         xlink:href="#def11"
         transform="translate(0,0)"
         id="use5117" />
    </clipPath>
    <clipPath
       id="def17">
      <use
         xlink:href="#def11"
         transform="translate(0,0)"
         id="use5120" />
    </clipPath>
    <clipPath
       id="def18">
      <use
         xlink:href="#def11"
         transform="translate(0,0)"
         id="use5123" />
    </clipPath>
    <ellipse
       id="def19"
       cx="15"
       cy="15"
       rx="15"
       ry="15" />
    <clipPath
       id="def20">
      <use
         xlink:href="#def19"
         transform="translate(0,0)"
         id="use5127" />
    </clipPath>
    <clipPath
       id="def21">
      <use
         xlink:href="#def11"
         transform="translate(0,0)"
         id="use5130" />
    </clipPath>
    <path
       id="def22"
       fill-rule="evenodd"
       d="M 7,0 L 83,0 L 83,0 C 86.87,-0 90,3.13 90,7 C 90,7 90,7 90,7 L 90,7 L 90,53 L 90,53 C 90,56.87 86.87,60 83,60 L 83,60 L 7,60 L 7,60 C 3.13,60 0,56.87 0,53 L 0,53 L 0,7 L 0,7 C -0,3.13 3.13,0 7,0 Z " />
    <clipPath
       id="def23">
      <use
         xlink:href="#def22"
         transform="translate(0,0)"
         id="use5134" />
    </clipPath>
    <clipPath
       id="def24">
      <use
         xlink:href="#def22"
         transform="translate(0,0)"
         id="use5137" />
    </clipPath>
    <clipPath
       id="def25">
      <use
         xlink:href="#def22"
         transform="translate(0,0)"
         id="use5140" />
    </clipPath>
    <clipPath
       id="def26">
      <use
         xlink:href="#def22"
         transform="translate(0,0)"
         id="use5143" />
    </clipPath>
    <clipPath
       id="def27">
      <use
         xlink:href="#def19"
         transform="translate(0,0)"
         id="use5146" />
    </clipPath>
    <marker
       id="defMarkerShadow"
       viewbox="0 0 10 8"
       refX="10"
       refY="4"
       markerUnits="strokeWidth"
       markerWidth="10"
       markerHeight="8"
       orient="auto"
       fill="#000000"
       fill-opacity="0.1">
      <path
         fill-rule="evenodd"
         d="M 9,4 L 1,9 L 3,4 L 1,-1 Z "
         id="path5149" />
    </marker>
    <marker
       id="defMarker"
       viewbox="0 0 10 8"
       refX="10"
       refY="4"
       markerUnits="strokeWidth"
       markerWidth="10"
       markerHeight="8"
       orient="auto"
       fill="#000000"
       fill-opacity="1">
      <path
         fill-rule="evenodd"
         d="M 9,4 L 1,9 L 3,4 L 1,-1 Z "
         id="path5152" />
    </marker>
    <rect
       id="def30"
       width="90"
       height="60" />
    <clipPath
       id="def31">
      <use
         xlink:href="#def30"
         transform="translate(0,0)"
         id="use5156" />
    </clipPath>
    <clipPath
       id="def32">
      <use
         xlink:href="#def30"
         transform="translate(0,0)"
         id="use5159" />
    </clipPath>
    <clipPath
       id="def33">
      <use
         xlink:href="#def30"
         transform="translate(0,0)"
         id="use5162" />
    </clipPath>
    <clipPath
       id="def34">
      <use
         xlink:href="#def30"
         transform="translate(0,0)"
         id="use5165" />
    </clipPath>
  </defs>
  <g
     id="g5178">
    <rect
       x="29"
       y="56"
       width="1150"
       height="379"
       rx="0"
       ry="0"
       style="fill:#FFFFFF;stroke:#000000;stroke-width:0px;stroke-linecap:butt;stroke-linejoin:miter;stroke-opacity:1"
       id="rect5170" />
    <rect
       x="29"
       y="56"
       width="50"
       height="379"
       rx="0"
       ry="0"
       style="fill:#FFFFFF;stroke:#000000;stroke-width:1px;stroke-linecap:butt;stroke-linejoin:miter;stroke-opacity:1"
       id="rect5172" />
    <text
       style="font-family:'Segoe UI';font-size:8pt;font-weight:bold;fill:#000000;clip-path:url(#eba36823-c973-41ea-9340-1ae2761a1bebHeaderClipPath);"
       transform="rotate(-90 29 435)"
       clip-path="url(#eba36823-c973-41ea-9340-1ae2761a1bebHeaderClipPath)"
       id="text5176">
      <tspan
         x="186.4332"
         y="464"
         id="tspan5174">PEAR Phases</tspan>
    </text>
  </g>
  <text
     style="font-family:'Segoe UI';font-size:8pt;font-weight:bold;fill:#000000;clip-path:url(#62959161-472b-4096-bd34-9ab0575ec24fHeaderClipPath);"
     clip-path="url(#62959161-472b-4096-bd34-9ab0575ec24fHeaderClipPath)"
     id="text5182">
    <tspan
       x="203.8029"
       y="75"
       id="tspan5180">Planning</tspan>
  </text>
  <g
     id="g5194">
    <line
       x1="79"
       y1="56"
       x2="371"
       y2="56"
       style="stroke:#505050;stroke-width:1px;stroke-linecap:butt;stroke-linejoin:miter;stroke-opacity:1"
       id="line5184" />
    <line
       x1="79"
       y1="435"
       x2="371"
       y2="435"
       style="stroke:#505050;stroke-width:1px;stroke-linecap:butt;stroke-linejoin:miter;stroke-opacity:1"
       id="line5186" />
    <line
       x1="371"
       y1="86"
       x2="371"
       y2="435"
       style="stroke:#505050;stroke-width:1px;stroke-linecap:butt;stroke-linejoin:miter;stroke-opacity:1"
       id="line5188" />
    <line
       x1="371"
       y1="56"
       x2="386"
       y2="71"
       style="stroke:#505050;stroke-width:1px;stroke-linecap:butt;stroke-linejoin:miter;stroke-opacity:1"
       id="line5190" />
    <line
       x1="371"
       y1="86"
       x2="386"
       y2="71"
       style="stroke:#505050;stroke-width:1px;stroke-linecap:butt;stroke-linejoin:miter;stroke-opacity:1"
       id="line5192" />
  </g>
  <text
     style="font-family:'Segoe UI';font-size:8pt;font-weight:bold;fill:#000000;clip-path:url(#ff0e3685-01d1-463b-88bd-92bbccaf1f9fHeaderClipPath);"
     clip-path="url(#ff0e3685-01d1-463b-88bd-92bbccaf1f9fHeaderClipPath)"
     id="text5198">
    <tspan
       x="479.7769"
       y="75"
       id="tspan5196">Execution</tspan>
  </text>
  <g
     id="g5210">
    <line
       x1="371"
       y1="56"
       x2="636"
       y2="56"
       style="stroke:#505050;stroke-width:1px;stroke-linecap:butt;stroke-linejoin:miter;stroke-opacity:1"
       id="line5200" />
    <line
       x1="371"
       y1="435"
       x2="636"
       y2="435"
       style="stroke:#505050;stroke-width:1px;stroke-linecap:butt;stroke-linejoin:miter;stroke-opacity:1"
       id="line5202" />
    <line
       x1="636"
       y1="86"
       x2="636"
       y2="435"
       style="stroke:#505050;stroke-width:1px;stroke-linecap:butt;stroke-linejoin:miter;stroke-opacity:1"
       id="line5204" />
    <line
       x1="636"
       y1="56"
       x2="651"
       y2="71"
       style="stroke:#505050;stroke-width:1px;stroke-linecap:butt;stroke-linejoin:miter;stroke-opacity:1"
       id="line5206" />
    <line
       x1="636"
       y1="86"
       x2="651"
       y2="71"
       style="stroke:#505050;stroke-width:1px;stroke-linecap:butt;stroke-linejoin:miter;stroke-opacity:1"
       id="line5208" />
  </g>
  <text
     style="font-family:'Segoe UI';font-size:8pt;font-weight:bold;fill:#000000;clip-path:url(#bfcf99e4-f001-4e6b-b12b-8de9967116bdHeaderClipPath);"
     clip-path="url(#bfcf99e4-f001-4e6b-b12b-8de9967116bdHeaderClipPath)"
     id="text5214">
    <tspan
       x="738.0894"
       y="75"
       id="tspan5212">Analysis</tspan>
  </text>
  <g
     id="g5226">
    <line
       x1="636"
       y1="56"
       x2="881"
       y2="56"
       style="stroke:#505050;stroke-width:1px;stroke-linecap:butt;stroke-linejoin:miter;stroke-opacity:1"
       id="line5216" />
    <line
       x1="636"
       y1="435"
       x2="881"
       y2="435"
       style="stroke:#505050;stroke-width:1px;stroke-linecap:butt;stroke-linejoin:miter;stroke-opacity:1"
       id="line5218" />
    <line
       x1="881"
       y1="86"
       x2="881"
       y2="435"
       style="stroke:#505050;stroke-width:1px;stroke-linecap:butt;stroke-linejoin:miter;stroke-opacity:1"
       id="line5220" />
    <line
       x1="881"
       y1="56"
       x2="896"
       y2="71"
       style="stroke:#505050;stroke-width:1px;stroke-linecap:butt;stroke-linejoin:miter;stroke-opacity:1"
       id="line5222" />
    <line
       x1="881"
       y1="86"
       x2="896"
       y2="71"
       style="stroke:#505050;stroke-width:1px;stroke-linecap:butt;stroke-linejoin:miter;stroke-opacity:1"
       id="line5224" />
  </g>
  <text
     style="font-family:'Segoe UI';font-size:8pt;font-weight:bold;fill:#000000;clip-path:url(#f082f449-9666-4660-aec0-55751703b407HeaderClipPath);"
     clip-path="url(#f082f449-9666-4660-aec0-55751703b407HeaderClipPath)"
     id="text5230">
    <tspan
       x="1005.694"
       y="75"
       id="tspan5228">Reporting</tspan>
  </text>
  <g
     id="g5244">
    <polygon
       points="1179,56 1194,71 1179,86 "
       style="stroke: Transparent; fill: #FFFFFF;"
       id="polygon5232" />
    <line
       x1="881"
       y1="56"
       x2="1179"
       y2="56"
       style="stroke:#505050;stroke-width:1px;stroke-linecap:butt;stroke-linejoin:miter;stroke-opacity:1"
       id="line5234" />
    <line
       x1="881"
       y1="435"
       x2="1179"
       y2="435"
       style="stroke:#505050;stroke-width:1px;stroke-linecap:butt;stroke-linejoin:miter;stroke-opacity:1"
       id="line5236" />
    <line
       x1="1179"
       y1="86"
       x2="1179"
       y2="435"
       style="stroke:#505050;stroke-width:1px;stroke-linecap:butt;stroke-linejoin:miter;stroke-opacity:1"
       id="line5238" />
    <line
       x1="1179"
       y1="56"
       x2="1194"
       y2="71"
       style="stroke:#505050;stroke-width:1px;stroke-linecap:butt;stroke-linejoin:miter;stroke-opacity:1"
       id="line5240" />
    <line
       x1="1179"
       y1="86"
       x2="1194"
       y2="71"
       style="stroke:#505050;stroke-width:1px;stroke-linecap:butt;stroke-linejoin:miter;stroke-opacity:1"
       id="line5242" />
  </g>
  <use
     id="082f0c66-8ce6-4235-ae43-adef3c48bf6d"
     xlink:href="#def11"
     class="style1"
     x="198"
     y="285" />
  <g
     id="082f0c66-8ce6-4235-ae43-adef3c48bf6dContainer"
     transform="translate(198,285) rotate(0,25,25)" />
  <g
     id="g5254">
    <path
       style="fill:#A6A61D;stroke:#A6A61D;stroke-width:1px;stroke-linecap:butt;stroke-linejoin:miter;stroke-opacity:1"
       d="m 14.288518,6.459273 3.036311,0 0,8.930324 8.037291,0 0,3.214917 -8.037291,0 0,7.947988 -3.036311,0 0,-7.947988 -9.0196268,0 0,-3.214917 9.0196268,0 z"
       transform="translate(202.5,289)"
       id="path5248" />
    <path
       style="fill:#A6A61D;stroke:#A6A61D;stroke-width:1px;stroke-linecap:butt;stroke-linejoin:miter;stroke-opacity:1"
       d="M 7.3228657,10.969087 9.5107951,8.959764 24.201178,22.489205 21.968597,24.587831 z"
       transform="translate(202.5,289)"
       id="path5250" />
    <path
       style="fill:#A6A61D;stroke:#A6A61D;stroke-width:1px;stroke-linecap:butt;stroke-linejoin:miter;stroke-opacity:1"
       d="M 21.968597,8.959764 24.201178,10.969087 9.5107951,24.587831 7.3228657,22.489205 z"
       transform="translate(202.5,289)"
       id="path5252" />
  </g>
  <use
     id="9975eace-ad06-4f9d-abcd-292646be812f"
     xlink:href="#def11"
     class="style1"
     x="502"
     y="285" />
  <g
     id="9975eace-ad06-4f9d-abcd-292646be812fContainer"
     transform="translate(502,285) rotate(0,25,25)" />
  <g
     id="g5264">
    <path
       style="fill:#A6A61D;stroke:#A6A61D;stroke-width:1px;stroke-linecap:butt;stroke-linejoin:miter;stroke-opacity:1"
       d="m 14.288518,6.459273 3.036311,0 0,8.930324 8.037291,0 0,3.214917 -8.037291,0 0,7.947988 -3.036311,0 0,-7.947988 -9.0196268,0 0,-3.214917 9.0196268,0 z"
       transform="translate(506.5,289)"
       id="path5258" />
    <path
       style="fill:#A6A61D;stroke:#A6A61D;stroke-width:1px;stroke-linecap:butt;stroke-linejoin:miter;stroke-opacity:1"
       d="M 7.3228657,10.969087 9.5107951,8.959764 24.201178,22.489205 21.968597,24.587831 z"
       transform="translate(506.5,289)"
       id="path5260" />
    <path
       style="fill:#A6A61D;stroke:#A6A61D;stroke-width:1px;stroke-linecap:butt;stroke-linejoin:miter;stroke-opacity:1"
       d="M 21.968597,8.959764 24.201178,10.969087 9.5107951,24.587831 7.3228657,22.489205 z"
       transform="translate(506.5,289)"
       id="path5262" />
  </g>
  <use
     id="b9f726de-cb43-4099-90c4-ccfaac24d4c4"
     xlink:href="#def11"
     class="style1"
     x="758"
     y="285" />
  <g
     id="b9f726de-cb43-4099-90c4-ccfaac24d4c4Container"
     transform="translate(758,285) rotate(0,25,25)" />
  <g
     id="g5274">
    <path
       style="fill:#A6A61D;stroke:#A6A61D;stroke-width:1px;stroke-linecap:butt;stroke-linejoin:miter;stroke-opacity:1"
       d="m 14.288518,6.459273 3.036311,0 0,8.930324 8.037291,0 0,3.214917 -8.037291,0 0,7.947988 -3.036311,0 0,-7.947988 -9.0196268,0 0,-3.214917 9.0196268,0 z"
       transform="translate(762.5,289)"
       id="path5268" />
    <path
       style="fill:#A6A61D;stroke:#A6A61D;stroke-width:1px;stroke-linecap:butt;stroke-linejoin:miter;stroke-opacity:1"
       d="M 7.3228657,10.969087 9.5107951,8.959764 24.201178,22.489205 21.968597,24.587831 z"
       transform="translate(762.5,289)"
       id="path5270" />
    <path
       style="fill:#A6A61D;stroke:#A6A61D;stroke-width:1px;stroke-linecap:butt;stroke-linejoin:miter;stroke-opacity:1"
       d="M 21.968597,8.959764 24.201178,10.969087 9.5107951,24.587831 7.3228657,22.489205 z"
       transform="translate(762.5,289)"
       id="path5272" />
  </g>
  <use
     id="832ab5bb-632a-4c7a-86cb-830800cfa947"
     xlink:href="#def11"
     class="style1"
     x="1013"
     y="285" />
  <g
     id="832ab5bb-632a-4c7a-86cb-830800cfa947Container"
     transform="translate(1013,285) rotate(0,25,25)" />
  <g
     id="g5284">
    <path
       style="fill:#A6A61D;stroke:#A6A61D;stroke-width:1px;stroke-linecap:butt;stroke-linejoin:miter;stroke-opacity:1"
       d="m 14.288518,6.459273 3.036311,0 0,8.930324 8.037291,0 0,3.214917 -8.037291,0 0,7.947988 -3.036311,0 0,-7.947988 -9.0196268,0 0,-3.214917 9.0196268,0 z"
       transform="translate(1017.5,289)"
       id="path5278" />
    <path
       style="fill:#A6A61D;stroke:#A6A61D;stroke-width:1px;stroke-linecap:butt;stroke-linejoin:miter;stroke-opacity:1"
       d="M 7.3228657,10.969087 9.5107951,8.959764 24.201178,22.489205 21.968597,24.587831 z"
       transform="translate(1017.5,289)"
       id="path5280" />
    <path
       style="fill:#A6A61D;stroke:#A6A61D;stroke-width:1px;stroke-linecap:butt;stroke-linejoin:miter;stroke-opacity:1"
       d="M 21.968597,8.959764 24.201178,10.969087 9.5107951,24.587831 7.3228657,22.489205 z"
       transform="translate(1017.5,289)"
       id="path5282" />
  </g>
  <use
     id="6e662a5e-a2a7-429a-9b71-ad14fd23f3fa"
     xlink:href="#def11"
     class="style1"
     x="502"
     y="363" />
  <g
     id="6e662a5e-a2a7-429a-9b71-ad14fd23f3faContainer"
     transform="translate(502,363) rotate(0,25,25)" />
  <g
     id="g5294">
    <path
       style="fill:#A6A61D;stroke:#A6A61D;stroke-width:1px;stroke-linecap:butt;stroke-linejoin:miter;stroke-opacity:1"
       d="m 14.288518,6.459273 3.036311,0 0,8.930324 8.037291,0 0,3.214917 -8.037291,0 0,7.947988 -3.036311,0 0,-7.947988 -9.0196268,0 0,-3.214917 9.0196268,0 z"
       transform="translate(506.5,367)"
       id="path5288" />
    <path
       style="fill:#A6A61D;stroke:#A6A61D;stroke-width:1px;stroke-linecap:butt;stroke-linejoin:miter;stroke-opacity:1"
       d="M 7.3228657,10.969087 9.5107951,8.959764 24.201178,22.489205 21.968597,24.587831 z"
       transform="translate(506.5,367)"
       id="path5290" />
    <path
       style="fill:#A6A61D;stroke:#A6A61D;stroke-width:1px;stroke-linecap:butt;stroke-linejoin:miter;stroke-opacity:1"
       d="M 21.968597,8.959764 24.201178,10.969087 9.5107951,24.587831 7.3228657,22.489205 z"
       transform="translate(506.5,367)"
       id="path5292" />
  </g>
  <use
     id="cc3afccd-cf7e-4a75-b964-6305a7a6c703"
     xlink:href="#def11"
     class="style1"
     x="758"
     y="363" />
  <g
     id="cc3afccd-cf7e-4a75-b964-6305a7a6c703Container"
     transform="translate(758,363) rotate(0,25,25)" />
  <g
     id="g5304">
    <path
       style="fill:#A6A61D;stroke:#A6A61D;stroke-width:1px;stroke-linecap:butt;stroke-linejoin:miter;stroke-opacity:1"
       d="m 14.288518,6.459273 3.036311,0 0,8.930324 8.037291,0 0,3.214917 -8.037291,0 0,7.947988 -3.036311,0 0,-7.947988 -9.0196268,0 0,-3.214917 9.0196268,0 z"
       transform="translate(762.5,367)"
       id="path5298" />
    <path
       style="fill:#A6A61D;stroke:#A6A61D;stroke-width:1px;stroke-linecap:butt;stroke-linejoin:miter;stroke-opacity:1"
       d="M 7.3228657,10.969087 9.5107951,8.959764 24.201178,22.489205 21.968597,24.587831 z"
       transform="translate(762.5,367)"
       id="path5300" />
    <path
       style="fill:#A6A61D;stroke:#A6A61D;stroke-width:1px;stroke-linecap:butt;stroke-linejoin:miter;stroke-opacity:1"
       d="M 21.968597,8.959764 24.201178,10.969087 9.5107951,24.587831 7.3228657,22.489205 z"
       transform="translate(762.5,367)"
       id="path5302" />
  </g>
  <use
     id="9d809cd5-0c64-4dc9-a624-df3444cdaf36"
     xlink:href="#def11"
     class="style1"
     x="678"
     y="363" />
  <g
     id="9d809cd5-0c64-4dc9-a624-df3444cdaf36Container"
     transform="translate(678,363) rotate(0,25,25)" />
  <g
     id="g5314">
    <path
       style="fill:#A6A61D;stroke:#A6A61D;stroke-width:1px;stroke-linecap:butt;stroke-linejoin:miter;stroke-opacity:1"
       d="m 14.288518,6.459273 3.036311,0 0,8.930324 8.037291,0 0,3.214917 -8.037291,0 0,7.947988 -3.036311,0 0,-7.947988 -9.0196268,0 0,-3.214917 9.0196268,0 z"
       transform="translate(682.5,367)"
       id="path5308" />
    <path
       style="fill:#A6A61D;stroke:#A6A61D;stroke-width:1px;stroke-linecap:butt;stroke-linejoin:miter;stroke-opacity:1"
       d="M 7.3228657,10.969087 9.5107951,8.959764 24.201178,22.489205 21.968597,24.587831 z"
       transform="translate(682.5,367)"
       id="path5310" />
    <path
       style="fill:#A6A61D;stroke:#A6A61D;stroke-width:1px;stroke-linecap:butt;stroke-linejoin:miter;stroke-opacity:1"
       d="M 21.968597,8.959764 24.201178,10.969087 9.5107951,24.587831 7.3228657,22.489205 z"
       transform="translate(682.5,367)"
       id="path5312" />
  </g>
  <use
     id="1ff33007-0c45-4395-9007-60cc73ce3bb4"
     xlink:href="#def19"
     class="style2"
     x="1096"
     y="368" />
  <g
     id="1ff33007-0c45-4395-9007-60cc73ce3bb4Container"
     transform="translate(1096,368) rotate(0,25,25)" />
  <use
     id="f74f98bf-2135-4380-a490-42bf1bd53cf5"
     xlink:href="#def11"
     class="style1"
     x="414"
     y="363" />
  <g
     id="f74f98bf-2135-4380-a490-42bf1bd53cf5Container"
     transform="translate(414,363) rotate(0,25,25)" />
  <g
     id="g5326">
    <path
       style="fill:#A6A61D;stroke:#A6A61D;stroke-width:1px;stroke-linecap:butt;stroke-linejoin:miter;stroke-opacity:1"
       d="m 14.288518,6.459273 3.036311,0 0,8.930324 8.037291,0 0,3.214917 -8.037291,0 0,7.947988 -3.036311,0 0,-7.947988 -9.0196268,0 0,-3.214917 9.0196268,0 z"
       transform="translate(418.5,367)"
       id="path5320" />
    <path
       style="fill:#A6A61D;stroke:#A6A61D;stroke-width:1px;stroke-linecap:butt;stroke-linejoin:miter;stroke-opacity:1"
       d="M 7.3228657,10.969087 9.5107951,8.959764 24.201178,22.489205 21.968597,24.587831 z"
       transform="translate(418.5,367)"
       id="path5322" />
    <path
       style="fill:#A6A61D;stroke:#A6A61D;stroke-width:1px;stroke-linecap:butt;stroke-linejoin:miter;stroke-opacity:1"
       d="M 21.968597,8.959764 24.201178,10.969087 9.5107951,24.587831 7.3228657,22.489205 z"
       transform="translate(418.5,367)"
       id="path5324" />
  </g>
  <use
     id="7ed0bee3-f27a-41c7-ad7a-740435179477"
     xlink:href="#def22"
     class="style3"
     x="173"
     y="179" />
  <g
     id="7ed0bee3-f27a-41c7-ad7a-740435179477Container"
     transform="translate(173,179) rotate(0,25,25)" />
  <g
     id="g5334">
    <path
       style="fill:none;stroke:#03689A;stroke-width:2px;stroke-linecap:butt;stroke-linejoin:miter;stroke-opacity:1"
       d="m 17.324829,33.786065 16.789009,0 0,16.967615 -16.789009,0 z"
       transform="translate(193,188)"
       id="path5330" />
    <path
       style="fill:#03689A;stroke:#03689A;stroke-width:1px;stroke-linecap:butt;stroke-linejoin:miter;stroke-opacity:1"
       d="m 21.343661,41.724627 3.031053,0 0,-3.157347 2.904758,0 0,3.157347 2.904759,0 0,2.904758 -2.904759,0 0,2.904759 -2.904758,0 0,-2.904759 -3.031053,0 z"
       transform="translate(193,188)"
       id="path5332" />
  </g>
  <use
     id="9847b9bc-ec3e-4f1f-ad10-fb9183ea11ec"
     xlink:href="#def22"
     class="style3"
     x="477"
     y="179" />
  <g
     id="9847b9bc-ec3e-4f1f-ad10-fb9183ea11ecContainer"
     transform="translate(477,179) rotate(0,25,25)" />
  <g
     id="g5342">
    <path
       style="fill:none;stroke:#03689A;stroke-width:2px;stroke-linecap:butt;stroke-linejoin:miter;stroke-opacity:1"
       d="m 17.324829,33.786065 16.789009,0 0,16.967615 -16.789009,0 z"
       transform="translate(497,188)"
       id="path5338" />
    <path
       style="fill:#03689A;stroke:#03689A;stroke-width:1px;stroke-linecap:butt;stroke-linejoin:miter;stroke-opacity:1"
       d="m 21.343661,41.724627 3.031053,0 0,-3.157347 2.904758,0 0,3.157347 2.904759,0 0,2.904758 -2.904759,0 0,2.904759 -2.904758,0 0,-2.904759 -3.031053,0 z"
       transform="translate(497,188)"
       id="path5340" />
  </g>
  <use
     id="722b05fd-921e-4a8e-acb6-b3bde7a263fa"
     xlink:href="#def22"
     class="style3"
     x="733"
     y="179" />
  <g
     id="722b05fd-921e-4a8e-acb6-b3bde7a263faContainer"
     transform="translate(733,179) rotate(0,25,25)" />
  <g
     id="g5350">
    <path
       style="fill:none;stroke:#03689A;stroke-width:2px;stroke-linecap:butt;stroke-linejoin:miter;stroke-opacity:1"
       d="m 17.324829,33.786065 16.789009,0 0,16.967615 -16.789009,0 z"
       transform="translate(753,188)"
       id="path5346" />
    <path
       style="fill:#03689A;stroke:#03689A;stroke-width:1px;stroke-linecap:butt;stroke-linejoin:miter;stroke-opacity:1"
       d="m 21.343661,41.724627 3.031053,0 0,-3.157347 2.904758,0 0,3.157347 2.904759,0 0,2.904758 -2.904759,0 0,2.904759 -2.904758,0 0,-2.904759 -3.031053,0 z"
       transform="translate(753,188)"
       id="path5348" />
  </g>
  <use
     id="90b9a964-1ee3-4dfc-be39-e2eeed98153d"
     xlink:href="#def22"
     class="style3"
     x="988"
     y="179" />
  <g
     id="90b9a964-1ee3-4dfc-be39-e2eeed98153dContainer"
     transform="translate(988,179) rotate(0,25,25)" />
  <g
     id="g5358">
    <path
       style="fill:none;stroke:#03689A;stroke-width:2px;stroke-linecap:butt;stroke-linejoin:miter;stroke-opacity:1"
       d="m 17.324829,33.786065 16.789009,0 0,16.967615 -16.789009,0 z"
       transform="translate(1008,188)"
       id="path5354" />
    <path
       style="fill:#03689A;stroke:#03689A;stroke-width:1px;stroke-linecap:butt;stroke-linejoin:miter;stroke-opacity:1"
       d="m 21.343661,41.724627 3.031053,0 0,-3.157347 2.904758,0 0,3.157347 2.904759,0 0,2.904758 -2.904759,0 0,2.904759 -2.904758,0 0,-2.904759 -3.031053,0 z"
       transform="translate(1008,188)"
       id="path5356" />
  </g>
  <use
     id="3dff002d-75b5-48b5-8b4f-d94062ea6036"
     xlink:href="#def19"
     class="style4"
     x="117"
     y="96" />
  <g
     id="3dff002d-75b5-48b5-8b4f-d94062ea6036Container"
     transform="translate(117,96) rotate(0,25,25)" />
  <polyline
     id="13e89b4a-6145-40cf-bc6b-35ad5e259aea"
     style="stroke:#000000;fill:none;stroke-opacity:1;stroke-width:1;"
     points="0,0 0,46 "
     marker-end="url(#defMarker)"
     transform="translate(218,239)" />
  <text
     x="218"
     y="260"
     style="font-family:'Segoe UI';font-size:8pt;fill:#000000;"
     id="text5363" />
  <polyline
     id="9b709d14-c108-40e8-bfce-52d3db195b21"
     style="stroke:#000000;fill:none;stroke-opacity:1;stroke-width:1;"
     points="62.00002,85.00002 12.00002,85.00002 6.000015,84.99998 2.68631,85.00002 1.525879E-05,82.31371 1.525879E-05,79.00002 1.525879E-05,12.00002 0,6.000015 0,2.68631 2.686295,1.525879E-05 6,0 37.00002,1.525879E-05 "
     marker-end="url(#defMarker)"
     transform="translate(136,220)" />
  <text
     x="136"
     y="260.5"
     style="font-family:'Segoe UI';font-size:8pt;fill:#000000;"
     id="text5366" />
  <polyline
     id="6be198a3-6471-4f8d-99c6-6ee502ac6191"
     style="stroke:#000000;fill:none;stroke-opacity:1;stroke-width:1;"
     points="0,108 42.5,108 48.5,108 51.81369,108 54.49997,105.3137 54.49997,102 54.5,12.00002 54.49997,6.000015 54.49997,2.68631 57.18628,1.525879E-05 60.49997,0 239,1.525879E-05 "
     marker-end="url(#defMarker)"
     transform="translate(238,197)" />
  <text
     x="292.5"
     y="249"
     style="font-family:'Segoe UI';font-size:8pt;fill:#000000;"
     id="text5369" />
  <polyline
     id="daf42c59-f391-4f89-865c-3e8e76a07f68"
     style="stroke:#000000;fill:none;stroke-opacity:1;stroke-width:1;"
     points="0,0 0,46 "
     marker-end="url(#defMarker)"
     transform="translate(522,239)" />
  <text
     x="522"
     y="260"
     style="font-family:'Segoe UI';font-size:8pt;fill:#000000;"
     id="text5372" />
  <polyline
     id="44beeda5-030c-4c11-85d2-748f734424cc"
     style="stroke:#000000;fill:none;stroke-opacity:1;stroke-width:1;"
     points="0,0 0,46 "
     marker-end="url(#defMarker)"
     transform="translate(778,239)" />
  <text
     x="778"
     y="260"
     style="font-family:'Segoe UI';font-size:8pt;fill:#000000;"
     id="text5375" />
  <polyline
     id="0659cd43-86cd-4c7a-8e97-ee12a9979d99"
     style="stroke:#000000;fill:none;stroke-opacity:1;stroke-width:1;"
     points="0,0 0,46 "
     marker-end="url(#defMarker)"
     transform="translate(1033,239)" />
  <text
     x="1033"
     y="260"
     style="font-family:'Segoe UI';font-size:8pt;fill:#000000;"
     id="text5378" />
  <polyline
     id="da716d15-90fb-49ac-bb31-355502680720"
     style="stroke:#000000;fill:none;stroke-opacity:1;stroke-width:1;"
     points="0,108 57,108 63,108 66.31366,108 68.99994,105.3137 68.99994,102 69,12.00002 68.99994,6.000015 68.99994,2.68631 71.68628,1.525879E-05 74.99994,0 191,1.525879E-05 "
     marker-end="url(#defMarker)"
     transform="translate(542,197)" />
  <text
     x="611"
     y="249"
     style="font-family:'Segoe UI';font-size:8pt;fill:#000000;"
     id="text5381" />
  <polyline
     id="27ce7c5a-5b29-4e14-8a0c-63c44249224d"
     style="stroke:#000000;fill:none;stroke-opacity:1;stroke-width:1;"
     points="0,96.00002 48,96.00002 54,95.99998 57.31366,95.99998 59.99994,93.31371 59.99994,89.99998 60,12.00002 59.99994,6.000015 59.99994,2.68631 62.68628,1.525879E-05 65.99994,0 190,1.525879E-05 "
     marker-end="url(#defMarker)"
     transform="translate(798,209)" />
  <text
     x="858"
     y="255"
     style="font-family:'Segoe UI';font-size:8pt;fill:#000000;"
     id="text5384" />
  <polyline
     id="2087b342-69d8-48aa-95a8-b526aece4a63"
     style="stroke:#000000;fill:none;stroke-opacity:1;stroke-width:1;"
     points="0,0 0,38 "
     marker-end="url(#defMarker)"
     transform="translate(522,325)" />
  <text
     x="522"
     y="342"
     style="font-family:'Segoe UI';font-size:8pt;fill:#000000;"
     id="text5387" />
  <polyline
     id="6672b9a5-1f5a-4d79-b838-cc0818b538af"
     style="stroke:#000000;fill:none;stroke-opacity:1;stroke-width:1;"
     points="295,186 12.00001,186 6.000008,186 2.686302,186 7.629395E-06,183.3137 7.629395E-06,180 7.629395E-06,12.00002 0,6.000015 0,2.68631 2.686287,1.525879E-05 6,0 54.00001,1.525879E-05 "
     marker-end="url(#defMarker)"
     transform="translate(119,197)" />
  <text
     x="119"
     y="288"
     style="font-family:'Segoe UI';font-size:8pt;fill:#000000;"
     id="text5390" />
  <polyline
     id="b09547ca-25e4-4c86-af68-3ed79a3c1b0f"
     style="stroke:#000000;fill:none;stroke-opacity:1;stroke-width:1;"
     points="0,0 0,38 "
     marker-end="url(#defMarker)"
     transform="translate(778,325)" />
  <text
     x="778"
     y="342"
     style="font-family:'Segoe UI';font-size:8pt;fill:#000000;"
     id="text5393" />
  <polyline
     id="dd8fa9fa-bc60-447a-b6de-a774e8641d29"
     style="stroke:#000000;fill:none;stroke-opacity:1;stroke-width:1;"
     points="40,0 0,0 "
     marker-end="url(#defMarker)"
     transform="translate(718,383)" />
  <text
     x="738"
     y="381"
     style="font-family:'Segoe UI';font-size:8pt;fill:#000000;"
     id="text5396" />
  <polyline
     id="fd1851b7-401b-46ea-bb68-28febbf4ba0b"
     style="stroke:#000000;fill:none;stroke-opacity:1;stroke-width:1;"
     points="136,0 0,0 "
     marker-end="url(#defMarker)"
     transform="translate(542,383)" />
  <text
     x="610"
     y="381"
     style="font-family:'Segoe UI';font-size:8pt;fill:#000000;"
     id="text5399" />
  <polyline
     id="69164f39-1e77-4582-ab69-17b0cd9c681d"
     style="stroke:#000000;fill:none;stroke-opacity:1;stroke-width:1;"
     points="235,0 235,46 234.9999,51.99997 234.9999,55.31369 232.3136,57.99997 229,57.99997 0,58 "
     marker-end="url(#defMarker)"
     transform="translate(798,325)" />
  <text
     x="1033"
     y="381"
     style="font-family:'Segoe UI';font-size:8pt;fill:#000000;"
     id="text5402" />
  <polyline
     id="e8caede9-bc08-4875-aab5-59879cde6755"
     style="stroke:#000000;fill:none;stroke-opacity:1;stroke-width:1;"
     points="39.00006,73.00002 12.00006,73.00002 6.000061,72.99998 2.68634,73.00002 6.103516E-05,70.31371 6.103516E-05,67.00002 6.103516E-05,12.00002 0,6.000015 0,2.68631 2.68634,1.525879E-05 6,0 14.00006,1.525879E-05 "
     marker-end="url(#defMarker)"
     transform="translate(974,232)" />
  <text
     x="974"
     y="266.5"
     style="font-family:'Segoe UI';font-size:8pt;fill:#000000;"
     id="text5405" />
  <polyline
     id="758d6168-4599-442b-8a8f-4d49c19540fc"
     style="stroke:#000000;fill:none;stroke-opacity:1;stroke-width:1;"
     points="0,3.051758E-05 46,3.051758E-05 51.99988,3.051758E-05 55.3136,0 57.99988,2.68631 57.99988,6 57.99988,6 57.99988,6.000031 57.99988,6.000031 58,63.00003 "
     marker-end="url(#defMarker)"
     transform="translate(1053,305)" />
  <text
     x="1111"
     y="303"
     style="font-family:'Segoe UI';font-size:8pt;fill:#000000;"
     id="text5408" />
  <polyline
     id="a1138ba1-5522-4e0a-b34b-1402f9af21ce"
     style="stroke:#000000;fill:none;stroke-opacity:1;stroke-width:1;"
     points="6.103516E-05,154 6.103516E-05,12.00002 0,6.000015 0,2.68631 2.68634,1.525879E-05 6,0 35.00006,1.525879E-05 "
     marker-end="url(#defMarker)"
     transform="translate(698,209)" />
  <text
     x="698"
     y="207"
     style="font-family:'Segoe UI';font-size:8pt;fill:#000000;"
     id="text5411" />
  <polyline
     id="e52193aa-76e5-4fdf-876a-bb495fa2b672"
     style="stroke:#000000;fill:none;stroke-opacity:1;stroke-width:1;"
     points="3.051758E-05,154 3.051758E-05,12.00002 0,6.000015 0,2.68631 2.68631,1.525879E-05 6,0 43.00003,1.525879E-05 "
     marker-end="url(#defMarker)"
     transform="translate(434,209)" />
  <text
     x="434"
     y="207"
     style="font-family:'Segoe UI';font-size:8pt;fill:#000000;"
     id="text5414" />
  <polyline
     id="a8400dfa-e9d0-4ea2-b18f-2e00e7a30424"
     style="stroke:#000000;fill:none;stroke-opacity:1;stroke-width:1;"
     points="48,0 0,0 "
     marker-end="url(#defMarker)"
     transform="translate(454,383)" />
  <text
     x="478"
     y="381"
     style="font-family:'Segoe UI';font-size:8.25pt;fill:Black;"
     id="text5417" />
  <polyline
     id="604e85d3-8f49-4abd-93d3-4f545cc75267"
     style="stroke:#000000;fill:none;stroke-opacity:1;stroke-width:1;"
     points="0,0 0,14.5 0,20.5 0,23.81371 2.686295,26.5 6,26.49998 74,26.5 79.99998,26.5 83.31369,26.49998 85.99998,29.18628 85.99998,32.49998 85.99998,32.49998 85.99998,32.5 85.99998,32.5 86,53 "
     marker-end="url(#defMarker)"
     transform="translate(132,126)" />
  <text
     x="175"
     y="150.5"
     style="font-family:'Segoe UI';font-size:8pt;fill:#000000;"
     id="text5420" />
  <g
     id="Text_90b9a964-1ee3-4dfc-be39-e2eeed98153dContainer"
     transform="translate(985,190) rotate(0,25,25)">
    <text
       id="Text_90b9a964-1ee3-4dfc-be39-e2eeed98153dText"
       class="style6"
       clip-path="url(#def31)">
      <tspan
         x="14"
         y="14"
         id="tspan5422">Report Step </tspan>
      <tspan
         x="27"
         y="29"
         id="tspan5424">Activity</tspan>
    </text>
  </g>
  <g
     id="Text_722b05fd-921e-4a8e-acb6-b3bde7a263faContainer"
     transform="translate(728,187) rotate(0,25,25)">
    <text
       id="Text_722b05fd-921e-4a8e-acb6-b3bde7a263faText"
       class="style7"
       clip-path="url(#def32)">
      <tspan
         x="13"
         y="14"
         id="tspan5428">Analyze Step </tspan>
      <tspan
         x="27"
         y="29"
         id="tspan5430">Activity</tspan>
    </text>
  </g>
  <g
     id="Text_9847b9bc-ec3e-4f1f-ad10-fb9183ea11ecContainer"
     transform="translate(477,186) rotate(0,25,25)">
    <text
       id="Text_9847b9bc-ec3e-4f1f-ad10-fb9183ea11ecText"
       class="style8"
       clip-path="url(#def33)">
      <tspan
         x="13"
         y="14"
         id="tspan5434">Execute Step </tspan>
      <tspan
         x="27"
         y="29"
         id="tspan5436">Activity</tspan>
    </text>
  </g>
  <g
     id="Text_7ed0bee3-f27a-41c7-ad7a-740435179477Container"
     transform="translate(173,185) rotate(0,25,25)">
    <text
       id="Text_7ed0bee3-f27a-41c7-ad7a-740435179477Text"
       class="style9"
       clip-path="url(#def34)">
      <tspan
         x="21"
         y="14"
         id="tspan5440">Plan Step </tspan>
      <tspan
         x="27"
         y="29"
         id="tspan5442">Activity</tspan>
    </text>
  </g>
</svg>
